<?xml version="1.0" encoding="UTF-8" standalone="no"?>
<!-- Created with Inkscape (http://www.inkscape.org/) -->

<svg
   width="297mm"
   height="210mm"
   viewBox="0 0 297 210"
   version="1.1"
   id="svg1"
   xml:space="preserve"
   inkscape:version="1.4.2 (ebf0e94, 2025-05-08)"
   sodipodi:docname="civic.svg"
   xmlns:inkscape="http://www.inkscape.org/namespaces/inkscape"
   xmlns:sodipodi="http://sodipodi.sourceforge.net/DTD/sodipodi-0.dtd"
   xmlns="http://www.w3.org/2000/svg"
   xmlns:svg="http://www.w3.org/2000/svg"><sodipodi:namedview
     id="namedview1"
     pagecolor="#ffffff"
     bordercolor="#000000"
     borderopacity="0.25"
     inkscape:showpageshadow="2"
     inkscape:pageopacity="0.0"
     inkscape:pagecheckerboard="0"
     inkscape:deskcolor="#d1d1d1"
     inkscape:document-units="mm"
     inkscape:zoom="0.68862935"
     inkscape:cx="396.43968"
     inkscape:cy="445.08704"
     inkscape:window-width="1920"
     inkscape:window-height="991"
     inkscape:window-x="-9"
     inkscape:window-y="-9"
     inkscape:window-maximized="1"
     inkscape:current-layer="layer1"><inkscape:page
       x="0"
       y="0"
       width="297"
       height="210"
       id="page2"
       margin="0"
       bleed="0" /></sodipodi:namedview><defs
     id="defs1" /><g
     inkscape:label="Layer 1"
     inkscape:groupmode="layer"
     id="layer1"><path
       style="fill:#000000"
       d="m 90.718524,165.31942 c -9.267459,-0.43048 -24.299626,-2.23273 -30.691666,-3.67972 -2.522362,-0.57099 -6.385269,-1.44356 -8.584239,-1.93904 C 32.773081,155.494 26.150222,149.6464 35.114616,145.28399 c 1.574997,-0.76645 2.86363,-1.59989 2.86363,-1.85208 0,-0.63854 0.518019,-0.58304 3.840753,0.4115 5.180261,1.55052 6.529011,1.68435 5.378313,0.53365 -1.132765,-1.13277 -4.718499,-2.50425 -6.21169,-2.37587 -0.657952,0.0566 -1.052838,-0.0771 -1.058333,-0.35836 -0.0048,-0.24673 -0.802515,-0.84833 -1.772654,-1.33688 -3.652108,-1.83915 -4.383103,-2.27691 -5.250573,-3.14438 -1.691942,-1.69195 -2.504976,-0.76658 -1.464354,1.66667 0.164848,0.38546 0.10988,0.61736 -0.146333,0.61736 -1.659169,0 -2.755152,-8.97948 -1.662516,-13.62113 0.314642,-1.33664 0.969462,-4.12346 1.455153,-6.19292 0.926956,-3.94963 1.515747,-5.58595 2.009972,-5.58595 0.382139,0 0.408131,-0.19408 -0.41922,3.13015 -1.740738,6.99412 -1.421151,9.57125 1.175043,9.47549 0.620305,-0.0229 1.564391,0.0856 2.097967,0.24101 0.944796,0.27523 0.970139,0.24541 0.970139,-1.14154 0,-2.45754 0.709932,-2.81184 4.056945,-2.02462 1.164166,0.27382 3.148541,0.60684 4.409722,0.74006 4.951501,0.52304 10.207607,1.97643 11.68339,3.23063 0.604044,0.51335 3.869233,-1.08037 5.955499,-2.90685 0.485069,-0.42466 1.199444,-0.95682 1.5875,-1.18257 0.544948,-0.31703 -0.458845,-0.34785 -4.409723,-0.13542 -11.200641,0.60226 -14.387182,0.0214 -17.844935,-3.25273 -1.02454,-0.97014 -2.744974,-2.55764 -3.823186,-3.52778 -1.078212,-0.97013 -1.962097,-1.95162 -1.964188,-2.18108 -0.0021,-0.22946 -0.321302,-0.51797 -0.709357,-0.64114 -0.388056,-0.12316 -0.705556,-0.43437 -0.705556,-0.69158 0,-0.25721 -0.25748,-0.56646 -0.572177,-0.68722 -1.47588,-0.56635 3.589804,-11.14481 5.33689,-11.14481 0.647976,0 0.647886,0.15258 -0.0012,2.01566 -0.691874,1.9859 -0.43505,2.46177 1.898578,3.51787 5.72387,2.59036 16.654334,5.11926 15.741307,3.64195 -0.118808,-0.19223 0.348073,-0.61851 1.037513,-0.94728 0.774222,-0.3692 1.253528,-0.84926 1.253528,-1.2555 0,-0.85472 -0.977056,-2.73936 -1.420171,-2.73936 -0.189045,0 -0.344722,-0.19844 -0.345949,-0.44098 -0.0012,-0.24253 -0.487761,-0.7173 -1.081187,-1.05504 -0.593426,-0.33774 -0.979929,-0.7743 -0.858894,-0.97014 0.121034,-0.19584 0.08617,-0.35607 -0.07747,-0.35607 -0.163645,0 -0.580008,-0.47818 -0.92525,-1.06263 -0.345243,-0.58445 -1.232204,-1.37102 -1.971024,-1.747942 -0.738821,-0.376918 -1.431937,-1.024215 -1.540259,-1.438439 -0.218457,-0.835381 -0.88923,-0.770408 -2.96279,0.286985 -1.049743,0.535307 -1.175269,0.53361 -1.791667,-0.02422 -0.36456,-0.329923 -0.862003,-0.599859 -1.105429,-0.599859 -2.440175,0 7.096279,-4.864027 17.60787,-8.980818 2.813403,-1.101849 6.147153,-2.422719 7.408334,-2.935265 2.190924,-0.890397 10.961762,-5.8218 13.934722,-7.834797 10.708373,-7.250661 29.720431,-17.284108 37.431681,-19.754239 16.26142,-5.208998 48.50771,-7.532775 73.86971,-5.323303 8.00708,0.697557 16.52643,1.989634 18.87361,2.862448 0.97014,0.360751 2.6767,0.923657 3.79236,1.250902 1.11566,0.327246 2.02848,0.716905 2.02848,0.865909 0,0.381572 -2.72637,-0.0059 -4.40973,-0.626791 -0.77611,-0.286238 -1.96673,-0.548013 -2.64583,-0.581721 -0.6791,-0.03371 -1.44011,-0.189437 -1.69115,-0.346064 -0.25103,-0.156627 -0.64791,-0.133999 -0.88194,0.05029 -0.59422,0.4679 -2.64508,0.469283 -4.22152,0.0028 -0.95606,-0.282878 -1.54723,-0.285851 -2.11667,-0.01065 -1.26905,0.613323 -2.94772,0.817158 -8.19844,0.995512 -2.71639,0.09227 -5.49452,0.3189 -6.17361,0.503623 -13.42513,3.651817 -16.79848,5.825742 -35.22954,22.703334 -2.93695,2.689405 -5.33991,5.030967 -5.33991,5.203472 0,0.172505 -0.2326,0.313645 -0.51689,0.313645 -0.28429,0 -1.03835,0.452424 -1.67569,1.005388 -1.96439,1.70432 -5.33966,3.863379 -6.4513,4.126701 -0.58163,0.137776 -1.61313,0.531556 -2.29223,0.875069 -2.18263,1.104056 -4.67091,2.015663 -8.64305,3.16648 -2.13431,0.618354 -4.03931,1.240637 -4.23334,1.38285 -0.19403,0.142213 -1.75114,0.704456 -3.46026,1.249429 -6.10039,1.945181 -5.92019,2.828501 0.58121,2.848981 5.62632,0.0177 5.58108,0.0113 5.45216,0.77912 -0.18705,1.11398 2.10777,1.05436 2.53367,-0.0658 0.38398,-1.00995 0.78819,-1.13596 1.37517,-0.4287 0.5511,0.66404 -0.41629,1.4632 -2.4161,1.99596 -0.86823,0.2313 -2.45573,0.85925 -3.52778,1.39545 -1.07205,0.5362 -2.5253,1.16145 -3.22944,1.38944 -1.76468,0.57139 -3.11612,2.02195 -1.54196,1.65506 0.58208,-0.13566 1.69333,-0.3779 2.46944,-0.53831 0.77611,-0.1604 3.55184,-0.78687 6.16828,-1.39215 6.30878,-1.45946 7.66914,-1.27694 4.94422,0.66338 -2.63717,1.87783 1.41065,2.5326 7.49668,1.21264 1.41476,-0.30683 6.01025,0.24007 4.85055,0.57727 -0.48507,0.14103 -1.71539,0.27225 -2.73403,0.29159 -1.87139,0.0355 -2.19125,0.26044 -1.43951,1.01219 0.31492,0.31492 0.21054,0.49333 -0.44097,0.75375 -0.7683,0.30709 -0.71237,0.3434 0.55989,0.36353 0.77739,0.0123 1.96802,0.18476 2.64583,0.38324 0.67782,0.19849 2.71663,0.43028 4.53069,0.51511 1.81407,0.0848 3.51189,0.33148 3.77295,0.54814 1.42647,1.18387 3.01709,-0.81459 2.30401,-2.89477 -0.56275,-1.64165 2.74089,-3.52946 3.35876,-1.91931 0.65747,1.71334 1.719,-0.32971 1.1907,-2.29165 -0.35648,-1.32387 -0.42895,-1.39095 -0.86235,-0.79823 -0.26025,0.3559 -1.47578,0.96727 -2.70118,1.3586 -2.06325,0.65889 -2.25518,0.80878 -2.59538,2.02677 -0.57883,2.07239 -1.35903,2.67555 -2.56262,1.98112 -0.53342,-0.30775 -1.56516,-0.75109 -2.29277,-0.98519 -0.93761,-0.30166 -1.32291,-0.62826 -1.32291,-1.12135 0,-0.93904 -0.93983,-2.74098 -2.04656,-3.92387 -0.568,-0.60709 -0.72834,-0.97014 -0.42847,-0.97014 0.26355,0 0.72982,-0.20564 1.03614,-0.45697 0.61357,-0.50344 3.3937,-1.47614 5.31592,-1.85991 0.67715,-0.1352 1.74238,-0.635708 2.36716,-1.112251 0.87306,-0.665916 1.37994,-0.812855 2.19017,-0.6349 1.64692,0.361724 3.2073,-0.954327 3.2073,-2.705081 0,-0.891293 0.16001,-1.344768 0.47449,-1.344768 0.26097,0 0.76183,-0.3175 1.11301,-0.705555 0.56226,-0.621289 0.57045,-0.705556 0.0686,-0.705556 -0.31347,0 -0.76287,0.206533 -0.99867,0.458962 -0.2358,0.252428 -0.85189,0.396855 -1.36908,0.320947 -0.51719,-0.07591 -2.31554,0.119675 -3.99633,0.434627 -3.85892,0.723096 -5.52256,-0.07557 -5.52256,-2.651212 0,-2.248852 15.96383,-18.839044 23.63611,-24.563494 13.14194,-9.805486 38.78404,-12.463781 52.44582,-5.437014 4.17353,2.146601 9.62422,6.82033 9.63993,8.26582 0.002,0.158596 0.28934,0.197519 0.63915,0.08649 0.3498,-0.111024 1.44636,0.189067 2.43679,0.666868 0.99044,0.477801 2.25205,0.976137 2.80358,1.107414 0.55153,0.131276 1.28948,0.488129 1.63988,0.793005 0.51911,0.451668 0.76509,0.47439 1.32823,0.122698 0.87977,-0.549426 2.87649,0.357105 2.72094,1.235339 -0.0551,0.311034 0.12358,0.643335 0.39703,0.738446 0.34328,0.119395 0.42858,-0.0059 0.27557,-0.404607 -0.13994,-0.364665 0.16641,-1.019486 0.83115,-1.776582 1.03792,-1.182122 2.02409,-4.626389 1.62352,-5.670257 -0.40366,-1.051909 -15.92667,-3.595185 -17.18746,-2.815976 -0.68095,0.420852 -4.20802,-1.582163 -4.20802,-2.389726 0,-0.863867 7.45747,-0.752279 18.14169,0.271458 8.4695,0.811528 8.92403,1.202912 9.65855,8.316757 0.31165,3.01829 0.0128,4.385801 -1.01739,4.655196 -0.66337,0.173475 -0.65075,0.234515 0.2445,1.18318 1.28613,1.362868 2.95876,4.014487 2.95876,4.690532 0,0.304435 0.29988,1.11302 0.66639,1.796856 0.36651,0.683836 0.83275,2.268985 1.03608,3.522554 0.20332,1.253568 0.6331,3.707964 0.95506,5.454214 0.81781,4.43568 0.24228,17.214636 -0.94536,20.990276 -0.7598,2.41552 -4.48335,6.01998 -6.88139,6.66131 -0.91567,0.24489 -1.76973,2.44139 -1.87094,4.81171 -0.008,0.19829 1.02014,0.55696 2.2858,0.79705 4.59789,0.87221 7.57658,2.14207 7.57658,3.23001 0,1.78092 -14.75982,6.37516 -26.22664,8.16348 -7.36372,1.14842 -12.83445,2.35288 -39.7428,8.75001 -25.23554,5.99943 -36.35604,8.83631 -45.86111,11.69934 -12.40312,3.73594 -25.81395,6.63351 -38.24252,8.26276 -3.76603,0.49368 -14.322276,0.64515 -21.553319,0.30926 z m 27.163886,-2.02077 c 9.43429,-1.46882 13.03131,-2.10558 12.6369,-2.23705 -0.20688,-0.069 -2.73794,0.26858 -5.62458,0.75009 -21.90256,3.65351 -52.247556,1.03679 -75.922538,-6.54698 -9.994396,-3.20149 -14.656659,-12.14864 -5.030761,-9.65432 2.9322,0.75981 3.495348,0.62252 0.739593,-0.18031 -3.214773,-0.93655 -4.423349,-0.85509 -6.879166,0.46363 -10.096757,5.42176 15.585081,14.68053 48.683333,17.55123 14.467249,1.25478 22.642779,1.21669 31.397219,-0.14629 z m 31.05767,-6.9317 c 6.74076,-2.26786 18.38392,-5.47066 29.62011,-8.14791 27.23603,-6.48954 49.56273,-11.54451 51.3962,-11.63659 0.54635,-0.0274 0.62159,-0.0921 0.22829,-0.19633 -0.32264,-0.0855 -6.91076,1.10795 -14.64027,2.65206 -11.26171,2.24973 -14.96476,2.85399 -18.63977,3.04162 -4.98248,0.25437 -8.37559,0.70768 -10.58334,1.4139 -0.77611,0.24827 -2.36361,0.56312 -3.52778,0.69967 -1.16416,0.13655 -4.02166,0.72777 -6.35,1.31383 -2.32833,0.58606 -5.10645,1.26015 -6.17361,1.49797 -1.9461,0.43371 -7.62903,2.50087 -8.29027,3.01558 -0.19403,0.15104 -0.73161,0.39098 -1.19462,0.53321 -0.46301,0.14223 -1.54673,0.79666 -2.40827,1.45428 -0.86154,0.65763 -1.75271,1.19571 -1.98039,1.19573 -0.53321,4e-5 -13.58664,4.90775 -13.10072,4.92549 0.2013,0.007 2.7413,-0.78578 5.64444,-1.76251 z m -6.98612,-1.59488 c 9.88137,-4.9241 13.68997,-23.21941 6.77431,-32.54166 -1.492,-2.0112 -1.492,-2.0112 -0.004,-0.60009 0.81866,0.77611 1.97973,2.16501 2.58015,3.08643 1.28901,1.97813 1.52091,1.94567 0.96078,-0.13449 -1.93817,-7.19781 -9.61587,-11.97359 -14.86747,-9.24805 -3.32322,1.72471 -4.18924,2.33333 -5.68082,3.99232 -3.07576,3.42099 -4.3098,7.97501 -1.28467,4.74084 1.73796,-1.85804 1.96482,-1.46917 0.47034,0.80621 -2.74683,4.18214 -3.99375,8.25235 -4.19396,13.69007 -0.14288,3.88056 -0.14288,3.88056 0.18837,0.17639 1.98966,-22.24911 21.61297,-27.951 24.65653,-7.16436 2.62344,17.91731 -14.41327,31.93299 -22.23669,18.29357 -0.56173,-0.97933 -1.02282,-1.61324 -1.02464,-1.40869 -0.003,0.36783 1.64407,3.00148 2.53462,4.05217 2.61032,3.0797 7.49145,4.07084 11.12667,2.25934 z M 91.85771,143.34379 c 3.736342,-0.31195 4.0185,-0.48125 5.41599,-3.24966 2.211006,-4.37998 2.91201,-4.15749 -13.752721,-4.36504 -14.339823,-0.17859 -15.617043,6e-4 -9.078699,1.27368 2.420978,0.4714 2.420978,0.4714 4.484167,3.5398 2.597396,3.86288 1.934745,3.71933 12.931263,2.80122 z m -10.558691,-0.27194 c -5.097885,-5.80034 -4.675919,-6.96013 2.430328,-6.67987 3.226927,0.12727 7.672394,0.2314 9.878814,0.2314 4.778014,0 4.821122,0.043 3.289673,3.28435 -1.316748,2.78691 -1.670885,2.9452 -7.237643,3.23514 -2.134306,0.11116 -4.764578,0.28188 -5.845049,0.37937 -1.589407,0.14341 -2.069818,0.0574 -2.516123,-0.45039 z M 247.12185,129.75068 c 5.01272,-4.52869 6.78484,-18.43029 3.03876,-23.83793 -1.05056,-1.51653 -1.12618,-2.08749 -0.16076,-1.2138 1.02713,0.92954 1.1455,0.50995 0.30503,-1.08126 -2.13089,-4.034254 -5.79131,-5.114565 -8.72655,-2.57549 -2.11643,1.83076 -3.53231,4.60296 -2.52733,4.94831 0.1908,0.0656 -0.0433,1.17828 -0.52916,2.51489 -1.07108,2.94674 -1.10929,3.77631 -0.17395,3.77631 1.53101,0 2.199,2.72243 1.25512,5.11528 -0.15307,0.38806 0.21811,-0.054 0.82485,-0.98239 1.4307,-2.18911 1.40452,-2.39655 -0.51587,-4.08695 -1.44435,-1.27136 -1.59367,-1.54061 -1.38397,-2.49538 0.36134,-1.64519 0.79378,-1.61311 1.85107,0.13732 1.62482,2.68999 2.7684,1.6931 3.14313,-2.73994 0.24943,-2.95071 0.16861,-3.05535 -1.55022,-2.00736 -1.43847,0.87705 -1.43569,0.85799 0.238,-1.63185 0.97465,-1.44991 1.26185,-2.14128 0.97014,-2.33534 -0.73583,-0.48953 0.85823,-1.3909 2.05505,-1.16205 2.57727,0.49281 3.77348,2.30721 1.5287,2.31873 -1.5287,0.008 -1.5287,0.008 -0.69195,0.65131 0.663,0.50986 0.72833,0.68507 0.31462,0.84383 -0.44357,0.17021 -1.32776,4.77294 -1.32776,6.91179 0,0.92048 1.38188,-0.34029 2.48366,-2.266 1.27443,-2.22748 1.9838,-2.68466 2.68263,-1.72895 1.85807,2.54107 -3.26455,8.10703 -5.34526,5.80787 -0.60012,-0.66312 -0.68255,-0.6709 -1.2894,-0.12171 -0.96517,0.87347 -0.83927,1.65444 0.23365,1.44934 0.77104,-0.14739 0.88194,-0.0443 0.88194,0.82 0,1.17979 0.69458,1.73453 1.18946,0.94998 0.31503,-0.49942 0.43499,-0.50179 1.16563,-0.023 1.05759,0.69296 1.87825,0.35758 1.87825,-0.76757 0,-0.93176 0.51634,-1.21444 0.82569,-0.45205 0.29605,0.72964 0.92666,-0.46283 0.93279,-1.76389 0.01,-2.07557 0.60434,-1.19516 0.83383,1.23473 0.52683,5.57823 0.3649,6.04748 -1.74008,5.0424 -2.43281,-1.1616 -2.80684,-1.18078 -3.26848,-0.16759 -0.44113,0.96817 0.0199,3.68005 0.62563,3.68005 0.61637,0 2.13543,-0.97007 2.8077,-1.79299 1.80381,-2.20802 1.45693,1.50323 -0.49732,5.32076 -1.09472,2.1385 -3.44315,4.50241 -4.65452,4.68521 -0.98052,0.14797 -0.98052,0.14797 -0.0114,0.20083 0.65941,0.036 1.4036,-0.33967 2.32865,-1.1754 z m -145.72302,-6.40621 c 1.60555,-0.31871 2.84817,-0.65049 2.76136,-0.73729 -0.0868,-0.0868 -1.37773,0.0944 -2.86873,0.40279 -3.816766,0.78933 -6.127211,0.70859 -9.195246,-0.32131 -1.444997,-0.48507 -2.862049,-0.88195 -3.149006,-0.88195 -0.286957,0 -0.521739,-0.21886 -0.521739,-0.48637 0,-0.2675 -0.465947,-0.67936 -1.035437,-0.91526 -1.142889,-0.4734 -2.162338,-2.47892 -1.260087,-2.47892 0.269497,0 0.587632,0.15798 0.706966,0.35106 0.133458,0.21594 0.71856,0.0909 1.520126,-0.32499 1.303154,-0.67605 1.303154,-0.67605 2.390349,0.36619 1.213623,1.16344 1.955366,1.09531 2.561625,-0.23528 0.216149,-0.4744 0.651736,-0.86254 0.967972,-0.86254 0.815485,0 0.35574,1.66649 -0.793017,2.87453 -1.086117,1.14217 -0.670914,2.41714 0.78716,2.41714 0.75716,0 0.831189,-0.0948 0.523215,-0.67029 -0.594836,-1.11147 0.597511,-1.24536 1.944046,-0.21831 0.655324,0.49984 1.599732,0.87468 2.158683,0.85678 0.993676,-0.0318 0.993676,-0.0318 -0.06466,-0.35825 -6.245818,-1.92649 -2.739255,-9.54879 4.35078,-9.45739 1.90683,0.0246 2.15865,0.0882 1.33047,0.33602 -1.83383,0.54876 -2.94446,1.9412 -2.85222,3.57593 0.0649,1.15003 -0.0515,1.47326 -0.58018,1.61152 -0.36374,0.0951 -0.66135,0.39255 -0.66135,0.66097 0,0.58915 0.5677,0.64371 0.9114,0.0876 0.16631,-0.26909 0.37565,-0.1823 0.63818,0.26458 0.21784,0.37079 0.84494,0.69783 1.41735,0.73918 0.56466,0.0408 1.18652,0.23401 1.38191,0.4294 0.58842,0.58842 -0.80622,0.89145 -2.01056,0.43686 -0.98739,-0.37269 -1.16491,-0.32403 -1.96475,0.53856 -0.73116,0.78853 -0.7624,0.89633 -0.18543,0.63993 0.38161,-0.16958 1.52863,-0.3733 2.54892,-0.45269 1.21525,-0.0946 2.00613,-0.35209 2.29305,-0.74664 0.24089,-0.33126 0.99361,-0.82654 1.67271,-1.10063 0.6791,-0.27408 2.01646,-1.2186 2.97192,-2.09892 1.07363,-0.98919 1.629,-1.33107 1.45394,-0.89503 -1.44826,3.6074 1.84881,2.07124 7.32652,-3.41351 2.92474,-2.92851 3.34311,-3.23704 2.66639,-1.96635 -1.68777,3.16919 -8.62923,8.43634 -13.14672,9.97569 -1.37872,0.4698 -2.18927,0.85278 -1.80122,0.85107 4.68242,-0.0207 17.82736,-10.69121 15.74084,-12.77772 -0.58201,-0.58201 -15.98341,0.99895 -22.972783,2.35817 -2.407869,0.46825 4.811103,-0.27899 10.202293,-1.05605 7.80847,-1.12547 8.26966,-1.09071 6.62283,0.4992 -1.20581,1.16412 -1.21393,1.16618 -1.04158,0.26458 0.21461,-1.12262 -0.22919,-1.15796 -2.25097,-0.17923 -1.27073,0.61515 -2.29704,0.74404 -6.54957,0.82255 -6.407053,0.11828 -8.129742,0.62156 -9.811783,2.86647 -0.650599,0.86831 -1.302783,1.57875 -1.449299,1.57875 -0.508323,0 -0.748937,-0.78584 -0.321499,-1.05001 0.308344,-0.19057 0.171658,-0.52362 -0.483971,-1.17925 -1.202188,-1.20219 -1.152536,-1.57733 0.232854,-1.75932 0.630591,-0.0828 0.511528,-0.10356 -0.264583,-0.0461 -0.776111,0.0575 -2.363611,0.2962 -3.527778,0.53043 -1.164166,0.23424 -3.171505,0.44672 -4.460753,0.47219 -2.17991,0.0431 -2.439343,0.13577 -3.704166,1.32378 -0.748045,0.70261 -2.034768,1.86912 -2.859386,2.59224 -0.824618,0.72312 -1.499306,1.47964 -1.499306,1.68117 0,0.20152 0.290313,0.10367 0.645139,-0.21744 1.746982,-1.581 2.963241,0.49725 1.304346,2.22877 -1.237804,1.29199 -1.034194,1.34088 4.753293,1.14133 4.049776,-0.13963 4.611292,-0.079 6.879167,0.74239 2.967849,1.07496 5.564556,1.17459 9.621975,0.3692 z m -53.084055,-1.77211 c -0.614225,-0.93742 -0.613549,-0.93935 0.25645,-0.73087 3.376259,0.80906 5.371134,0.68802 4.569994,-0.2773 -0.293598,-0.35376 -0.262489,-0.68168 0.122526,-1.29151 0.283819,-0.44955 0.610304,-1.21423 0.725521,-1.6993 0.157651,-0.66372 0.08193,-0.60493 -0.306037,0.23758 -0.68891,1.49605 -1.241094,1.792 -1.241094,0.66518 0,-1.07218 -0.564197,-1.19834 -0.881944,-0.19721 -0.232463,0.73243 -0.881945,0.98187 -0.881945,0.33873 0,-0.59486 1.313088,-2.9932 1.910002,-3.4886 0.701864,-0.58249 1.617776,-0.24202 1.617776,0.60138 0,0.5259 0.21698,0.62165 1.146528,0.50597 1.980657,-0.24649 22.487887,-0.26227 22.488756,-0.0173 0.0014,0.38279 -2.115025,2.04508 -3.509462,2.75647 -0.714676,0.3646 -1.521404,0.93039 -1.79273,1.25732 -0.271325,0.32693 -0.81633,0.72534 -1.211122,0.88537 -0.560805,0.22731 -0.588694,0.29584 -0.127509,0.31331 0.324662,0.0123 1.039037,-0.34683 1.5875,-0.79806 0.548463,-0.45123 1.711581,-1.30537 2.584706,-1.89809 0.873125,-0.59272 1.984375,-1.46399 2.469444,-1.93617 0.48507,-0.47217 1.477257,-1.21848 2.204861,-1.65846 1.913657,-1.15717 1.647916,-1.4557 -1.234722,-1.38708 -2.557639,0.0609 -2.557639,0.0609 -0.264583,0.26459 1.621759,0.14406 2.14153,0.30111 1.775465,0.53645 -1.210686,0.77834 -11.007345,0.34983 -18.003243,-0.78747 -6.923296,-1.1255 -8.185459,-1.24794 -6.879167,-0.66732 1.187827,0.52796 -0.130832,0.93301 -3.065985,0.94176 -1.501736,0.004 -1.688471,0.22514 -2.231697,2.63712 -0.345699,1.53494 -0.516389,1.77648 -1.255375,1.77648 -0.92846,0 -1.093053,-0.88776 -0.596566,-3.21769 0.218092,-1.02348 0.136339,-1.14535 -1.160603,-1.73019 -1.755902,-0.7918 -2.418172,-1.51458 -1.760319,-1.92116 0.3461,-0.2139 0.202866,-0.43217 -0.551851,-0.84093 -1.658516,-0.89828 -0.200624,-0.68382 4.448785,0.65442 4.543817,1.30785 6.432066,1.63126 3.175,0.5438 -1.700804,-0.56785 -1.809655,-0.65665 -0.881944,-0.71942 0.782147,-0.0529 0.488501,-0.19657 -1.12524,-0.55044 -1.200965,-0.26335 -3.66159,-1.05326 -5.468055,-1.75535 -4.270584,-1.65977 -4.871983,-1.79843 -4.871983,-1.12332 0,0.29396 -0.47625,1.43984 -1.058333,2.54639 -1.718706,3.26732 -1.336676,4.39345 2.419956,7.13342 0.706316,0.51516 1.91921,1.52483 2.695322,2.24369 1.270082,1.17641 3.802828,2.73793 4.506049,2.77814 0.149994,0.009 -0.0044,-0.40737 -0.343132,-0.92432 z M 175.56158,94.307215 c 1.06715,-0.182338 3.36903,-0.642301 5.11528,-1.02214 1.74625,-0.379839 4.01583,-0.780558 5.04351,-0.890487 1.02768,-0.109929 2.0172,-0.291767 2.19893,-0.404085 0.18173,-0.112317 1.48403,-0.418061 2.89399,-0.67943 1.40996,-0.261369 3.75419,-0.816716 5.2094,-1.234106 1.45521,-0.417389 4.50237,-1.113082 6.77146,-1.545984 4.60922,-0.879356 4.734,-0.938207 4.18082,-1.971832 -0.48285,-0.902212 -1.40259,-0.93023 -4.66756,-0.142188 -1.87657,0.452935 -2.52108,0.493598 -2.72008,0.171613 -0.20073,-0.32478 -0.82409,-0.30598 -2.70647,0.08163 -1.34512,0.276977 -4.90629,0.926582 -7.91372,1.443567 -3.00744,0.516985 -6.10306,1.181867 -6.87917,1.477515 -0.77611,0.295648 -3.07799,0.681996 -5.11528,0.858551 -4.1612,0.360617 -4.58611,0.624607 -4.58611,2.849305 0,1.521782 0.0589,1.540497 3.175,1.008075 z m -16.93333,-1.83672 c 1.26118,-0.217291 3.50194,-0.376549 4.97947,-0.353906 3.57218,0.05474 4.11909,-0.449514 3.5517,-3.274733 -1.16216,-5.786845 1.99185,-8.296553 9.88022,-7.86188 4.71362,0.259735 6.02036,1.185831 6.68376,4.736834 0.38193,2.044361 0.20141,1.938709 2.25602,1.320363 0.95802,-0.288323 4.60187,-1.073196 8.09743,-1.744162 3.49556,-0.670966 6.69483,-1.316198 7.1095,-1.43385 0.41466,-0.117652 0.86024,-0.04192 0.99016,0.168305 0.16268,0.263216 0.57402,0.207534 1.3212,-0.178847 0.6133,-0.31715 1.56231,-0.491006 2.18297,-0.399913 0.60539,0.08885 1.42825,-0.05524 1.83414,-0.321191 0.40488,-0.265288 2.86635,-0.790239 5.46993,-1.166557 2.60357,-0.376317 6.48002,-1.011123 8.61433,-1.410679 2.13431,-0.399556 5.22993,-0.888836 6.87917,-1.087288 1.64923,-0.198452 3.31611,-0.462944 3.70416,-0.58776 0.38806,-0.124817 1.73732,-0.319106 2.99836,-0.431755 2.29281,-0.204816 2.29281,-0.204816 2.17251,-1.589581 -0.7848,-9.033684 -9.04997,-15.383535 -21.39864,-16.439859 -5.14857,-0.440416 -8.03693,-0.436937 -7.76112,0.0093 0.11992,0.194027 1.21974,0.352777 2.44406,0.352777 5.50835,0 12.93391,2.201691 12.08772,3.584025 -0.46931,0.766661 0.43861,1.710712 3.69312,3.840088 3.18097,2.081259 0.60118,3.146879 -3.23184,1.33496 -2.46368,-1.164614 -9.87436,-1.373993 -11.90812,-0.336448 -2.09308,1.067809 -5.20888,0.443645 -6.10032,-1.22203 -0.54229,-1.013273 -1.17014,-0.943831 -1.33068,0.147176 -0.1714,1.164846 -1.03421,0.91449 -1.31102,-0.38041 -0.49434,-2.312492 -2.02049,-6.797818 -2.39276,-7.032278 -0.72395,-0.455957 -0.99152,0.135434 -0.37133,0.820738 0.47281,0.522448 0.65133,1.459323 0.74958,3.933727 0.12897,3.247952 0.12897,3.247952 -0.5544,2.396609 -0.82324,-1.025594 -1.47539,-0.266103 -1.47539,1.718228 0,1.046606 -0.0314,1.069419 -0.79375,0.577413 -0.43657,-0.281734 -1.52855,-0.498666 -2.42664,-0.482071 -1.12776,0.02084 -2.03856,-0.220546 -2.94425,-0.78029 -1.2134,-0.749922 -1.52623,-0.788712 -4.18794,-0.519289 -12.04898,1.219619 -10.59353,-2.083232 2.48955,-5.649566 2.81671,-0.76781 3.84898,-1.153445 2.74775,-1.026504 -2.96849,0.342183 -7.16871,1.516714 -11.15743,3.120015 -2.09055,0.840314 -3.84998,1.380901 -3.90985,1.201306 -0.58235,-1.747072 -17.20824,13.524916 -22.71882,20.868755 -5.18619,6.911535 -5.14363,6.98972 3.03749,5.58018 z m -6.15955,0.07842 c -0.30103,-0.48708 0.61752,-1.732936 5.21873,-7.078312 7.25757,-8.431361 7.55215,-8.635782 7.90705,-5.487126 0.25672,2.277665 0.58257,1.685164 0.4783,-0.869717 -0.0752,-1.843366 0.0199,-2.206961 0.73242,-2.800136 0.45038,-0.374931 1.39546,-1.166741 2.10017,-1.759579 1.30105,-1.094504 2.0701,-1.363884 2.0701,-0.725108 0,0.548976 1.1102,0.415194 1.80999,-0.21811 1.06805,-0.966572 3.70981,-1.083128 3.9976,-0.176376 0.13045,0.410995 0.531,0.747264 0.89011,0.747264 1.00545,0 1.76897,0.380662 1.76897,0.881944 0,0.576429 0.49376,0.743114 2.46944,0.833631 2.32017,0.106301 2.8878,0.344271 2.64511,1.108916 -0.12829,0.404228 0.0144,0.774587 0.37648,0.977225 0.42502,0.23785 -0.0477,0.390935 -1.74399,0.56472 -3.74949,0.384148 -3.86629,0.653587 -0.56965,1.31418 1.64792,0.330216 2.66363,0.615916 2.25714,0.634888 -0.40649,0.01897 -1.02107,0.346105 -1.36574,0.726962 -0.60106,0.664163 -0.67179,0.667768 -1.73038,0.08819 -1.50968,-0.826551 -10.43283,-0.882279 -12.02577,-0.0751 -1.95373,0.989987 -3.1834,3.588137 -3.22755,6.819457 -0.042,3.077295 -0.61787,4.061279 -2.07815,3.551217 -1.13923,-0.397921 -2.97458,-0.300775 -6.17361,0.326773 -5.08971,0.998437 -5.53987,1.046052 -5.80677,0.614197 z m 50.08549,-9.68464 c -0.094,-0.329973 -0.41975,-4.58456 -1.08336,-14.150615 -0.0938,-1.352285 0.10297,-0.858361 0.84327,2.116666 1.06821,4.292749 0.75133,4.005323 3.86145,3.502528 1.30666,-0.211239 1.92462,0.760381 2.52394,3.968389 0.4306,2.304883 0.97509,2.7341 2.83355,2.233667 0.82332,-0.221695 1.72206,-0.316695 1.9972,-0.211112 0.27515,0.105584 1.38866,-0.140419 2.47447,-0.546672 1.63143,-0.610398 2.02683,-0.654951 2.27734,-0.256611 0.36156,0.574923 0.002,0.68339 -5.6788,1.715394 -2.23132,0.405319 -5.38003,1.025777 -6.99712,1.378796 -2.05678,0.449004 -2.97376,0.523989 -3.05194,0.24957 z m -65.05753,8.485943 c 4.50327,-1.449388 8.25334,-4.181135 17.78937,-12.95872 3.8856,-3.576561 8.20843,-7.524597 9.60628,-8.773412 1.39785,-1.248816 2.47089,-2.341232 2.38453,-2.427591 -0.0864,-0.08636 0.0755,-0.488987 0.35969,-0.894727 0.79813,-1.139477 0.73689,-1.17312 -2.92287,-1.605906 -1.89177,-0.223713 -4.03489,-0.495393 -4.7625,-0.603734 -1.70991,-0.254609 -1.70257,0.01553 0.10517,3.873143 1.59813,3.410328 1.76855,3.506804 3.40053,1.92503 0.63692,-0.617328 1.21827,-1.053891 1.29189,-0.970139 0.0736,0.08375 -1.91465,2.057275 -4.41838,4.385608 -19.67338,18.295176 -19.76322,18.344443 -33.45212,18.344443 -4.55966,0 -7.49653,0.104533 -6.52639,0.232296 3.19267,0.420459 15.36408,0.04684 17.1448,-0.526291 z m 78.76946,-5.196584 c 3.32118,-0.594472 7.38789,-1.402532 9.03713,-1.795689 5.99993,-1.430309 7.98422,-1.816533 10.40694,-2.025616 2.1148,-0.182509 2.51946,-0.327108 2.81768,-1.006865 0.43539,-0.992401 1.4425,-1.026783 1.95628,-0.06679 0.51994,0.971529 1.88905,0.787425 2.04002,-0.274322 0.0846,-0.595065 0.42204,-0.835033 1.41111,-1.003522 2.45975,-0.41902 4.15987,-0.973141 3.46796,-1.130316 -0.97797,-0.22216 -7.74743,0.629354 -8.23801,1.03624 -0.23404,0.194106 -0.59729,0.246762 -0.80723,0.117013 -0.37021,-0.228808 -2.21184,0.123222 -5.79864,1.108421 -2.0473,0.562337 -4.71034,0.638196 -3.55195,0.101179 0.51813,-0.240195 0.37755,-0.269644 -0.52916,-0.110857 -0.6791,0.118925 -1.43367,0.376505 -1.67682,0.572399 -0.24316,0.195894 -1.04117,0.391143 -1.77336,0.433887 -0.7322,0.04274 -1.64876,0.247634 -2.03681,0.455312 -0.64461,0.344985 -3.11429,0.79342 -8.27135,1.501879 -5.76365,0.79179 -7.33874,1.447968 -6.34627,2.643826 0.58962,0.710446 0.96316,0.684122 7.89248,-0.556183 z M 93.361541,82.755425 c 0.924277,-0.225981 3.791749,-2.070753 6.136742,-3.948037 1.698367,-1.359626 2.294817,-1.411309 2.059137,-0.178426 -0.22595,1.181936 0.35023,1.537732 2.50126,1.544573 0.93618,0.003 2.47739,0.340474 3.43393,0.751968 1.71896,0.739478 1.77477,0.740873 5.87848,0.146991 2.27867,-0.329766 4.81893,-0.599575 5.64502,-0.599575 0.87025,0 2.25372,-0.362656 3.28934,-0.862256 1.46019,-0.704419 2.101,-0.820652 3.50071,-0.634974 0.94234,0.125006 3.64022,0.02571 5.9953,-0.220656 4.80578,-0.502736 4.5699,-0.342424 5.68745,-3.865314 0.33896,-1.068499 0.949,-2.81585 1.35566,-3.883003 0.9028,-2.369107 0.83617,-2.574138 -1.01687,-3.129323 -1.58011,-0.473412 -1.72673,-1.282882 -0.63317,-3.495671 0.73911,-1.495557 -0.17238,-1.871273 -4.63708,-1.911408 -4.26816,-0.03837 -4.39632,-0.269036 -0.65842,-1.185056 2.24424,-0.549978 3.46561,-1.214652 2.23198,-1.214652 -0.30249,0 -0.54999,-0.183791 -0.54999,-0.408424 0,-0.487588 15.5992,-0.202453 23.35529,0.426907 2.65894,0.215757 5.11957,0.330701 5.46805,0.255429 0.34849,-0.07527 -2.22389,-0.366132 -5.71639,-0.646357 -8.11792,-0.65135 -28.6053,-0.706144 -29.63333,-0.07925 -0.69004,0.420779 -0.69043,0.430481 -0.0176,0.440972 0.88893,0.01386 0.36862,0.470818 -1.21709,1.068901 -0.67909,0.256136 -1.71097,0.807031 -2.29305,1.224212 -0.58209,0.417181 -2.88396,1.76403 -5.11528,2.992999 -13.44041,7.402724 -23.140497,13.422147 -24.187022,15.009336 -1.162037,1.762379 -7.661718,3.370242 -8.844136,2.187824 -0.433163,-0.433163 11.92685,-8.033385 27.651868,-17.003247 4.70549,-2.684103 8.49947,-4.936153 8.43107,-5.004555 -0.13386,-0.133858 -15.70614,8.739747 -23.512891,13.398427 -14.861681,8.868713 -16.330543,11.692418 -4.588928,8.82165 z m 14.175579,-2.565798 c -0.64519,-0.359222 -2.12416,-0.763516 -3.2866,-0.898431 -1.77215,-0.20568 -2.07524,-0.338985 -1.87642,-0.825308 0.13041,-0.319003 0.47262,-1.252513 0.76047,-2.074466 1.48784,-4.248511 21.69703,-13.145816 29.85919,-13.145816 3.39612,0 4.19276,0.261884 3.22921,1.061556 -1.01649,0.843615 -0.6864,3.399365 0.49211,3.810195 0.96835,0.33757 -1.19855,8.218115 -2.62889,9.560682 -0.64182,0.60244 -6.52221,1.043282 -8.64657,0.648217 -1.82588,-0.339558 -2.15842,-0.299533 -3.55114,0.427421 -1.03374,0.539575 -2.8066,0.957389 -5.41718,1.276683 -7.04255,0.861355 -7.65361,0.872249 -8.93418,0.159267 z m 48.42059,-4.556828 c 0.29676,-0.480173 -0.69517,-1.138354 -1.34169,-0.89026 -0.39122,0.150124 -0.57388,0.02944 -0.57388,-0.37915 0,-0.512214 0.31629,-0.581825 2.17516,-0.478716 1.51638,0.08411 2.21978,-0.0129 2.32246,-0.320318 0.081,-0.242535 -0.11477,-0.440972 -0.43505,-0.440972 -0.40479,0 -0.51957,-0.197787 -0.37645,-0.648705 0.86464,-2.724239 -2.67518,-5.747674 -5.86737,-5.011448 -0.8376,0.193181 -1.64198,0.355119 -1.7875,0.359862 -0.54448,0.01775 -0.23686,-1.840043 0.5234,-3.161037 0.4334,-0.753042 0.65604,-1.498869 0.49476,-1.657392 -0.51068,-0.501951 -2.12224,1.838306 -3.48964,5.067558 -1.69481,4.002477 -1.70794,4.693156 -0.0664,3.492831 0.43923,-0.321168 0.82653,-0.381539 1.08287,-0.168793 0.21949,0.182163 1.85236,0.465305 3.62859,0.629206 4.00837,0.36987 4.53545,0.684983 0.78233,0.467718 -3.08912,-0.178826 -5.08355,0.381081 -2.85001,0.800096 0.86847,0.162926 1.41354,0.54778 1.84802,1.304822 0.43458,0.7572 0.81088,1.02284 1.27648,0.901083 0.36313,-0.09496 0.87625,-0.03579 1.14027,0.13148 0.62331,0.394922 1.27033,0.395834 1.51365,0.0021 z"
       id="path1" /></g></svg>
