<svg baseProfile="tiny" height="150mm" version="1.2" viewBox="0 0 100 100" width="150mm" xmlns="http://www.w3.org/2000/svg" style="-webkit-tap-highlight-color: rgba(0, 0, 0, 0);"><rect x="-10000" y="-10000" width="20000" height="20000" fill="rgb(220,220,220)"/><g id="zoom-group" transform="translate(-72.69306243549372,-77.60449340991572) scale(2.297396709994071)"><g id="drag-group" transform="translate(12.105949401855469, 5.341167449951172)" style="touch-action: none; -webkit-tap-highlight-color: rgba(0, 0, 0, 0);"><g fill="none" stroke="#555555" stroke-linecap="round" stroke-linejoin="round" class="zoomable-line" style="stroke-width: 0.17411;"><path d="M 64.83 18.82 L 64.83 17.20 L 62.41 17.20 L 61.61 17.20 L 61.58 18.15 L 61.59 18.79 L 61.59 18.80 L 58.19 18.84 L 58.12 27.82 L 62.26 27.81 L 63.04 27.80 L 63.33 27.68 L 64.27 27.68 L 64.26 26.12 L 64.27 25.61 L 65.50 25.62 L 65.51 21.45 L 65.40 18.82 L 64.83 18.82"/><path d="M 18.50 42.02 L 18.51 42.36 L 19.17 42.35 L 19.17 42.78 L 20.16 42.78 L 20.15 41.83 L 19.39 41.83 L 19.39 42.02 L 18.50 42.02"/><path d="M 47.98 53.16 L 47.54 53.58 L 47.47 53.53 L 47.41 53.41 L 47.41 53.32 L 47.69 53.03 L 47.79 53.02 L 47.90 53.08 L 47.98 53.16"/><path d="M 51.96 48.73 L 52.30 48.74 L 52.32 48.74 L 52.31 49.35 L 52.27 49.35 L 52.27 49.39 L 52.17 49.39 L 52.17 49.44 L 52.52 49.45 L 52.62 49.45 L 52.61 49.89 L 52.68 49.89 L 52.70 49.28 L 52.70 49.21 L 52.91 49.22 L 52.91 49.13 L 52.88 49.12 L 52.89 48.42 L 53.23 48.43 L 53.21 49.13 L 52.96 49.13 L 52.96 49.22 L 53.05 49.22 L 53.03 49.95 L 52.68 49.94 L 52.68 49.92 L 52.61 49.92 L 52.61 49.99 L 52.92 50.00 L 52.90 50.73 L 52.62 50.73 L 52.62 50.88 L 52.74 50.88 L 52.73 50.89 L 52.84 50.90 L 52.84 50.98 L 52.73 50.98 L 52.73 51.00 L 52.61 50.99 L 52.61 51.03 L 52.82 51.04 L 52.81 51.41 L 52.71 51.41 L 52.70 51.78 L 52.03 51.76 L 52.05 51.04 L 51.68 51.03 L 51.72 49.39 L 51.90 49.39 L 51.91 48.77 L 51.96 48.77 L 51.96 48.73"/><path d="M 29.08 32.35 L 29.08 33.02 L 29.94 33.04 L 29.95 32.39 L 29.08 32.35"/><path d="M 74.63 30.79 L 74.75 30.32 L 74.23 29.29 L 74.07 29.02 L 73.86 28.80 L 73.63 28.63 L 73.23 28.50 L 72.12 28.44 L 66.66 28.43 L 64.95 28.42 L 64.70 28.43 L 64.21 28.50 L 64.62 29.02 L 64.99 29.45 L 65.30 29.84 L 65.67 30.47 L 66.22 31.39 L 68.11 34.57 L 71.70 32.80 L 72.25 32.08 L 72.56 31.74 L 74.56 30.75 L 74.61 30.80 L 74.63 30.79"/><path d="M 63.64 28.85 L 65.04 30.74 L 65.72 32.02 L 66.04 32.53 L 67.35 34.69 L 67.47 34.92 L 65.45 35.79 L 64.96 35.91 L 63.51 35.83 L 63.16 35.38 L 62.09 33.55 L 61.57 32.39 L 60.78 30.54 L 60.78 30.27 L 61.88 29.59 L 62.58 29.28 L 63.64 28.85"/><path d="M 32.60 40.70 L 32.61 40.26 L 33.08 40.27 L 33.08 40.71 L 32.60 40.70"/><path d="M 33.65 37.18 L 33.66 36.81 L 34.49 36.83 L 34.48 37.20 L 33.65 37.18"/><path d="M 35.48 35.07 L 34.70 35.06 L 34.74 32.67 L 34.67 32.67 L 34.67 32.49 L 35.52 32.51 L 35.48 35.07"/><path d="M 40.70 39.25 L 40.67 39.14 L 40.64 38.87 L 40.68 38.66 L 41.99 37.34 L 44.20 35.19 L 45.44 36.46 L 44.38 37.53 L 44.62 37.77 L 42.52 39.80 L 42.31 39.60 L 41.94 39.98 L 42.04 40.08 L 41.81 40.32 L 41.73 40.36 L 41.64 40.38 L 41.57 40.36 L 40.92 39.67 L 40.90 39.55 L 40.86 39.44 L 40.79 39.33 L 40.70 39.25"/><path d="M 36.10 35.19 L 37.66 35.21 L 37.68 34.57 L 39.54 34.61 L 39.54 33.76 L 40.42 33.77 L 40.38 38.82 L 40.03 38.50 L 39.73 38.36 L 39.47 38.38 L 39.31 38.38 L 39.02 38.28 L 38.82 38.49 L 38.66 38.65 L 38.49 38.83 L 38.52 38.90 L 38.25 39.23 L 37.99 39.50 L 37.26 39.50 L 37.29 40.25 L 37.11 40.40 L 37.02 40.54 L 36.03 40.54 L 36.10 35.19"/><path d="M 31.38 31.94 L 32.31 31.95 L 32.36 29.04 L 31.53 29.03 L 31.51 29.87 L 31.45 29.87 L 31.41 29.87 L 31.38 31.94"/><path d="M 47.89 53.05 L 47.89 52.97 L 47.77 52.77 L 47.70 52.65 L 47.42 52.46 L 47.22 52.32 L 47.06 52.25 L 46.87 52.20 L 46.76 52.23 L 46.70 52.29 L 46.67 52.37 L 46.68 52.47 L 46.73 52.57 L 46.85 52.78 L 46.97 52.99 L 47.34 53.50 L 47.44 53.53 L 47.38 53.41 L 47.38 53.31 L 47.68 53.01 L 47.76 53.00 L 47.89 53.05"/><path d="M 45.74 51.76 L 45.89 51.70 L 45.95 51.63 L 45.89 51.54 L 45.66 51.30 L 45.58 51.28 L 45.53 51.33 L 45.62 51.55 L 45.74 51.76"/><path d="M 45.28 50.78 L 45.46 51.17 L 45.49 51.18 L 45.52 51.18 L 45.57 51.17 L 45.63 51.18 L 45.69 51.20 L 46.01 51.55 L 46.04 51.56 L 46.07 51.54 L 46.24 51.33 L 45.35 50.73 L 45.34 50.72 L 45.33 50.72 L 45.31 50.72 L 45.30 50.73 L 45.29 50.74 L 45.28 50.75 L 45.28 50.77 L 45.28 50.78"/><path d="M 40.69 22.90 L 40.62 27.56 L 40.60 27.59 L 40.57 27.61 L 40.54 27.62 L 40.50 27.62 L 40.47 27.61 L 40.44 27.58 L 40.42 27.55 L 40.48 22.90 L 40.49 22.87 L 40.51 22.85 L 40.54 22.83 L 40.57 22.82 L 40.60 22.82 L 40.63 22.83 L 40.66 22.85 L 40.68 22.87 L 40.69 22.90"/><path d="M 74.77 28.39 L 79.24 28.55 L 79.21 30.20 L 79.12 35.86 L 79.12 35.95 L 79.00 35.94 L 78.89 35.92 L 78.78 35.88 L 78.68 35.83 L 78.58 35.77 L 78.49 35.69 L 78.42 35.61 L 78.35 35.51 L 74.70 28.94 L 74.65 28.82 L 74.64 28.70 L 74.65 28.61 L 74.68 28.53 L 74.72 28.45 L 74.77 28.39"/><path d="M 58.05 30.45 L 57.91 32.16 L 57.95 32.22 L 58.01 32.26 L 58.07 32.26 L 58.16 32.22 L 58.88 31.12 L 58.84 31.08 L 59.16 30.68 L 59.14 30.65 L 59.21 30.60 L 59.17 30.51 L 59.06 30.44 L 58.88 30.40 L 58.10 30.41 L 58.05 30.45"/><path d="M 76.24 26.49 L 74.87 27.53 L 74.91 27.63 L 75.11 27.72 L 77.61 27.73 L 77.79 27.17 L 76.24 26.49"/><path d="M 16.56 28.18 L 16.55 28.39 L 16.50 29.26 L 16.49 29.31 L 16.49 29.38 L 16.33 32.21 L 16.38 32.20 L 16.77 31.44 L 16.88 31.27 L 16.95 31.20 L 17.10 31.05 L 17.31 30.82 L 17.71 30.40 L 17.81 30.19 L 17.91 29.93 L 17.95 29.75 L 17.97 29.50 L 17.97 28.57 L 17.31 28.29 L 16.56 28.18"/><path d="M 31.33 42.90 L 31.33 43.31 L 31.59 43.31 L 31.59 43.17 L 31.91 43.17 L 31.91 43.31 L 32.47 43.32 L 32.47 43.17 L 32.81 43.17 L 32.81 43.09 L 32.72 43.09 L 32.72 42.91 L 32.57 42.91 L 32.57 43.10 L 32.26 43.10 L 32.26 42.91 L 31.98 42.90 L 31.98 43.03 L 31.84 43.03 L 31.84 42.90 L 31.63 42.90 L 31.63 43.05 L 31.44 43.05 L 31.44 42.90 L 31.33 42.90"/><path d="M 63.99 42.31 L 64.18 42.32 L 64.37 42.30 L 64.55 42.25 L 64.71 42.16 L 64.86 42.04 L 64.97 41.90 L 65.06 41.73 L 65.12 41.54 L 65.14 41.37 L 65.12 41.17 L 65.07 41.00 L 64.98 40.82 L 64.87 40.69 L 64.72 40.55 L 64.56 40.47 L 64.37 40.41 L 62.16 39.96 L 61.96 39.94 L 61.78 39.96 L 61.58 40.03 L 61.43 40.11 L 61.27 40.24 L 61.16 40.38 L 61.07 40.55 L 61.02 40.73 L 61.00 40.91 L 61.02 41.10 L 61.08 41.28 L 61.17 41.45 L 61.28 41.59 L 61.43 41.71 L 61.59 41.80 L 61.78 41.86 L 63.99 42.31"/><path d="M 65.31 39.97 L 65.59 40.03 L 65.62 39.65 L 65.65 39.29 L 65.71 38.91 L 66.02 37.56 L 66.05 37.30 L 66.07 37.10 L 66.05 36.69 L 65.93 36.64 L 65.41 36.79 L 64.87 36.88 L 64.45 36.90 L 63.84 36.90 L 63.52 36.93 L 63.45 36.99 L 63.49 37.22 L 63.44 37.45 L 63.30 37.64 L 63.10 37.76 L 62.87 37.80 L 62.64 37.75 L 62.45 37.61 L 62.32 37.41 L 62.28 37.18 L 62.22 37.17 L 61.72 38.73 L 61.56 39.22 L 65.31 39.97"/><path d="M 65.40 18.82 L 68.11 18.83 L 68.11 19.78 L 67.71 19.78 L 67.71 20.57 L 68.17 21.12 L 68.37 20.99 L 68.37 22.23 L 68.39 23.01 L 68.41 24.52 L 68.43 25.40 L 69.51 24.45 L 69.80 24.16 L 70.19 24.56 L 70.91 23.97 L 71.54 24.65 L 71.27 24.92 L 70.78 25.32 L 70.78 25.78 L 72.37 25.80 L 73.38 27.64 L 64.27 27.68 L 64.26 26.12 L 64.27 25.61 L 65.50 25.62 L 65.51 21.45 L 65.40 18.82"/><path d="M 22.37 48.08 L 23.22 46.46 L 23.41 46.10 L 26.14 46.99 L 26.10 47.45 L 26.15 47.86 L 26.20 48.68 L 26.00 49.68 L 25.87 49.85 L 25.22 50.06 L 24.29 49.60 L 23.47 48.96 L 22.97 48.51 L 22.37 48.08"/><path d="M 26.12 49.71 L 26.36 48.66 L 26.27 47.50 L 26.32 47.03 L 26.53 47.11 L 28.78 47.92 L 30.55 48.89 L 30.54 50.16 L 26.48 50.09 L 26.37 50.08 L 26.26 50.02 L 26.18 49.94 L 26.13 49.83 L 26.12 49.71"/><path d="M 75.83 34.98 L 74.65 35.43 L 74.08 35.70 L 73.55 35.99 L 73.49 36.38 L 73.50 36.63 L 74.46 37.00 L 74.43 37.22 L 74.82 37.27 L 74.94 37.25 L 75.81 37.33 L 75.82 37.13 L 75.60 36.79 L 75.89 35.97 L 76.11 35.70 L 76.13 35.35 L 75.83 34.98"/><path d="M 55.63 52.73 L 55.68 52.49 L 55.73 52.26 L 55.78 52.02 L 55.83 51.78 L 56.29 51.87 L 56.75 51.97 L 57.22 52.06 L 57.68 52.16 L 58.14 52.25 L 58.61 52.35 L 58.97 52.42 L 58.98 52.60 L 58.82 53.39 L 58.41 53.31 L 57.95 53.21 L 57.48 53.12 L 57.02 53.02 L 56.56 52.93 L 56.09 52.83 L 55.75 52.76 L 55.63 52.73"/><path d="M 56.33 45.67 L 56.20 46.29 L 56.13 46.63 L 56.01 47.24 L 55.97 47.42 L 55.94 47.60 L 56.33 47.68 L 57.10 47.84 L 57.20 47.86 L 57.23 47.67 L 57.24 47.64 L 57.30 47.37 L 57.39 46.89 L 57.47 46.52 L 57.59 45.92 L 57.56 45.92 L 57.17 45.84 L 56.33 45.67"/><path d="M 27.64 49.15 L 27.59 49.17 L 27.57 49.20 L 27.57 49.33 L 27.59 49.35 L 27.62 49.36 L 27.94 49.36 L 28.30 49.18 L 28.27 49.16 L 27.64 49.15"/><path d="M 28.32 49.21 L 28.35 49.24 L 28.34 49.37 L 28.00 49.37 L 28.32 49.21"/><path d="M 26.88 49.42 L 26.88 49.37 L 26.99 49.37 L 27.00 49.23 L 26.94 49.22 L 26.94 49.17 L 26.97 49.15 L 27.02 49.15 L 27.42 49.17 L 27.45 49.18 L 27.47 49.20 L 27.48 49.24 L 27.48 49.44 L 27.47 49.46 L 27.46 49.47 L 27.45 49.48 L 27.43 49.49 L 27.41 49.49 L 26.94 49.49 L 26.92 49.48 L 26.90 49.46 L 26.89 49.44 L 26.88 49.42"/><path d="M 46.50 51.40 L 46.41 51.21 L 47.01 50.92 L 47.15 50.98 L 46.81 51.57 L 46.50 51.40"/><path d="M 79.21 30.20 L 81.68 30.19 L 81.62 29.83 L 81.63 29.29 L 82.88 29.32 L 82.89 30.26 L 85.40 30.28 L 85.40 35.97 L 79.12 35.86 L 79.21 30.20"/><path d="M 43.42 48.88 L 42.30 49.40 L 42.25 49.30 L 43.41 48.75 L 43.45 48.82 L 43.45 48.83 L 43.45 48.85 L 43.44 48.86 L 43.43 48.87 L 43.42 48.88"/><path d="M 43.90 48.66 L 45.17 48.06 L 45.12 47.96 L 45.07 47.99 L 45.07 47.97 L 44.98 48.01 L 43.81 48.56 L 43.80 48.57 L 43.84 48.64 L 43.85 48.65 L 43.86 48.66 L 43.88 48.66 L 43.89 48.66 L 43.90 48.66"/><path d="M 42.85 47.91 L 42.78 47.95 L 42.39 47.11 L 42.53 47.04 L 42.68 46.97 L 43.20 48.12 L 42.98 48.22 L 42.90 48.04 L 42.85 47.91"/><path d="M 43.05 46.79 L 43.06 46.81 L 42.92 46.87 L 43.42 48.01 L 43.66 47.90 L 43.58 47.71 L 43.63 47.69 L 43.21 46.72 L 43.05 46.79"/><path d="M 45.49 48.52 L 45.71 47.96 L 45.59 47.99 L 44.82 48.34 L 45.49 48.52"/><path d="M 49.10 50.39 L 48.25 50.23 L 48.05 50.17 L 48.81 49.84 L 49.10 50.39"/><path d="M 48.94 54.04 L 48.89 54.00 L 48.85 54.04 L 48.54 53.75 L 48.58 53.70 L 48.53 53.66 L 48.58 53.61 L 48.52 53.56 L 48.70 53.37 L 49.11 53.77 L 49.07 53.82 L 49.11 53.86 L 48.94 54.04"/><path d="M 48.27 53.86 L 48.36 53.95 L 48.34 53.97 L 48.44 54.08 L 48.41 54.11 L 48.51 54.22 L 48.47 54.28 L 48.44 54.35 L 48.43 54.43 L 48.44 54.50 L 48.47 54.57 L 48.51 54.64 L 48.21 54.93 L 48.12 54.81 L 48.06 54.67 L 48.03 54.53 L 48.02 54.38 L 48.05 54.24 L 48.10 54.10 L 48.17 53.97 L 48.27 53.86"/><path d="M 31.41 49.12 L 31.67 49.27 L 31.90 49.47 L 32.10 49.70 L 32.26 49.96 L 32.05 50.02 L 31.70 49.98 L 31.57 49.89 L 31.35 49.73 L 31.31 49.57 L 31.31 49.31 L 31.31 49.17 L 31.41 49.12"/><path d="M 24.18 28.91 L 23.41 28.89 L 23.42 28.04 L 24.20 28.06 L 24.18 28.91"/><path d="M 80.58 38.28 L 79.65 38.28 L 79.50 38.49 L 78.68 38.50 L 78.62 38.67 L 78.37 39.18 L 78.30 39.22 L 78.17 39.23 L 77.86 39.21 L 77.61 39.34 L 77.43 39.55 L 77.27 39.81 L 77.59 40.03 L 77.80 40.13 L 78.13 40.17 L 78.49 40.22 L 78.84 40.23 L 79.10 40.19 L 79.37 40.10 L 79.62 39.99 L 79.93 39.79 L 80.12 39.64 L 80.25 39.49 L 80.42 39.21 L 80.54 39.03 L 80.60 38.80 L 80.60 38.58 L 80.58 38.28"/><path d="M 20.56 47.40 L 21.39 47.63 L 21.65 46.97 L 20.54 46.55 L 20.56 47.40"/><path d="M 40.38 46.74 L 40.25 46.69 L 40.12 46.65 L 39.98 46.64 L 39.84 46.64 L 39.71 46.67 L 39.58 46.71 L 39.47 46.79 L 39.37 46.89 L 39.31 47.01 L 39.27 47.14 L 39.26 47.28 L 39.25 47.90 L 39.31 47.90 L 39.31 47.87 L 39.45 47.81 L 39.30 47.48 L 39.87 47.22 L 39.85 47.16 L 40.45 46.88 L 40.38 46.74"/><path d="M 25.25 27.50 L 25.25 26.47 L 25.29 26.47 L 25.95 26.47 L 25.97 26.47 L 25.97 27.50 L 25.25 27.50"/><path d="M 26.08 26.58 L 26.47 26.58 L 26.47 26.83 L 26.47 27.30 L 26.47 27.42 L 26.31 27.42 L 26.31 27.50 L 26.08 27.50 L 26.08 26.58"/><path d="M 84.66 27.26 L 84.51 26.98 L 83.80 27.59 L 84.66 27.26"/><path d="M 83.74 27.69 L 84.71 27.34 L 84.74 27.41 L 83.80 27.75 L 83.70 27.73 L 83.74 27.69"/><path d="M 30.74 41.71 L 30.73 42.43 L 29.81 42.42 L 29.81 42.03 L 29.77 42.03 L 29.77 41.70 L 30.74 41.71"/><path d="M 37.27 41.18 L 37.94 41.18 L 37.93 41.94 L 38.00 41.94 L 38.00 42.28 L 37.92 42.28 L 37.91 42.80 L 38.19 42.80 L 38.19 43.08 L 37.99 43.08 L 37.25 42.56 L 37.27 41.18"/><path d="M 37.20 43.91 L 37.18 45.11 L 37.25 45.23 L 37.76 45.24 L 37.74 45.86 L 38.06 45.99 L 38.08 44.79 L 38.08 44.76 L 37.67 44.76 L 37.68 44.07 L 37.84 44.07 L 37.84 43.77 L 38.23 43.77 L 38.23 43.74 L 38.19 43.74 L 38.19 43.53 L 38.18 43.44 L 37.99 43.44 L 37.19 43.88 L 37.20 43.91"/><path d="M 49.93 51.45 L 50.09 51.45 L 50.09 51.50 L 50.05 51.53 L 50.01 51.52 L 49.93 51.49 L 49.93 51.45"/><path d="M 17.30 30.06 L 17.19 29.81 L 17.29 29.69 L 17.33 29.52 L 17.37 29.21 L 17.34 28.98 L 17.23 28.84 L 17.28 28.68 L 17.53 28.67 L 17.59 28.81 L 17.59 28.94 L 17.77 28.96 L 17.75 29.17 L 17.64 29.22 L 17.71 29.33 L 17.59 29.42 L 17.59 29.65 L 17.62 29.85 L 17.55 30.04 L 17.30 30.06"/><path d="M 16.39 31.85 L 16.41 31.64 L 16.41 31.48 L 16.46 31.20 L 16.56 31.06 L 16.62 30.91 L 16.51 30.85 L 16.46 30.79 L 16.36 30.67 L 16.48 30.48 L 16.54 30.41 L 16.62 30.20 L 16.67 30.27 L 16.63 30.45 L 16.69 30.54 L 16.86 30.75 L 16.99 30.65 L 17.15 30.60 L 17.27 30.51 L 17.35 30.38 L 17.53 30.27 L 17.51 30.47 L 17.45 30.59 L 17.40 30.70 L 17.31 30.82 L 17.10 31.05 L 16.95 31.20 L 16.86 31.15 L 16.84 31.23 L 16.67 31.37 L 16.64 31.46 L 16.57 31.63 L 16.48 31.88 L 16.39 31.85"/><path d="M 16.54 28.04 L 16.52 28.24 L 16.55 28.39 L 16.59 28.48 L 16.56 28.72 L 16.68 28.77 L 16.70 28.83 L 16.64 28.92 L 16.61 29.02 L 16.64 29.08 L 16.58 29.18 L 16.50 29.26 L 16.49 29.31 L 16.49 29.38 L 16.63 29.43 L 16.72 29.41 L 16.75 29.32 L 16.90 29.02 L 16.98 28.84 L 16.97 28.69 L 16.89 28.61 L 16.82 28.41 L 16.88 28.32 L 17.00 28.31 L 17.14 28.30 L 17.26 28.25 L 17.18 28.15 L 16.91 28.13 L 16.65 28.04 L 16.54 28.04"/><path d="M 66.50 34.53 L 66.49 34.48 L 66.50 34.43 L 66.52 34.39 L 66.54 34.37 L 66.58 34.33 L 66.64 34.33 L 66.73 34.32 L 66.81 34.33 L 66.87 34.36 L 66.94 34.43 L 66.97 34.49 L 66.98 34.55 L 66.95 34.61 L 66.91 34.65 L 66.90 34.69 L 66.92 34.74 L 66.93 34.79 L 66.93 34.82 L 66.91 34.86 L 66.87 34.90 L 66.82 34.95 L 66.77 34.97 L 66.72 34.98 L 66.63 34.95 L 66.57 34.89 L 66.52 34.83 L 66.51 34.76 L 66.51 34.69 L 66.53 34.63 L 66.52 34.59 L 66.50 34.53"/><path d="M 85.40 30.28 L 85.40 29.29 L 89.85 29.30 L 90.07 29.30 L 92.62 29.30 L 92.61 35.97 L 85.40 35.97 L 85.40 30.28"/><path d="M 45.30 39.53 L 45.38 39.53 L 45.90 39.01 L 45.89 39.00 L 45.06 38.96 L 44.90 39.12 L 45.30 39.53"/><path d="M 45.97 38.94 L 46.07 38.84 L 46.14 38.17 L 46.01 38.03 L 45.14 38.89 L 45.15 38.90 L 45.97 38.94"/><path d="M 46.19 38.27 L 46.21 38.24 L 46.45 38.48 L 46.16 38.75 L 46.14 38.74 L 46.19 38.27"/><path d="M 46.49 38.43 L 46.75 38.18 L 46.71 38.13 L 46.21 38.03 L 46.20 38.13 L 46.49 38.43"/><path d="M 46.22 37.97 L 46.69 38.07 L 46.73 38.03 L 46.68 37.95 L 46.63 37.87 L 46.59 37.81 L 46.56 37.76 L 46.51 37.66 L 46.45 37.56 L 46.40 37.48 L 46.35 37.41 L 46.29 37.34 L 46.27 37.36 L 46.22 37.97"/><path d="M 45.46 39.69 L 45.46 39.62 L 46.04 39.05 L 46.06 39.07 L 45.98 39.99 L 45.90 40.08 L 45.85 40.07 L 45.46 39.69"/><path d="M 46.12 39.06 L 46.15 39.03 L 46.91 39.03 L 46.93 39.07 L 46.07 39.91 L 46.05 39.90 L 46.12 39.06"/><path d="M 46.15 38.94 L 46.18 38.97 L 46.89 38.98 L 46.91 38.96 L 46.53 38.57 L 46.15 38.94"/><path d="M 44.64 40.43 L 45.26 39.82 L 45.33 39.82 L 45.71 40.22 L 45.71 40.27 L 45.64 40.35 L 44.64 40.51 L 44.64 40.43"/><path d="M 44.24 41.42 L 44.55 41.42 L 44.57 41.40 L 44.57 41.35 L 44.21 40.98 L 44.15 40.99 L 44.24 41.42"/><path d="M 43.82 41.27 L 43.82 41.24 L 44.05 41.01 L 44.09 41.00 L 44.19 41.42 L 43.95 41.41 L 43.82 41.27"/><path d="M 44.55 40.63 L 44.60 40.58 L 45.50 40.44 L 45.52 40.46 L 44.75 41.23 L 44.67 41.24 L 44.55 40.63"/><path d="M 44.19 40.87 L 44.57 41.25 L 44.61 41.25 L 44.49 40.65 L 44.42 40.64 L 44.19 40.87"/><path d="M 43.71 40.39 L 43.72 40.37 L 44.33 40.49 L 44.34 40.55 L 44.10 40.78 L 43.71 40.39"/><path d="M 44.47 40.33 L 44.55 40.34 L 45.17 39.73 L 45.17 39.67 L 44.76 39.25 L 44.66 39.35 L 44.61 39.45 L 44.47 40.33"/><path d="M 44.35 40.41 L 44.41 40.36 L 44.55 39.48 L 44.53 39.46 L 43.72 40.27 L 43.75 40.30 L 44.35 40.41"/><path d="M 43.69 41.14 L 43.51 40.96 L 43.54 40.80 L 43.55 40.79 L 43.97 40.87 L 43.96 40.92 L 43.73 41.14 L 43.69 41.14"/><path d="M 43.34 40.68 L 43.35 40.62 L 43.54 40.44 L 43.56 40.44 L 43.51 40.71 L 43.34 40.68"/><path d="M 43.35 40.78 L 43.35 40.75 L 43.49 40.78 L 43.48 40.82 L 43.43 40.88 L 43.35 40.78"/><path d="M 43.56 40.72 L 43.98 40.80 L 43.99 40.76 L 43.67 40.43 L 43.62 40.44 L 43.56 40.72"/><path d="M 44.86 39.08 L 44.77 38.98 L 44.79 38.95 L 44.93 38.96 L 44.96 38.99 L 44.86 39.08"/><path d="M 44.73 39.22 L 44.63 39.12 L 44.60 39.14 L 44.61 39.28 L 44.63 39.31 L 44.73 39.22"/><path d="M 44.35 39.13 L 44.50 38.98 L 44.52 39.00 L 44.52 39.12 L 44.49 39.12 L 44.50 39.21 L 44.53 39.20 L 44.53 39.28 L 44.51 39.30 L 44.35 39.13"/><path d="M 44.79 38.70 L 44.64 38.84 L 44.66 38.86 L 44.78 38.87 L 44.78 38.84 L 44.86 38.85 L 44.86 38.88 L 44.94 38.88 L 44.95 38.87 L 44.79 38.70"/><path d="M 46.58 38.52 L 46.84 38.26 L 46.88 38.29 L 46.98 38.90 L 46.96 38.91 L 46.58 38.52"/><path d="M 46.95 38.32 L 46.98 38.29 L 47.01 38.31 L 47.09 38.36 L 47.33 38.60 L 47.33 38.68 L 47.10 38.91 L 47.03 38.84 L 46.95 38.32"/><path d="M 44.83 38.66 L 45.03 38.86 L 45.07 38.86 L 45.96 38.00 L 45.96 37.98 L 45.81 37.83 L 45.75 37.89 L 45.68 37.82 L 44.83 38.66"/><path d="M 45.86 37.79 L 45.92 37.73 L 45.84 37.66 L 46.07 37.43 L 46.02 37.39 L 46.12 37.28 L 46.17 37.33 L 46.19 37.36 L 46.20 37.44 L 46.16 37.80 L 46.02 37.93 L 46.01 37.93 L 45.86 37.79"/><path d="M 46.08 37.95 L 46.17 37.87 L 46.16 37.96 L 46.08 37.95"/><path d="M 44.31 39.18 L 44.51 39.37 L 44.51 39.43 L 43.66 40.26 L 43.59 40.26 L 43.49 40.15 L 43.56 40.08 L 43.48 40.00 L 44.31 39.18"/><path d="M 43.25 40.65 L 43.54 40.37 L 43.54 40.31 L 43.43 40.19 L 43.35 40.26 L 43.28 40.18 L 43.06 40.40 L 43.00 40.34 L 42.87 40.47 L 42.97 40.58 L 43.25 40.65"/><path d="M 44.27 41.50 L 44.55 41.51 L 44.57 41.53 L 44.35 41.74 L 44.32 41.74 L 44.27 41.50"/><path d="M 44.03 41.50 L 44.21 41.50 L 44.27 41.73 L 44.03 41.50"/><path d="M 42.94 40.70 L 42.96 40.68 L 43.14 40.71 L 43.17 40.74 L 43.07 40.84 L 42.94 40.70"/><path d="M 44.91 41.59 L 44.78 41.46 L 44.75 41.31 L 45.68 40.39 L 45.80 40.37 L 46.11 40.70 L 46.04 40.77 L 45.86 40.58 L 45.63 40.80 L 45.68 40.85 L 44.91 41.59"/><path d="M 46.29 40.50 L 46.01 40.21 L 46.00 40.08 L 47.04 39.04 L 47.60 38.95 L 47.71 39.00 L 48.05 39.34 L 47.95 39.44 L 47.56 39.03 L 46.49 40.08 L 46.41 39.99 L 46.19 40.21 L 46.38 40.41 L 46.29 40.50"/><path d="M 47.61 38.89 L 47.44 38.71 L 47.36 38.71 L 47.11 38.95 L 47.12 38.97 L 47.61 38.89"/><path d="M 24.01 45.05 L 23.94 45.06 L 23.85 45.08 L 23.82 45.05 L 23.76 45.00 L 23.74 44.98 L 23.82 44.88 L 23.90 44.77 L 24.02 44.63 L 24.07 44.55 L 24.14 44.43 L 24.19 44.32 L 24.26 44.20 L 24.31 44.13 L 24.36 44.07 L 24.42 44.01 L 24.49 43.96 L 24.55 43.93 L 24.63 43.91 L 24.68 43.91 L 24.72 43.92 L 24.80 43.93 L 24.88 43.96 L 24.96 43.99 L 25.00 44.03 L 25.03 44.06 L 25.10 44.15 L 25.14 44.26 L 25.16 44.36 L 25.17 44.46 L 25.18 44.56 L 25.18 44.67 L 25.17 44.86 L 25.16 44.92 L 25.14 44.97 L 25.10 45.03 L 25.06 44.98 L 25.01 45.01 L 24.98 45.03 L 24.93 45.03 L 24.10 45.02 L 24.03 45.01 L 24.01 45.05"/><path d="M 18.09 39.40 L 18.08 39.39 L 18.07 39.39 L 18.06 39.40 L 18.05 39.41 L 18.04 39.59 L 18.05 39.60 L 18.07 39.61 L 18.08 39.61 L 18.10 39.61 L 18.11 39.60 L 18.13 39.58 L 18.13 39.57 L 18.13 39.53 L 18.12 39.49 L 18.11 39.45 L 18.10 39.42 L 18.09 39.40"/><path d="M 18.04 40.22 L 18.12 40.22 L 18.13 39.86 L 18.09 39.85 L 18.05 39.85 L 18.04 40.22"/><path d="M 18.04 41.38 L 18.12 41.38 L 18.12 40.34 L 18.04 40.34 L 18.04 41.38"/><path d="M 18.04 42.33 L 18.12 42.33 L 18.12 43.37 L 18.08 43.39 L 18.03 43.39 L 18.04 42.33"/><path d="M 17.25 43.48 L 17.26 43.52 L 17.28 43.53 L 17.97 43.53 L 17.99 43.53 L 18.00 43.52 L 18.00 43.50 L 18.00 43.49 L 17.99 43.48 L 17.25 43.48"/><path d="M 16.27 42.59 L 16.30 42.59 L 16.30 42.24 L 16.27 42.27 L 16.27 42.59"/><path d="M 16.31 43.02 L 16.30 43.41 L 16.29 43.41 L 16.26 43.40 L 16.27 43.02 L 16.31 43.02"/><path d="M 17.09 43.53 L 17.11 43.50 L 17.11 43.48 L 16.35 43.48 L 16.32 43.50 L 16.33 43.51 L 16.35 43.52 L 16.37 43.53 L 16.39 43.53 L 17.08 43.53 L 17.09 43.53"/><path d="M 26.47 27.50 L 26.31 27.50 L 26.31 27.42 L 26.47 27.42 L 26.47 27.50"/><path d="M 20.61 31.06 L 21.31 31.06 L 21.31 31.35 L 20.60 31.34 L 20.61 31.06"/><path d="M 38.16 32.21 L 38.68 32.22 L 38.68 32.41 L 38.16 32.40 L 38.16 32.21"/><path d="M 37.57 32.20 L 38.10 32.21 L 38.09 32.40 L 37.57 32.39 L 37.57 32.20"/><path d="M 36.98 32.19 L 37.51 32.20 L 37.50 32.39 L 36.98 32.38 L 36.98 32.19"/><path d="M 36.55 32.18 L 36.92 32.19 L 36.92 32.38 L 36.54 32.37 L 36.55 32.18"/><path d="M 38.28 29.50 L 38.28 29.55 L 38.27 29.55 L 38.20 29.55 L 38.13 29.55 L 38.07 29.55 L 38.00 29.54 L 37.93 29.54 L 37.91 29.54 L 37.91 29.45 L 37.98 29.46 L 38.05 29.46 L 38.12 29.46 L 38.19 29.46 L 38.26 29.46 L 38.28 29.46 L 38.28 29.50"/><path d="M 37.36 29.41 L 37.17 29.41 L 37.18 29.08 L 37.26 29.13 L 37.32 29.22 L 37.35 29.31 L 37.36 29.41"/><path d="M 37.22 28.99 L 37.63 29.01 L 37.63 29.41 L 37.44 29.41 L 37.43 29.33 L 37.42 29.24 L 37.39 29.16 L 37.34 29.09 L 37.29 29.04 L 37.22 28.99"/><path d="M 54.33 48.88 L 54.35 48.83 L 54.38 48.79 L 54.41 48.76 L 54.45 48.74 L 54.54 48.23 L 54.43 48.52 L 54.38 48.68 L 54.35 48.78 L 54.33 48.88"/><path d="M 57.63 43.78 L 57.75 43.57 L 57.82 43.59 L 57.84 43.60 L 57.86 43.61 L 57.88 43.63 L 57.88 43.65 L 57.88 43.68 L 57.87 43.74 L 57.85 43.73 L 57.82 43.72 L 57.78 43.72 L 57.75 43.73 L 57.72 43.73 L 57.70 43.75 L 57.67 43.76 L 57.65 43.77 L 57.63 43.78"/><path d="M 55.90 44.15 L 55.92 44.15 L 55.96 44.14 L 56.01 44.15 L 56.05 44.15 L 56.08 44.16 L 56.11 44.18 L 56.15 44.44 L 56.14 44.46 L 56.13 44.48 L 56.11 44.47 L 56.09 44.46 L 56.02 44.36 L 55.97 44.28 L 55.93 44.22 L 55.90 44.15"/><path d="M 54.96 48.66 L 55.44 46.47 L 55.44 46.42 L 55.44 46.40 L 55.41 46.38 L 55.39 46.37 L 55.38 46.38 L 55.15 46.56 L 55.13 46.59 L 54.80 48.28 L 54.78 48.38 L 54.78 48.50 L 54.80 48.58 L 54.85 48.66 L 54.89 48.70 L 54.92 48.71 L 54.94 48.69 L 54.96 48.66"/><path d="M 59.24 49.36 L 59.09 49.32 L 59.13 49.13 L 59.24 49.15 L 59.23 49.23 L 59.27 49.24 L 59.24 49.36"/><path d="M 59.73 47.39 L 59.88 47.42 L 59.50 49.35 L 59.44 49.39 L 59.30 49.36 L 59.31 49.31 L 59.42 49.33 L 59.43 49.27 L 59.32 49.24 L 59.34 49.17 L 59.37 49.18 L 59.73 47.39"/><path d="M 60.11 45.52 L 60.24 45.47 L 60.25 45.49 L 60.25 45.52 L 60.25 45.56 L 60.25 45.61 L 60.24 45.66 L 59.90 47.34 L 59.90 47.35 L 59.89 47.35 L 59.74 47.32 L 60.11 45.52"/><path d="M 57.80 45.06 L 57.82 44.93 L 57.93 44.95 L 57.96 44.93 L 57.97 44.87 L 58.00 44.86 L 59.96 45.26 L 60.04 45.28 L 60.11 45.31 L 60.17 45.36 L 60.21 45.41 L 60.00 45.50 L 57.80 45.06"/><path d="M 57.74 44.82 L 57.76 44.85 L 57.76 44.91 L 57.74 45.05 L 57.56 45.92 L 56.33 45.67 L 56.34 45.65 L 56.35 45.62 L 56.37 45.59 L 56.42 45.54 L 56.46 45.52 L 56.53 45.46 L 56.61 45.39 L 56.69 45.28 L 56.74 45.20 L 56.82 45.06 L 56.88 44.96 L 56.92 44.90 L 57.74 44.82"/><path d="M 55.27 47.89 L 55.62 46.30 L 55.77 45.77 L 55.90 45.39 L 55.99 45.27 L 56.10 45.16 L 56.20 45.09 L 56.31 45.03 L 56.47 44.98 L 56.61 44.95 L 56.79 44.92 L 56.78 44.98 L 56.72 45.12 L 56.65 45.25 L 56.56 45.37 L 56.47 45.46 L 56.38 45.52 L 56.31 45.62 L 56.26 45.81 L 55.89 47.59 L 55.88 47.64 L 55.86 47.69 L 55.80 47.79 L 55.76 47.84 L 55.66 47.93 L 55.65 47.89 L 55.64 47.87 L 55.63 47.86 L 55.55 47.87 L 55.48 47.90 L 55.45 47.91 L 55.42 47.91 L 55.27 47.89"/><path d="M 55.72 47.95 L 55.78 47.90 L 55.84 47.83 L 55.89 47.76 L 55.92 47.70 L 55.93 47.67 L 55.94 47.60 L 56.33 47.68 L 56.25 48.11 L 56.17 48.09 L 55.89 48.02 L 55.75 47.98 L 55.72 47.95"/><path d="M 15.36 45.96 L 15.38 45.55 L 15.99 45.37 L 15.99 45.96 L 15.95 46.72 L 15.95 46.81 L 15.83 47.38 L 15.38 47.38 L 15.36 45.96"/><path d="M 48.52 60.37 L 48.39 60.44 L 48.24 60.51 L 48.10 60.59 L 48.01 60.65 L 47.91 60.74 L 47.79 60.85 L 47.69 60.97 L 47.74 61.00 L 47.78 61.03 L 47.84 60.95 L 47.94 60.86 L 48.01 60.79 L 48.11 60.70 L 48.19 60.65 L 48.27 60.60 L 48.34 60.56 L 48.47 60.51 L 48.57 60.48 L 48.55 60.42 L 48.52 60.37"/><path d="M 48.62 60.58 L 48.67 60.55 L 48.73 60.52 L 49.27 61.67 L 49.97 61.34 L 49.43 60.20 L 49.49 60.17 L 49.55 60.15 L 50.16 61.46 L 49.91 61.58 L 49.73 61.66 L 49.50 61.77 L 49.48 61.78 L 49.23 61.90 L 48.62 60.58"/><path d="M 31.98 26.29 L 32.40 26.30 L 32.38 27.57 L 31.86 27.56 L 31.75 27.54 L 31.66 27.48 L 31.59 27.39 L 31.56 27.39 L 31.57 26.28 L 31.98 26.29"/><path d="M 21.67 33.67 L 21.72 33.67 L 21.77 33.68 L 21.78 33.69 L 21.82 33.71 L 21.86 33.74 L 21.91 33.77 L 21.94 33.79 L 21.95 33.82 L 21.98 33.86 L 22.03 33.88 L 22.06 33.91 L 22.07 33.94 L 22.08 33.97 L 22.07 33.99 L 22.05 34.02 L 22.02 34.06 L 21.97 34.10 L 21.93 34.12 L 21.85 34.13 L 21.80 34.14 L 21.73 34.13 L 21.67 34.09 L 21.61 34.05 L 21.56 34.00 L 21.53 33.94 L 21.52 33.87 L 21.53 33.82 L 21.55 33.76 L 21.58 33.71 L 21.62 33.69 L 21.67 33.67"/><path d="M 24.48 41.03 L 25.25 41.02 L 25.10 41.24 L 25.03 41.34 L 24.91 41.51 L 24.77 41.75 L 24.63 42.05 L 24.51 42.32 L 24.46 42.42 L 24.48 41.03"/><path d="M 33.80 56.42 L 33.81 56.40 L 33.79 56.39 L 34.11 55.76 L 34.20 55.62 L 34.27 55.51 L 34.36 55.45 L 34.44 55.42 L 34.49 55.42 L 34.57 55.44 L 34.66 55.50 L 34.71 55.55 L 34.73 55.61 L 34.76 55.68 L 34.79 55.74 L 34.80 55.75 L 34.78 55.80 L 34.75 55.86 L 34.69 55.95 L 34.61 56.06 L 34.47 56.24 L 34.39 56.35 L 34.33 56.39 L 34.26 56.43 L 34.16 56.47 L 34.07 56.48 L 33.98 56.48 L 33.90 56.46 L 33.80 56.42"/><path d="M 33.37 56.92 L 33.45 56.87 L 33.51 56.82 L 33.54 56.73 L 33.45 56.65 L 33.52 56.49 L 33.58 56.41 L 33.65 56.43 L 33.75 56.46 L 33.86 56.50 L 33.97 56.53 L 34.05 56.53 L 34.14 56.53 L 34.23 56.51 L 34.27 56.49 L 34.27 56.52 L 33.83 57.07 L 33.79 57.04 L 33.70 57.15 L 33.61 57.11 L 33.48 57.02 L 33.37 56.92"/><path d="M 34.49 56.35 L 34.59 56.21 L 34.68 56.09 L 34.78 55.99 L 34.90 55.90 L 34.94 55.92 L 35.03 55.88 L 35.20 55.88 L 35.35 55.91 L 35.53 56.03 L 35.55 56.09 L 35.55 56.22 L 35.52 56.43 L 35.57 56.59 L 35.54 56.70 L 35.45 56.80 L 35.27 56.67 L 35.16 56.69 L 35.10 56.77 L 34.49 56.35"/><path d="M 33.30 57.00 L 33.64 57.26 L 33.50 57.48 L 33.44 57.41 L 33.37 57.29 L 33.32 57.21 L 33.30 57.00"/><path d="M 25.99 53.45 L 26.06 53.38 L 26.23 53.56 L 26.65 53.79 L 26.60 53.88 L 26.81 54.05 L 26.93 54.12 L 26.88 54.20 L 26.99 54.28 L 27.07 54.34 L 26.98 54.52 L 26.84 54.42 L 26.69 54.30 L 26.54 54.16 L 26.42 54.03 L 26.31 53.91 L 26.18 53.75 L 26.06 53.57 L 25.99 53.45"/><path d="M 27.04 54.56 L 27.13 54.38 L 27.23 54.43 L 27.34 54.48 L 27.44 54.52 L 27.57 54.55 L 27.67 54.36 L 28.90 55.04 L 28.79 55.05 L 28.60 55.05 L 28.45 55.04 L 28.25 55.01 L 28.13 54.99 L 28.00 54.97 L 27.85 54.93 L 27.72 54.89 L 27.54 54.82 L 27.38 54.75 L 27.20 54.65 L 27.04 54.56"/><path d="M 26.97 54.71 L 26.97 54.70 L 26.96 54.69 L 27.00 54.62 L 27.11 54.68 L 27.24 54.76 L 27.39 54.83 L 27.52 54.88 L 27.70 54.95 L 27.70 54.97 L 27.74 54.98 L 27.87 55.27 L 27.85 55.28 L 27.86 55.29 L 27.78 55.33 L 27.68 55.11 L 26.97 54.71"/><path d="M 26.90 54.80 L 26.95 54.72 L 27.66 55.12 L 27.90 55.64 L 27.79 55.68 L 27.56 55.16 L 26.90 54.80"/><path d="M 26.86 54.90 L 26.87 54.87 L 26.87 54.87 L 26.89 54.81 L 27.55 55.18 L 27.78 55.70 L 27.69 55.73 L 27.47 55.24 L 26.86 54.90"/><path d="M 27.82 54.98 L 27.94 55.26 L 28.03 55.24 L 28.12 55.24 L 28.24 55.24 L 28.43 55.28 L 28.57 55.30 L 28.77 55.35 L 28.89 55.36 L 29.04 55.35 L 29.19 55.32 L 29.31 55.28 L 29.01 55.10 L 28.96 55.11 L 28.96 55.14 L 28.91 55.14 L 28.91 55.11 L 28.76 55.12 L 28.61 55.11 L 28.45 55.11 L 28.34 55.09 L 28.22 55.08 L 28.05 55.05 L 27.91 55.01 L 27.82 54.98"/><path d="M 29.89 56.22 L 29.86 56.19 L 29.83 56.15 L 29.83 56.11 L 29.87 56.06 L 29.94 56.01 L 30.03 55.98 L 30.09 55.97 L 30.15 55.98 L 30.26 56.03 L 30.33 56.07 L 30.38 56.12 L 30.39 56.18 L 30.39 56.24 L 30.36 56.29 L 30.29 56.31 L 30.23 56.30 L 30.18 56.27 L 30.13 56.25 L 30.03 56.24 L 29.96 56.23 L 29.89 56.22"/><path d="M 61.18 43.30 L 61.19 43.21 L 61.34 43.23 L 61.31 43.16 L 61.21 43.15 L 61.23 43.03 L 61.29 42.95 L 61.40 42.90 L 61.65 42.95 L 61.77 42.88 L 61.87 42.90 L 61.92 42.95 L 61.87 43.07 L 61.77 43.29 L 61.71 43.48 L 61.55 44.17 L 61.44 44.65 L 61.35 45.00 L 61.33 45.12 L 61.33 45.19 L 61.34 45.22 L 61.29 45.23 L 61.18 45.20 L 61.14 45.16 L 61.12 45.09 L 61.05 44.96 L 60.99 44.99 L 60.93 44.80 L 60.93 44.72 L 61.01 44.45 L 61.07 44.14 L 61.11 43.71 L 61.18 43.30"/><path d="M 62.14 42.82 L 62.16 42.68 L 62.40 42.73 L 62.93 42.83 L 63.82 43.01 L 64.16 43.07 L 64.31 43.10 L 64.43 43.17 L 64.47 43.20 L 64.49 43.25 L 64.14 43.20 L 63.79 43.14 L 63.45 43.08 L 62.99 42.98 L 62.25 42.84 L 62.14 42.82"/><path d="M 61.26 42.67 L 61.28 42.59 L 61.31 42.59 L 61.70 42.74 L 61.68 42.75 L 61.66 42.75 L 61.26 42.67"/><path d="M 61.36 39.72 L 61.36 39.68 L 61.46 39.53 L 61.52 39.45 L 61.60 39.25 L 63.26 39.59 L 63.22 39.80 L 63.19 39.82 L 62.20 39.62 L 62.04 39.61 L 61.92 39.61 L 61.77 39.64 L 61.45 39.73 L 61.36 39.72"/><path d="M 63.34 39.60 L 65.09 39.95 L 65.03 40.18 L 63.30 39.84 L 63.29 39.82 L 63.34 39.60"/><path d="M 76.24 34.90 L 76.68 34.67 L 77.01 35.23 L 76.57 35.46 L 76.24 34.90"/><path d="M 73.60 35.57 L 73.67 35.64 L 73.49 35.75 L 73.62 35.76 L 73.99 35.59 L 74.82 35.14 L 74.88 35.23 L 74.66 35.41 L 74.97 35.33 L 75.00 35.39 L 75.14 35.31 L 75.26 35.21 L 75.38 35.19 L 75.66 35.25 L 75.75 35.14 L 75.84 35.12 L 76.05 35.20 L 76.25 35.41 L 76.49 35.54 L 76.57 35.48 L 76.21 34.89 L 76.69 34.65 L 77.01 35.18 L 76.99 35.05 L 76.92 34.89 L 76.85 34.78 L 76.86 34.72 L 77.00 34.82 L 77.01 34.99 L 77.18 35.09 L 77.20 35.25 L 77.09 35.35 L 76.78 35.53 L 76.64 35.70 L 76.57 36.00 L 76.61 36.22 L 76.61 36.61 L 76.53 36.66 L 76.70 36.76 L 76.88 36.83 L 76.98 36.75 L 76.99 36.70 L 76.90 36.56 L 76.82 36.26 L 76.79 36.08 L 76.85 35.87 L 76.93 35.70 L 77.04 35.54 L 77.12 35.54 L 77.10 35.70 L 77.35 35.49 L 77.27 35.33 L 77.27 35.31 L 77.31 34.98 L 77.36 34.89 L 76.11 32.63 L 76.01 32.95 L 76.05 33.06 L 75.86 33.40 L 75.67 33.41 L 75.62 33.75 L 75.15 33.75 L 75.13 34.03 L 74.72 34.18 L 74.68 34.35 L 74.38 34.47 L 73.06 35.13 L 73.10 35.23 L 74.64 34.56 L 74.80 34.96 L 73.60 35.57"/><path d="M 72.50 36.76 L 72.56 36.91 L 72.66 37.70 L 73.00 39.36 L 73.03 39.74 L 72.90 40.22 L 72.59 40.75 L 72.08 41.50 L 70.50 42.81 L 70.64 42.61 L 70.53 42.24 L 70.34 41.98 L 70.49 41.69 L 70.74 40.71 L 70.91 40.32 L 70.75 39.76 L 70.55 39.60 L 70.19 39.65 L 69.79 39.65 L 69.51 39.51 L 69.72 39.46 L 69.99 39.47 L 70.14 39.20 L 70.15 38.76 L 70.03 38.48 L 69.62 38.36 L 69.37 38.40 L 69.20 38.35 L 68.97 38.04 L 69.02 37.76 L 69.31 37.79 L 69.74 38.02 L 70.08 38.26 L 70.43 38.45 L 70.75 38.90 L 71.19 39.27 L 71.41 39.55 L 71.60 39.75 L 71.85 39.63 L 72.00 39.47 L 72.09 39.25 L 72.41 38.68 L 72.46 38.35 L 72.55 37.78 L 72.56 37.51 L 72.52 37.25 L 72.50 36.76"/><path d="M 72.28 41.40 L 72.49 41.26 L 72.81 41.16 L 73.18 41.07 L 73.60 40.94 L 74.31 40.74 L 74.21 40.41 L 74.05 40.21 L 73.81 40.10 L 73.14 39.75 L 73.11 39.94 L 72.98 40.38 L 72.74 40.76 L 72.28 41.40"/><path d="M 72.68 37.05 L 72.68 36.83 L 73.26 36.77 L 73.19 35.95 L 73.28 35.94 L 73.32 36.54 L 73.41 36.56 L 73.54 36.88 L 73.64 36.98 L 73.64 37.37 L 74.21 37.36 L 74.22 37.24 L 74.50 37.25 L 74.49 37.38 L 75.76 37.48 L 75.84 37.38 L 75.85 37.06 L 75.74 36.74 L 75.78 36.52 L 75.90 36.54 L 76.06 37.21 L 76.21 37.46 L 76.51 37.39 L 76.56 37.10 L 76.53 36.74 L 76.85 36.93 L 76.83 37.05 L 76.75 37.46 L 76.69 37.67 L 76.46 38.19 L 76.30 38.39 L 76.01 38.76 L 75.75 38.59 L 75.68 38.65 L 75.97 38.79 L 75.38 39.59 L 75.18 39.88 L 75.34 39.58 L 75.38 39.37 L 75.31 38.92 L 75.20 38.74 L 75.03 38.68 L 74.82 38.80 L 74.66 38.91 L 74.38 38.78 L 74.08 38.78 L 73.98 38.88 L 73.96 39.03 L 74.03 39.26 L 74.19 39.58 L 74.19 39.85 L 74.37 40.10 L 74.50 40.23 L 74.79 40.35 L 74.60 40.55 L 74.44 40.67 L 74.39 40.65 L 74.36 40.51 L 74.24 40.28 L 74.09 40.11 L 73.81 39.97 L 73.51 39.86 L 73.37 39.78 L 73.24 39.60 L 73.17 39.44 L 73.02 38.94 L 72.75 37.63 L 72.68 37.05"/><path d="M 37.48 46.79 L 37.46 46.79 L 37.43 46.79 L 37.43 46.77 L 37.44 46.49 L 37.46 46.50 L 37.49 46.50 L 37.48 46.79"/><path d="M 37.46 46.39 L 37.48 46.39 L 37.48 46.38 L 37.52 46.29 L 37.52 46.28 L 37.52 46.27 L 37.50 46.24 L 37.55 46.26 L 37.60 46.28 L 37.59 46.29 L 37.58 46.29 L 37.56 46.30 L 37.53 46.40 L 37.53 46.40 L 37.53 46.41 L 37.50 46.40 L 37.46 46.39"/><path d="M 37.53 46.41 L 37.54 46.41 L 37.61 46.43 L 37.77 46.47 L 37.87 46.50 L 37.97 46.51 L 38.06 46.53 L 38.16 46.55 L 38.25 46.56 L 38.36 46.57 L 38.52 46.59 L 38.65 46.59 L 38.73 46.60 L 38.73 46.64 L 38.73 46.70 L 38.67 46.69 L 38.62 46.69 L 38.54 46.68 L 38.45 46.68 L 38.36 46.67 L 38.27 46.66 L 38.20 46.65 L 38.12 46.64 L 38.07 46.63 L 38.04 46.63 L 37.94 46.61 L 37.84 46.59 L 37.75 46.57 L 37.66 46.55 L 37.59 46.53 L 37.53 46.52 L 37.49 46.50 L 37.46 46.50 L 37.44 46.49 L 37.33 46.46 L 37.24 46.42 L 37.18 46.40 L 37.09 46.37 L 37.06 46.36 L 36.99 46.33 L 36.95 46.31 L 36.89 46.29 L 36.83 46.26 L 36.79 46.24 L 36.70 46.20 L 36.63 46.16 L 36.54 46.12 L 36.47 46.07 L 36.39 46.03 L 36.35 46.00 L 36.28 45.96 L 36.22 45.93 L 36.14 45.87 L 36.10 45.85 L 36.05 45.81 L 36.03 45.79 L 36.02 45.79 L 36.01 45.80 L 36.00 45.81 L 36.01 45.66 L 36.08 45.71 L 36.15 45.76 L 36.21 45.81 L 36.23 45.79 L 36.25 45.80 L 36.27 45.81 L 36.26 45.83 L 36.39 45.91 L 36.51 45.99 L 36.62 46.04 L 36.75 46.11 L 36.94 46.20 L 37.08 46.26 L 37.22 46.31 L 37.35 46.36 L 37.44 46.38 L 37.46 46.39 L 37.50 46.40 L 37.53 46.41"/><path d="M 36.00 46.09 L 36.02 46.06 L 36.04 46.03 L 36.07 46.00 L 36.10 45.98 L 36.12 45.96 L 36.15 45.95 L 36.18 45.93 L 36.20 45.93 L 36.22 45.93 L 36.18 45.90 L 36.14 45.87 L 36.14 45.89 L 36.14 45.90 L 36.13 45.90 L 36.11 45.91 L 36.09 45.92 L 36.07 45.94 L 36.05 45.95 L 36.04 45.97 L 36.03 45.98 L 36.02 45.98 L 36.02 45.97 L 36.00 45.96 L 36.00 46.09"/><path d="M 73.24 35.69 L 74.76 34.95 L 74.61 34.60 L 73.06 35.29 L 73.24 35.69"/><path d="M 72.21 35.36 L 71.56 35.69 L 71.25 35.85 L 70.90 35.19 L 70.23 35.46 L 69.61 36.20 L 70.33 37.77 L 71.03 37.80 L 72.33 37.16 L 72.24 35.84 L 72.21 35.36"/><path d="M 72.63 34.36 L 72.14 33.06 L 72.69 32.51 L 73.17 32.33 L 73.38 32.35 L 73.57 32.43 L 74.51 34.14 L 73.71 34.76 L 72.88 34.99 L 72.63 34.36"/><path d="M 26.92 42.18 L 27.98 42.21 L 27.98 42.39 L 26.91 42.37 L 26.92 42.18"/><path d="M 50.07 34.05 L 50.07 34.02 L 50.07 33.97 L 50.05 33.92 L 50.01 33.87 L 49.98 33.86 L 49.91 33.74 L 49.85 33.70 L 49.76 33.69 L 49.62 33.67 L 49.56 33.64 L 49.51 33.58 L 49.47 33.64 L 49.29 33.84 L 49.35 33.87 L 49.38 33.90 L 49.42 34.00 L 49.47 34.07 L 49.53 34.14 L 49.60 34.21 L 49.67 34.24 L 49.80 34.25 L 49.87 34.24 L 49.93 34.22 L 49.99 34.18 L 50.04 34.12 L 50.07 34.05"/><path d="M 31.16 26.20 L 29.14 26.18 L 29.11 27.64 L 31.17 27.62 L 31.16 26.20"/><path d="M 48.11 67.05 L 48.18 67.15 L 48.31 67.21 L 48.74 67.32 L 48.99 67.34 L 49.64 67.39 L 49.86 67.44 L 49.92 66.76 L 49.67 66.79 L 49.57 67.07 L 49.36 67.19 L 49.03 67.20 L 48.63 67.11 L 48.40 67.04 L 48.11 67.05"/><path d="M 49.32 30.30 L 49.30 30.37 L 49.25 30.48 L 49.21 30.57 L 49.22 30.69 L 49.28 30.79 L 49.37 30.84 L 49.45 30.84 L 49.54 30.80 L 49.59 30.72 L 49.60 30.63 L 49.60 30.52 L 49.55 30.44 L 49.48 30.39 L 49.42 30.34 L 49.37 30.31 L 49.34 30.30 L 49.32 30.30"/><path d="M 30.02 31.91 L 30.91 31.93 L 30.92 31.28 L 30.04 31.26 L 30.02 31.91"/><path d="M 53.72 21.13 L 53.69 20.94 L 53.66 20.68 L 53.63 20.46 L 53.62 20.15 L 53.61 19.83 L 53.62 19.60 L 53.64 19.28 L 53.68 18.95 L 53.71 18.77 L 53.75 18.56 L 53.81 18.31 L 53.91 17.95 L 54.03 17.58 L 54.14 17.30 L 53.97 16.95 L 54.07 16.95 L 54.18 16.74 L 54.40 17.19 L 54.85 17.20 L 54.91 17.07 L 55.02 16.87 L 55.13 16.69 L 55.24 16.51 L 55.34 16.37 L 55.43 16.24 L 55.58 16.04 L 55.72 15.88 L 55.76 15.83 L 55.88 15.70 L 55.90 15.68 L 56.06 15.50 L 56.24 15.32 L 56.44 15.15 L 56.56 15.05 L 56.68 14.95 L 56.82 14.85 L 56.97 14.74 L 57.12 14.64 L 57.25 14.56 L 57.40 14.48 L 57.50 14.42 L 57.50 14.22 L 57.62 14.15 L 57.75 14.09 L 57.87 14.03 L 58.00 13.97 L 58.13 13.92 L 58.11 13.49 L 57.50 13.76 L 57.50 13.52 L 56.77 13.07 L 56.28 12.25 L 55.61 11.18 L 55.47 10.85 L 55.16 10.38 L 54.17 8.75 L 54.05 8.61 L 53.96 8.52 L 53.85 8.46 L 53.74 8.40 L 53.63 8.36 L 53.57 8.35 L 53.39 8.33 L 52.67 8.32 L 51.60 8.72 L 51.45 8.80 L 51.31 8.94 L 51.20 9.11 L 51.13 9.31 L 51.12 9.53 L 51.23 12.39 L 51.27 12.87 L 51.00 14.08 L 50.97 15.29 L 51.11 16.91 L 51.15 17.40 L 51.18 17.74 L 51.19 17.75 L 51.26 18.16 L 51.26 18.16 L 51.31 18.37 L 51.37 18.55 L 51.50 19.03 L 51.62 19.43 L 51.74 19.85 L 51.88 20.34 L 51.95 20.62 L 51.95 20.62 L 52.00 20.95 L 52.03 21.28 L 52.03 21.28 L 52.03 21.78 L 52.03 21.78 L 51.98 22.43 L 51.89 22.68 L 51.81 23.47 L 51.81 23.48 L 51.71 23.96 L 51.63 24.27 L 51.53 24.59 L 51.37 25.01 L 51.27 25.23 L 50.99 25.78 L 50.59 26.53 L 50.34 27.63 L 54.94 27.63 L 54.73 26.72 L 54.69 26.53 L 54.58 26.11 L 54.49 25.81 L 54.34 25.23 L 52.73 25.23 L 52.70 23.68 L 52.69 22.67 L 52.75 22.43 L 53.57 22.43 L 53.40 21.78 L 53.26 21.27 L 53.72 21.13"/><path d="M 42.03 17.49 L 42.01 19.10 L 41.90 19.10 L 41.03 19.10 L 40.94 27.61 L 46.44 27.62 L 46.48 17.53 L 42.03 17.49"/><path d="M 49.02 27.62 L 49.02 27.16 L 49.86 27.17 L 50.01 26.53 L 50.08 26.28 L 50.16 26.04 L 51.00 24.50 L 51.10 24.26 L 51.18 24.05 L 51.27 23.73 L 51.32 23.40 L 51.39 22.55 L 51.42 22.38 L 51.47 21.76 L 51.47 21.48 L 51.47 21.47 L 51.46 21.23 L 51.44 20.99 L 51.40 20.75 L 51.35 20.52 L 51.34 20.51 L 51.16 19.87 L 51.15 19.85 L 50.74 18.40 L 50.64 17.94 L 50.60 17.59 L 50.60 17.55 L 50.56 17.15 L 50.46 16.91 L 50.46 16.17 L 50.46 16.10 L 50.45 15.69 L 50.39 14.89 L 50.39 14.88 L 50.38 14.68 L 50.39 14.29 L 50.42 14.10 L 50.46 13.89 L 50.51 13.71 L 50.51 12.86 L 50.66 12.38 L 50.61 11.15 L 50.53 11.15 L 50.54 10.33 L 50.56 9.52 L 50.57 8.29 L 47.00 8.24 L 46.93 25.53 L 47.73 25.54 L 47.73 27.62 L 49.02 27.62"/><path d="M 36.05 25.35 L 36.04 26.31 L 36.07 26.31 L 36.19 27.51 L 36.30 27.61 L 36.90 27.61 L 36.92 25.35 L 36.05 25.35"/><path d="M 37.88 27.61 L 37.01 27.61 L 37.04 24.71 L 37.91 24.71 L 37.88 27.61"/><path d="M 40.14 27.61 L 40.24 17.47 L 36.13 17.42 L 36.08 22.28 L 37.93 22.30 L 38.34 22.30 L 38.28 27.61 L 40.14 27.61"/><path d="M 32.54 22.72 L 33.37 22.73 L 33.37 27.62 L 32.52 27.61 L 32.54 22.72"/><path d="M 33.82 27.55 L 33.84 27.61 L 33.89 27.62 L 34.71 27.62 L 34.69 22.75 L 33.86 22.74 L 33.82 27.55"/><path d="M 35.58 27.60 L 35.61 24.82 L 34.78 24.81 L 34.75 27.60 L 35.58 27.60"/><path d="M 47.73 25.54 L 46.93 25.53 L 46.92 27.62 L 47.73 27.62 L 47.73 25.54"/><path d="M 30.98 28.15 L 26.95 28.09 L 26.88 31.86 L 27.71 31.87 L 27.72 31.22 L 27.84 31.23 L 28.67 31.24 L 29.15 31.24 L 29.14 31.90 L 30.02 31.91 L 30.04 31.26 L 30.92 31.28 L 30.98 28.15"/><path d="M 28.67 31.24 L 28.66 31.56 L 28.65 31.89 L 27.82 31.87 L 27.84 31.23 L 28.67 31.24"/><path d="M 32.17 39.39 L 32.21 37.45 L 31.38 37.44 L 31.34 39.38 L 32.17 39.39"/><path d="M 31.34 39.38 L 32.17 39.39 L 32.17 39.71 L 32.15 40.68 L 31.32 40.67 L 31.34 39.38"/><path d="M 32.25 35.02 L 31.42 35.01 L 31.40 36.30 L 32.23 36.32 L 32.25 35.02"/><path d="M 32.30 32.44 L 32.29 33.08 L 31.46 33.07 L 31.47 32.42 L 32.30 32.44"/><path d="M 33.13 38.76 L 33.09 40.70 L 32.26 40.69 L 32.30 38.75 L 33.13 38.76"/><path d="M 32.41 32.44 L 33.24 32.45 L 33.13 38.76 L 32.30 38.75 L 32.32 37.45 L 32.21 37.45 L 31.38 37.44 L 31.39 36.79 L 32.33 36.81 L 32.41 32.44"/><path d="M 34.43 40.08 L 34.41 40.40 L 34.41 40.73 L 33.58 40.71 L 33.60 40.07 L 34.43 40.08"/><path d="M 34.46 37.83 L 34.49 36.36 L 35.43 36.37 L 35.45 35.08 L 34.62 35.07 L 34.51 35.06 L 34.53 33.61 L 33.70 33.60 L 33.63 37.81 L 34.46 37.83"/><path d="M 34.55 32.48 L 34.53 33.61 L 33.70 33.60 L 33.72 32.46 L 34.55 32.48"/><path d="M 31.53 29.03 L 32.36 29.04 L 32.47 29.04 L 32.42 31.95 L 33.25 31.97 L 33.36 28.14 L 31.54 28.13 L 31.53 29.03"/><path d="M 33.73 31.98 L 35.51 32.01 L 35.55 29.75 L 34.72 29.73 L 34.60 29.73 L 34.62 28.76 L 34.63 28.16 L 33.81 28.15 L 33.73 31.98"/><path d="M 35.56 28.78 L 35.57 28.17 L 34.74 28.16 L 34.73 28.76 L 35.56 28.78"/><path d="M 35.56 28.78 L 34.73 28.76 L 34.72 29.73 L 35.55 29.75 L 35.56 28.78"/><path d="M 24.80 22.65 L 24.77 25.72 L 24.76 26.55 L 24.74 26.75 L 24.67 26.97 L 24.45 27.47 L 24.39 27.50 L 23.30 27.48 L 23.34 22.65 L 24.80 22.65"/><path d="M 21.87 26.34 L 21.87 26.50 L 21.86 27.47 L 21.00 27.46 L 21.01 26.33 L 21.87 26.34"/><path d="M 20.55 26.97 L 20.55 27.22 L 20.54 27.31 L 20.51 27.36 L 20.44 27.42 L 20.38 27.45 L 20.32 27.46 L 19.69 27.45 L 19.69 26.97 L 20.55 26.97"/><path d="M 19.56 26.32 L 19.56 27.45 L 19.16 27.44 L 19.03 27.41 L 18.90 27.34 L 18.79 27.25 L 18.70 27.14 L 18.70 26.31 L 19.56 26.32"/><path d="M 41.82 70.41 L 41.82 70.45 L 41.82 71.41 L 41.82 71.59 L 41.87 73.76 L 45.77 73.83 L 45.79 75.16 L 45.80 75.41 L 49.82 75.47 L 51.84 75.53 L 53.71 75.53 L 54.85 75.54 L 55.20 75.52 L 55.58 75.47 L 55.62 75.46 L 55.70 73.90 L 56.21 73.87 L 56.28 73.69 L 56.33 71.69 L 56.33 71.49 L 56.33 70.50 L 56.33 70.48 L 55.55 70.48 L 55.55 70.56 L 51.87 70.55 L 51.81 70.43 L 41.82 70.41"/><path d="M 30.76 40.66 L 30.90 32.41 L 26.87 32.34 L 26.76 38.97 L 27.59 38.99 L 27.69 39.31 L 28.52 39.33 L 28.50 40.62 L 30.76 40.66"/><path d="M 25.32 39.59 L 25.37 36.68 L 24.75 36.68 L 24.69 36.70 L 24.63 36.74 L 24.59 36.79 L 24.57 36.85 L 24.56 36.91 L 24.51 39.58 L 25.32 39.59"/><path d="M 25.30 40.56 L 25.32 39.59 L 24.51 39.58 L 24.50 40.36 L 24.52 40.41 L 24.56 40.47 L 24.65 40.53 L 24.73 40.55 L 25.30 40.56"/><path d="M 26.38 32.98 L 26.28 38.82 L 26.18 39.21 L 26.04 39.60 L 25.89 39.93 L 25.42 39.92 L 25.49 36.20 L 24.57 36.18 L 24.62 33.59 L 25.40 33.61 L 25.55 32.96 L 26.38 32.98"/><path d="M 51.86 35.23 L 51.84 34.96 L 52.43 34.96 L 53.02 35.08 L 53.28 35.24 L 53.25 33.04 L 53.22 32.94 L 53.16 32.88 L 53.04 32.85 L 52.83 32.84 L 52.68 32.81 L 52.52 32.71 L 52.30 32.50 L 52.06 32.40 L 51.53 32.75 L 50.78 33.53 L 50.90 34.08 L 51.14 34.79 L 51.55 35.09 L 51.55 35.24 L 51.86 35.23"/><path d="M 35.22 48.52 L 35.22 48.79 L 35.21 49.79 L 34.36 49.78 L 34.38 48.78 L 34.39 48.51 L 35.22 48.52"/><path d="M 33.62 38.44 L 34.45 38.45 L 34.43 40.08 L 33.60 40.07 L 33.62 38.44"/><path d="M 34.45 38.45 L 34.46 37.83 L 33.63 37.81 L 33.62 38.44 L 34.45 38.45"/><path d="M 34.35 45.12 L 33.47 45.11 L 33.48 44.83 L 33.48 44.76 L 33.49 44.76 L 33.74 44.76 L 34.35 44.77 L 34.35 44.80 L 34.35 45.12"/><path d="M 20.56 41.42 L 20.56 42.03 L 21.32 42.03 L 21.32 41.42 L 20.56 41.42"/><path d="M 19.36 29.85 L 20.15 29.83 L 20.19 31.95 L 19.35 31.95 L 19.36 29.85"/><path d="M 17.01 32.90 L 17.04 32.58 L 17.05 32.19 L 18.04 32.17 L 18.04 32.57 L 17.23 32.56 L 17.23 32.89 L 17.01 32.90"/><path d="M 44.09 51.30 L 43.95 52.30 L 44.00 52.29 L 44.59 52.16 L 44.24 51.39 L 44.20 51.31 L 44.15 51.29 L 44.12 51.29 L 44.09 51.30"/><path d="M 39.01 40.98 L 39.01 40.69 L 39.03 40.66 L 40.07 40.66 L 40.14 40.69 L 40.15 40.71 L 40.20 40.71 L 40.20 40.85 L 40.16 40.91 L 40.16 41.01 L 39.01 40.98"/><path d="M 19.49 41.48 L 19.50 41.81 L 20.12 41.82 L 20.12 41.49 L 19.49 41.48"/><path d="M 13.19 43.21 L 13.20 42.56 L 14.45 42.57 L 14.44 43.23 L 13.19 43.21"/><path d="M 48.46 57.57 L 48.49 57.60 L 48.38 57.64 L 48.36 57.59 L 47.59 55.95 L 47.56 55.89 L 47.03 54.74 L 46.98 54.63 L 47.01 54.62 L 47.02 54.59 L 47.03 54.56 L 47.04 54.54 L 47.06 54.52 L 47.09 54.51 L 47.13 54.50 L 47.19 54.51 L 47.14 54.52 L 47.10 54.55 L 47.08 54.58 L 47.08 54.62 L 48.44 57.55 L 48.46 57.57"/><path d="M 47.02 54.50 L 47.04 54.49 L 47.08 54.47 L 47.12 54.46 L 47.20 54.47 L 47.24 54.47 L 47.27 54.48 L 47.30 54.49 L 47.27 54.50 L 47.24 54.51 L 47.19 54.51 L 47.13 54.50 L 47.09 54.51 L 47.06 54.52 L 47.04 54.54 L 47.03 54.52 L 47.02 54.50"/><path d="M 47.54 57.97 L 48.24 57.65 L 48.29 57.76 L 48.34 57.87 L 47.64 58.19 L 47.59 58.08 L 47.54 57.97"/><path d="M 48.24 57.65 L 48.29 57.76 L 48.34 57.87 L 48.40 57.84 L 48.46 57.81 L 48.41 57.70 L 48.38 57.64 L 48.36 57.59 L 48.30 57.62 L 48.24 57.65"/><path d="M 47.64 58.19 L 47.59 58.08 L 47.54 57.97 L 47.48 58.00 L 47.42 58.03 L 47.47 58.14 L 47.52 58.25 L 47.58 58.22 L 47.64 58.19"/><path d="M 47.47 56.01 L 47.53 55.98 L 47.59 55.95 L 47.56 55.89 L 47.51 55.92 L 47.45 55.95 L 47.46 55.98 L 47.47 56.01"/><path d="M 48.24 57.65 L 48.30 57.62 L 48.36 57.59 L 47.59 55.95 L 47.53 55.98 L 47.47 56.01 L 48.24 57.65"/><path d="M 47.45 55.95 L 46.91 54.79 L 46.97 54.76 L 47.03 54.74 L 47.56 55.89 L 47.51 55.92 L 47.45 55.95"/><path d="M 46.77 56.33 L 46.71 56.36 L 46.66 56.39 L 46.63 56.33 L 46.69 56.30 L 46.75 56.28 L 46.76 56.30 L 46.77 56.33"/><path d="M 47.54 57.97 L 47.48 58.00 L 47.42 58.03 L 47.04 57.22 L 46.95 57.02 L 46.66 56.39 L 46.71 56.36 L 46.77 56.33 L 47.54 57.97"/><path d="M 46.63 56.33 L 46.09 55.17 L 46.15 55.15 L 46.21 55.12 L 46.75 56.28 L 46.69 56.30 L 46.63 56.33"/><path d="M 46.75 56.28 L 46.76 56.30 L 46.77 56.33 L 47.47 56.01 L 47.46 55.98 L 47.45 55.95 L 46.75 56.28"/><path d="M 46.91 54.79 L 46.21 55.12 L 46.75 56.28 L 47.45 55.95 L 46.91 54.79"/><path d="M 48.24 57.65 L 47.54 57.97 L 46.77 56.33 L 47.47 56.01 L 48.24 57.65"/><path d="M 24.31 28.22 L 24.31 28.10 L 24.35 28.10 L 24.39 28.11 L 24.38 28.12 L 24.37 28.14 L 24.36 28.19 L 24.36 28.23 L 24.33 28.23 L 24.31 28.22"/><path d="M 24.30 28.52 L 24.33 28.52 L 24.35 28.52 L 24.35 28.60 L 24.35 28.63 L 24.32 28.63 L 24.30 28.63 L 24.30 28.52"/><path d="M 24.31 28.27 L 24.33 28.27 L 24.36 28.27 L 24.35 28.47 L 24.33 28.47 L 24.30 28.47 L 24.31 28.27"/><path d="M 24.30 28.47 L 24.33 28.47 L 24.35 28.47 L 24.35 28.49 L 24.35 28.52 L 24.33 28.52 L 24.30 28.52 L 24.30 28.49 L 24.30 28.47"/><path d="M 24.31 28.27 L 24.31 28.25 L 24.31 28.22 L 24.33 28.23 L 24.36 28.23 L 24.36 28.25 L 24.36 28.27 L 24.33 28.27 L 24.31 28.27"/><path d="M 24.31 28.27 L 24.30 28.47 L 24.22 28.47 L 24.23 28.27 L 24.31 28.27"/><path d="M 24.23 28.22 L 24.23 28.10 L 24.27 28.10 L 24.31 28.10 L 24.31 28.22 L 24.23 28.22"/><path d="M 24.30 28.52 L 24.30 28.63 L 24.26 28.63 L 24.22 28.63 L 24.22 28.51 L 24.30 28.52"/><path d="M 24.23 28.27 L 24.23 28.22 L 24.31 28.22 L 24.31 28.25 L 24.31 28.27 L 24.23 28.27"/><path d="M 24.22 28.51 L 24.22 28.47 L 24.30 28.47 L 24.30 28.49 L 24.30 28.52 L 24.22 28.51"/><path d="M 41.50 45.96 L 41.63 46.24 L 42.20 45.98 L 42.06 45.70 L 41.50 45.96"/><path d="M 42.47 45.86 L 43.62 45.33 L 43.62 45.16 L 43.61 45.11 L 43.56 45.03 L 42.34 45.58 L 42.47 45.86"/><path d="M 41.16 46.48 L 41.57 46.28 L 41.43 45.99 L 41.01 46.16 L 41.16 46.48"/><path d="M 41.84 45.23 L 41.63 45.33 L 41.77 45.69 L 41.88 45.32 L 41.84 45.23"/><path d="M 42.06 45.61 L 41.98 45.44 L 41.91 45.59 L 41.85 45.70 L 42.06 45.61"/><path d="M 42.30 45.50 L 42.50 45.41 L 42.22 45.32 L 42.30 45.50"/><path d="M 42.78 49.31 L 42.64 49.37 L 42.62 49.41 L 42.60 49.49 L 42.61 49.55 L 42.87 50.13 L 42.90 50.18 L 42.95 50.19 L 43.01 50.17 L 43.08 50.14 L 42.74 49.42 L 42.74 49.40 L 42.74 49.37 L 42.74 49.35 L 42.76 49.33 L 42.78 49.31"/><path d="M 43.68 51.33 L 43.57 51.38 L 43.53 51.39 L 43.49 51.38 L 43.44 51.34 L 43.16 50.75 L 43.15 50.70 L 43.15 50.66 L 43.18 50.63 L 43.29 50.58 L 43.62 51.30 L 43.63 51.31 L 43.64 51.32 L 43.65 51.33 L 43.67 51.33 L 43.68 51.33"/><path d="M 45.21 55.39 L 45.14 55.33 L 45.13 55.30 L 45.13 55.26 L 45.15 55.23 L 45.59 55.15 L 45.63 55.16 L 45.67 55.26 L 45.63 55.27 L 45.62 55.25 L 45.49 55.21 L 45.40 55.22 L 45.33 55.24 L 45.25 55.29 L 45.21 55.39"/><path d="M 46.99 49.77 L 47.07 49.80 L 47.19 49.75 L 47.71 49.96 L 47.76 50.07 L 47.84 50.11 L 47.86 50.08 L 47.62 49.57 L 47.55 49.43 L 47.03 49.67 L 46.99 49.77"/><path d="M 46.82 49.49 L 46.88 49.62 L 46.90 49.63 L 47.45 49.38 L 47.46 49.20 L 46.82 49.49"/><path d="M 44.25 45.17 L 44.61 45.02 L 44.59 44.98 L 43.96 44.86 L 43.72 44.97 L 43.79 45.12 L 43.83 45.10 L 43.92 45.13 L 43.97 45.23 L 43.98 45.20 L 44.01 45.18 L 44.05 45.18 L 44.06 45.20 L 44.07 45.23 L 44.06 45.26 L 44.15 45.22 L 44.13 45.15 L 44.12 45.10 L 44.12 45.08 L 44.07 45.04 L 44.05 45.02 L 44.04 44.97 L 44.06 44.95 L 44.08 44.94 L 44.12 44.94 L 44.16 44.96 L 44.20 45.00 L 44.21 45.04 L 44.20 45.08 L 44.19 45.09 L 44.21 45.12 L 44.25 45.17"/><path d="M 41.26 49.66 L 41.29 49.59 L 41.37 49.56 L 41.44 49.49 L 41.54 49.51 L 41.56 49.54 L 41.56 49.58 L 41.57 49.60 L 41.57 49.63 L 41.55 49.65 L 41.54 49.71 L 41.55 49.75 L 41.47 49.75 L 41.42 49.74 L 41.37 49.70 L 41.31 49.67 L 41.26 49.66"/><path d="M 40.30 48.08 L 40.55 48.61 L 41.26 48.28 L 41.01 47.75 L 40.30 48.08"/><path d="M 42.33 51.84 L 42.27 51.71 L 42.61 51.55 L 42.67 51.68 L 42.33 51.84"/><path d="M 42.92 53.62 L 42.91 53.77 L 42.90 53.90 L 42.97 53.94 L 43.07 53.91 L 43.16 53.89 L 43.22 53.91 L 43.58 53.94 L 43.65 53.40 L 43.61 53.35 L 43.53 53.33 L 43.45 53.36 L 43.14 53.51 L 43.14 53.54 L 43.11 53.59 L 43.08 53.60 L 43.03 53.57 L 43.03 53.56 L 42.92 53.62"/><path d="M 45.25 47.91 L 45.27 47.95 L 45.29 47.95 L 45.30 47.97 L 45.33 47.97 L 45.72 47.78 L 45.67 47.68 L 45.41 47.81 L 45.31 47.85 L 45.32 47.87 L 45.25 47.90 L 45.25 47.91"/><path d="M 45.70 50.23 L 45.73 50.24 L 45.90 49.85 L 45.95 49.71 L 45.73 49.64 L 45.72 49.66 L 45.58 49.62 L 45.58 49.59 L 45.38 49.53 L 45.70 50.23"/><path d="M 45.76 50.32 L 45.80 50.34 L 46.64 49.95 L 46.65 49.94 L 46.05 49.74 L 46.03 49.74 L 45.76 50.32"/><path d="M 45.32 49.40 L 45.34 49.43 L 45.98 49.64 L 46.31 48.95 L 46.30 48.93 L 45.32 49.40"/><path d="M 45.28 49.31 L 45.27 49.28 L 45.53 48.60 L 46.25 48.84 L 46.26 48.85 L 45.28 49.31"/><path d="M 44.86 48.41 L 45.20 49.17 L 45.22 49.17 L 45.46 48.60 L 45.45 48.58 L 44.86 48.41"/><path d="M 45.80 47.96 L 45.84 47.98 L 45.87 48.02 L 46.20 48.71 L 46.20 48.73 L 46.17 48.73 L 45.55 48.55 L 45.77 48.01 L 45.80 47.96"/><path d="M 46.06 49.65 L 46.06 49.66 L 46.07 49.68 L 46.67 49.87 L 46.70 49.86 L 46.72 49.81 L 46.37 49.08 L 46.35 49.06 L 46.34 49.06 L 46.32 49.08 L 46.06 49.65"/><path d="M 41.73 37.47 L 41.72 37.41 L 41.69 37.37 L 41.61 37.36 L 40.75 37.31 L 40.72 37.37 L 40.70 38.41 L 40.80 38.42 L 41.53 37.67 L 41.73 37.47"/><path d="M 41.36 35.68 L 41.31 35.62 L 41.27 35.61 L 41.22 35.63 L 40.80 35.91 L 40.77 35.94 L 40.77 35.98 L 40.83 36.16 L 41.04 36.82 L 41.06 36.89 L 41.17 36.81 L 41.24 36.73 L 41.35 36.62 L 41.43 36.53 L 41.47 36.54 L 41.51 36.55 L 41.70 36.37 L 41.19 35.85 L 41.36 35.68"/><path d="M 43.13 35.57 L 43.10 35.66 L 43.13 35.73 L 43.18 35.80 L 43.27 35.83 L 43.36 35.83 L 43.42 35.80 L 43.57 35.65 L 43.55 35.63 L 43.59 35.60 L 43.61 35.62 L 43.73 35.50 L 43.46 35.23 L 43.13 35.57"/><path d="M 49.31 52.26 L 49.21 52.24 L 49.41 51.74 L 49.50 51.80 L 49.48 51.82 L 49.45 51.87 L 49.42 51.93 L 49.39 51.99 L 49.37 52.05 L 49.35 52.11 L 49.33 52.18 L 49.32 52.24 L 49.31 52.26"/><path d="M 43.69 52.97 L 43.72 52.94 L 43.86 51.95 L 43.65 52.03 L 43.27 53.02 L 43.27 53.23 L 43.47 53.17 L 43.69 52.97"/><path d="M 31.07 52.01 L 31.07 51.77 L 31.08 51.59 L 31.09 51.03 L 31.11 51.03 L 31.14 51.03 L 31.12 52.01 L 31.09 52.01 L 31.07 52.01"/><path d="M 31.01 51.77 L 31.07 51.77 L 31.07 52.01 L 31.00 52.01 L 31.01 51.77"/><path d="M 31.09 51.03 L 31.08 51.59 L 31.01 51.59 L 31.02 51.03 L 31.09 51.03"/><path d="M 39.91 38.67 L 39.87 38.70 L 39.93 38.72 L 40.04 38.75 L 40.06 38.71 L 39.91 38.67"/><path d="M 50.43 72.54 L 50.43 72.44 L 50.44 72.14 L 50.45 72.13 L 50.46 72.12 L 50.48 72.12 L 50.50 72.12 L 50.50 72.14 L 50.50 72.16 L 50.53 72.58 L 50.53 72.60 L 50.52 72.61 L 50.49 72.62 L 50.46 72.60 L 50.44 72.58 L 50.43 72.54"/><path d="M 41.82 70.45 L 41.82 70.41 L 41.09 70.41 L 41.36 70.09 L 41.04 70.23 L 40.74 70.34 L 40.45 70.93 L 40.64 70.79 L 41.11 70.45 L 41.82 70.45"/><path d="M 22.21 42.81 L 22.21 43.08 L 22.21 43.86 L 22.19 43.88 L 22.19 43.08 L 22.19 42.81 L 22.21 42.81"/><path d="M 22.19 42.77 L 22.19 42.33 L 22.21 42.35 L 22.21 42.77 L 22.19 42.77"/><path d="M 22.47 42.68 L 22.50 42.68 L 22.53 42.70 L 22.55 42.71 L 22.57 42.73 L 22.53 42.75 L 22.51 42.75 L 22.49 42.74 L 22.48 42.73 L 22.47 42.72 L 22.47 42.68"/><path d="M 56.79 48.46 L 56.81 48.47 L 56.83 48.49 L 56.84 48.51 L 56.85 48.54 L 56.76 48.95 L 56.63 48.93 L 56.72 48.44 L 56.79 48.46"/></g></g></g></svg>