<svg baseProfile="tiny" height="150mm" version="1.2" viewBox="0 0 100 100" width="150mm" xmlns="http://www.w3.org/2000/svg" style="-webkit-tap-highlight-color: rgba(0, 0, 0, 0);"><rect x="-10000" y="-10000" width="20000" height="20000" fill="rgb(220,220,220)"/><g id="zoom-group" transform="translate(-72.69306243549372,-77.60449340991572) scale(2.297396709994071)"><g id="drag-group" transform="translate(12.105949401855469, 5.341167449951172)" style="touch-action: none; -webkit-tap-highlight-color: rgba(0, 0, 0, 0);"><g fill="none" stroke="#555555" stroke-linecap="round" stroke-linejoin="round" class="zoomable-line" style="stroke-width: 0.17411;"><path d="M 43.38 49.80 L 43.43 49.62 L 43.51 49.45 L 43.64 49.30 L 43.79 49.19 L 43.97 49.12 L 44.16 49.09 L 44.35 49.11 L 44.53 49.18 L 44.69 49.28 L 44.82 49.43 L 44.91 49.59 L 44.95 49.78 L 44.95 49.97 L 44.91 50.15 L 44.82 50.32 L 44.70 50.47 L 44.55 50.58 L 44.37 50.64 L 44.18 50.67 L 43.99 50.65 L 43.82 50.59 L 43.66 50.48 L 43.53 50.34 L 43.44 50.18 L 43.39 49.99 L 43.38 49.80"/><path d="M 62.36 72.81 L 62.31 72.84 L 62.28 72.88 L 62.29 72.92 L 62.31 72.99 L 62.35 73.06 L 62.38 73.12 L 62.39 73.19 L 62.43 73.38 L 62.45 73.44 L 62.49 73.49 L 62.54 73.51 L 62.58 73.54 L 62.62 73.59 L 62.66 73.60 L 62.71 73.60 L 62.79 73.56 L 62.99 73.53 L 63.11 73.50 L 63.19 73.48 L 63.48 73.50 L 63.88 73.49 L 64.29 73.53 L 64.63 73.59 L 65.01 73.60 L 66.27 73.64 L 66.56 73.64 L 67.05 73.55 L 67.34 73.47 L 67.62 73.37 L 68.01 73.29 L 68.66 73.26 L 68.91 73.25 L 69.14 73.24 L 69.26 73.24 L 69.37 73.22 L 69.68 73.06 L 69.81 73.04 L 69.97 73.00 L 70.48 72.73 L 70.57 72.67 L 70.63 72.63 L 70.66 72.58 L 70.82 72.26 L 70.88 72.15 L 70.96 72.09 L 71.04 72.05 L 71.16 71.97 L 71.25 71.86 L 71.33 71.72 L 71.35 71.67 L 71.35 71.63 L 71.34 71.57 L 71.32 71.51 L 71.28 71.47 L 71.25 71.44 L 71.21 71.42 L 71.14 71.40 L 70.88 71.35 L 70.78 71.34 L 70.70 71.35 L 70.21 71.46 L 69.48 71.53 L 69.07 71.52 L 68.23 71.60 L 67.99 71.59 L 67.86 71.56 L 67.74 71.56 L 67.63 71.56 L 67.54 71.58 L 67.32 71.66 L 66.94 71.86 L 66.07 72.15 L 65.16 72.53 L 65.08 72.62 L 64.99 72.68 L 64.84 72.73 L 64.49 72.78 L 64.06 72.81 L 63.44 72.89 L 62.89 72.84 L 62.48 72.78 L 62.44 72.78 L 62.40 72.79 L 62.36 72.81"/><path d="M 66.94 71.86 L 66.65 71.81 L 66.32 71.98 L 65.86 72.16 L 64.79 72.70 L 63.63 72.82 L 63.02 72.80 L 62.48 72.70 L 62.25 72.80 L 62.33 73.16 L 62.47 73.55 L 62.64 73.65 L 62.89 73.57 L 63.18 73.55 L 64.17 73.62 L 64.48 73.65 L 64.50 73.62 L 64.55 73.64 L 64.62 73.67 L 64.92 73.69 L 65.86 73.70 L 66.54 73.73 L 67.22 73.58 L 67.68 73.42 L 68.22 73.33 L 68.97 73.31 L 69.45 73.25 L 69.61 73.20 L 69.71 73.11 L 69.84 73.09 L 69.95 73.07 L 70.03 73.04 L 70.34 72.88 L 70.69 72.66 L 70.83 72.49 L 70.95 72.42 L 71.11 72.43 L 71.30 72.30 L 71.47 72.08 L 71.51 71.94 L 71.33 71.72 L 71.25 71.86 L 71.16 71.97 L 71.04 72.05 L 70.96 72.09 L 70.88 72.15 L 70.82 72.26 L 70.66 72.58 L 70.63 72.63 L 70.57 72.67 L 70.48 72.73 L 69.97 73.00 L 69.81 73.04 L 69.68 73.06 L 69.37 73.22 L 69.26 73.24 L 69.14 73.24 L 68.91 73.25 L 68.66 73.26 L 68.01 73.29 L 67.62 73.37 L 67.34 73.47 L 67.05 73.55 L 66.56 73.64 L 66.27 73.64 L 65.01 73.60 L 64.63 73.59 L 64.29 73.53 L 63.88 73.49 L 63.48 73.50 L 63.19 73.48 L 63.11 73.50 L 62.99 73.53 L 62.79 73.56 L 62.71 73.60 L 62.66 73.60 L 62.62 73.59 L 62.58 73.54 L 62.54 73.51 L 62.49 73.49 L 62.45 73.44 L 62.43 73.38 L 62.39 73.19 L 62.38 73.12 L 62.35 73.06 L 62.31 72.99 L 62.29 72.92 L 62.28 72.88 L 62.31 72.84 L 62.36 72.81 L 62.40 72.79 L 62.44 72.78 L 62.48 72.78 L 62.89 72.84 L 63.44 72.89 L 64.06 72.81 L 64.49 72.78 L 64.84 72.73 L 64.99 72.68 L 65.08 72.62 L 65.16 72.53 L 66.07 72.15 L 66.94 71.86"/><path d="M 58.40 70.67 L 58.25 70.62 L 58.25 70.57 L 58.26 70.53 L 58.27 70.51 L 58.20 70.35 L 58.12 70.24 L 58.31 70.11 L 58.66 70.35 L 59.14 71.17 L 59.28 71.33 L 59.38 71.42 L 60.05 71.59 L 60.45 72.02 L 60.53 72.44 L 60.73 72.69 L 60.94 72.70 L 61.08 72.89 L 61.20 73.18 L 61.05 73.35 L 61.03 73.61 L 61.26 74.04 L 61.07 73.96 L 60.98 73.77 L 60.91 73.69 L 60.78 73.67 L 60.64 73.60 L 60.57 73.51 L 60.55 73.37 L 60.62 73.32 L 60.76 73.30 L 60.82 73.23 L 60.81 73.18 L 60.71 72.99 L 60.59 72.90 L 60.42 72.78 L 60.25 72.65 L 60.15 72.86 L 60.04 72.83 L 59.75 72.66 L 59.52 72.39 L 59.06 71.99 L 58.94 71.81 L 58.87 71.55 L 58.74 71.50 L 58.62 71.50 L 58.46 71.34 L 58.28 71.19 L 58.30 70.96 L 58.40 70.67"/><path d="M 81.67 71.72 L 82.31 71.93 L 83.07 72.19 L 83.44 72.38 L 83.77 72.65 L 83.95 72.97 L 83.94 73.18 L 83.89 73.49 L 83.90 73.87 L 83.89 74.16 L 83.93 74.59 L 83.91 75.09 L 83.88 75.34 L 83.78 75.45 L 83.28 75.48 L 81.51 75.34 L 80.65 75.39 L 78.98 75.11 L 79.91 74.73 L 80.27 74.36 L 80.78 74.25 L 80.67 72.53 L 80.93 72.23 L 80.95 71.83 L 81.11 71.60 L 81.67 71.72"/><path d="M 63.16 62.59 L 63.28 62.64 L 63.38 62.52 L 63.36 62.44 L 63.38 62.40 L 63.39 62.24 L 63.36 62.18 L 63.27 62.12 L 63.34 62.04 L 63.37 61.94 L 63.39 61.85 L 63.35 61.76 L 63.09 61.51 L 62.99 61.38 L 62.75 61.94 L 62.76 62.05 L 62.71 62.09 L 62.69 62.16 L 62.74 62.38 L 62.89 62.48 L 63.05 62.35 L 63.16 62.59"/><path d="M 62.37 63.74 L 62.51 63.71 L 62.58 63.54 L 62.54 63.44 L 62.41 63.31 L 62.30 63.34 L 62.25 63.47 L 62.28 63.60 L 62.37 63.74"/><path d="M 64.53 58.61 L 64.49 58.62 L 64.46 58.64 L 64.43 58.67 L 64.42 58.70 L 64.40 58.80 L 64.34 58.91 L 64.29 59.12 L 64.27 59.22 L 64.27 59.29 L 64.30 59.34 L 64.36 59.38 L 64.43 59.43 L 64.50 59.50 L 64.57 59.54 L 64.65 59.54 L 64.74 59.51 L 64.79 59.45 L 64.85 59.45 L 64.91 59.42 L 64.94 59.40 L 64.95 59.35 L 64.97 59.27 L 65.05 59.22 L 65.09 59.17 L 65.12 59.08 L 65.12 58.96 L 65.10 58.88 L 65.06 58.84 L 65.02 58.84 L 64.98 58.83 L 64.93 58.86 L 64.87 58.82 L 64.83 58.76 L 64.81 58.73 L 64.85 58.62 L 64.78 58.57 L 64.78 58.61 L 64.83 58.63 L 64.79 58.70 L 64.76 58.69 L 64.73 58.65 L 64.71 58.62 L 64.68 58.63 L 64.68 58.68 L 64.53 58.61"/><path d="M 65.16 50.99 L 65.52 51.46 L 65.89 51.91 L 66.01 52.27 L 66.32 52.69 L 66.66 52.93 L 67.14 52.79 L 67.63 52.50 L 68.04 52.32 L 68.45 52.38 L 68.73 52.62 L 68.88 52.68 L 68.96 52.80 L 69.27 52.83 L 69.34 52.74 L 69.42 52.70 L 69.47 52.74 L 69.53 52.65 L 69.55 52.56 L 69.75 52.45 L 69.80 52.35 L 69.98 52.25 L 70.14 51.94 L 70.34 51.72 L 70.50 51.40 L 70.59 51.27 L 70.63 51.08 L 70.50 50.97 L 70.19 50.92 L 69.83 50.90 L 68.69 50.97 L 67.67 51.07 L 66.58 51.07 L 65.76 51.09 L 65.16 50.99"/><path d="M 66.38 56.12 L 66.58 55.83 L 66.58 55.65 L 66.70 55.49 L 66.80 55.42 L 66.74 55.34 L 66.62 55.23 L 66.54 55.18 L 66.54 55.04 L 66.43 54.99 L 66.16 54.93 L 65.97 54.78 L 65.80 54.77 L 65.72 54.69 L 65.63 54.49 L 65.47 54.44 L 65.29 54.48 L 65.15 54.66 L 65.06 54.73 L 65.00 54.92 L 64.94 55.09 L 64.93 55.33 L 64.74 55.29 L 64.58 55.33 L 64.62 55.55 L 64.70 55.64 L 64.71 55.82 L 64.76 55.88 L 64.89 55.92 L 64.75 55.99 L 64.72 56.12 L 64.84 56.30 L 64.98 56.33 L 65.03 56.42 L 64.88 56.42 L 64.74 56.50 L 64.69 56.58 L 64.70 56.66 L 64.87 56.69 L 64.73 56.80 L 64.72 56.88 L 64.66 57.07 L 64.64 57.39 L 64.74 57.72 L 64.91 57.96 L 65.20 58.06 L 65.42 57.94 L 65.54 57.68 L 65.54 57.45 L 65.69 57.25 L 65.69 57.17 L 65.78 57.12 L 65.80 57.04 L 65.77 57.00 L 65.81 56.95 L 65.85 56.78 L 65.85 56.65 L 65.94 56.61 L 66.01 56.47 L 66.38 56.12"/><path d="M 84.65 44.53 L 84.52 44.62 L 84.33 44.67 L 84.17 44.75 L 84.15 44.88 L 84.20 45.00 L 84.26 45.04 L 84.38 45.02 L 84.52 45.08 L 84.69 45.09 L 84.87 45.03 L 84.96 44.92 L 84.96 44.77 L 84.84 44.58 L 84.65 44.53"/><path d="M 85.58 45.64 L 85.44 45.66 L 85.36 45.61 L 85.27 45.54 L 85.14 45.64 L 85.10 45.76 L 85.15 45.88 L 85.24 45.90 L 85.22 46.05 L 85.31 46.14 L 85.29 46.27 L 85.37 46.36 L 85.45 46.45 L 85.53 46.46 L 85.61 46.58 L 85.72 46.72 L 85.82 46.75 L 85.89 46.89 L 86.04 46.97 L 86.12 46.88 L 86.14 46.70 L 86.13 46.51 L 86.07 46.36 L 85.95 46.17 L 85.58 45.64"/><path d="M 72.68 45.27 L 72.80 45.28 L 72.89 45.32 L 72.96 45.33 L 73.02 45.30 L 73.06 45.24 L 73.09 45.10 L 73.11 45.04 L 73.17 45.00 L 73.23 44.99 L 73.29 44.99 L 73.35 44.98 L 73.43 44.86 L 73.47 44.79 L 73.53 44.71 L 73.58 44.65 L 73.66 44.61 L 73.80 44.60 L 73.94 44.67 L 74.03 44.72 L 74.10 44.81 L 74.15 44.96 L 74.17 45.04 L 74.16 45.14 L 74.13 45.26 L 74.06 45.32 L 73.94 45.46 L 73.87 45.62 L 73.82 45.87 L 73.84 46.05 L 73.83 46.20 L 73.83 46.34 L 73.88 46.51 L 73.94 46.63 L 73.99 46.82 L 74.05 47.07 L 74.05 47.15 L 74.00 47.24 L 73.94 47.32 L 73.80 47.43 L 73.65 47.49 L 73.49 47.52 L 73.40 47.58 L 73.33 47.63 L 73.28 47.66 L 73.23 47.67 L 73.18 47.67 L 73.13 47.63 L 73.09 47.58 L 73.03 47.49 L 73.00 47.48 L 72.97 47.48 L 72.88 47.48 L 72.67 47.50 L 72.57 47.47 L 72.50 47.41 L 72.42 47.29 L 72.33 47.15 L 72.32 47.02 L 72.34 46.95 L 72.36 46.79 L 72.36 46.61 L 72.31 46.19 L 72.30 45.95 L 72.32 45.79 L 72.40 45.56 L 72.51 45.35 L 72.60 45.30 L 72.68 45.27"/><path d="M 68.35 48.19 L 68.40 48.10 L 68.42 48.03 L 68.41 47.97 L 68.38 47.91 L 68.33 47.89 L 68.24 47.87 L 67.89 47.73 L 67.76 47.64 L 67.71 47.57 L 67.68 47.48 L 67.66 47.42 L 67.67 47.35 L 67.72 47.24 L 67.83 47.14 L 67.96 47.08 L 68.09 47.09 L 68.21 47.12 L 68.38 47.10 L 68.54 47.05 L 68.68 46.95 L 68.84 46.83 L 68.97 46.79 L 69.09 46.79 L 69.27 46.79 L 69.44 46.72 L 69.65 46.69 L 69.85 46.67 L 70.19 46.64 L 70.36 46.66 L 70.44 46.70 L 70.50 46.77 L 70.57 46.84 L 70.62 46.95 L 70.61 47.06 L 70.64 47.21 L 70.64 47.37 L 70.59 47.50 L 70.51 47.60 L 70.20 47.88 L 69.82 48.03 L 69.70 48.15 L 69.47 48.24 L 69.29 48.31 L 69.10 48.42 L 69.04 48.48 L 68.95 48.51 L 68.74 48.51 L 68.57 48.54 L 68.42 48.53 L 68.35 48.19"/><path d="M 75.25 43.79 L 75.24 43.67 L 75.23 43.53 L 75.21 43.40 L 75.16 43.29 L 75.12 43.20 L 75.09 43.16 L 74.98 43.01 L 74.93 42.83 L 74.86 42.66 L 74.74 42.45 L 74.68 42.29 L 74.56 42.14 L 74.46 42.09 L 74.34 42.07 L 74.18 42.05 L 74.08 42.04 L 73.98 42.08 L 73.89 42.16 L 73.85 42.29 L 73.84 42.43 L 73.89 42.55 L 74.04 42.70 L 74.23 42.88 L 74.44 43.11 L 74.68 43.25 L 74.82 43.38 L 74.92 43.54 L 74.97 43.68 L 75.00 43.79 L 75.05 43.85 L 75.11 43.88 L 75.20 43.86 L 75.25 43.79"/><path d="M 70.85 38.23 L 70.92 38.19 L 71.08 38.15 L 71.22 38.10 L 71.29 38.07 L 71.37 38.07 L 71.43 38.09 L 71.45 38.13 L 71.45 38.20 L 71.45 38.33 L 71.45 38.48 L 71.44 38.60 L 71.44 38.71 L 71.43 38.74 L 71.40 38.77 L 71.36 38.79 L 71.28 38.76 L 71.23 38.70 L 71.19 38.63 L 71.16 38.55 L 71.11 38.49 L 71.02 38.46 L 70.98 38.45 L 70.94 38.41 L 70.89 38.35 L 70.84 38.29 L 70.85 38.23"/><path d="M 74.59 42.05 L 74.78 42.33 L 75.01 42.72 L 75.09 43.16 L 75.39 43.38 L 75.38 43.91 L 75.18 44.07 L 74.90 43.98 L 74.85 43.65 L 74.77 43.40 L 74.64 43.32 L 74.39 43.56 L 74.14 43.39 L 74.26 43.09 L 73.92 42.78 L 73.59 42.44 L 73.44 42.08 L 73.33 41.71 L 73.32 41.28 L 73.46 41.14 L 73.96 41.06 L 74.32 41.34 L 74.38 41.69 L 74.59 42.05"/><path d="M 70.76 38.16 L 70.96 38.10 L 71.14 38.07 L 71.30 37.99 L 71.48 38.04 L 71.53 38.21 L 71.51 38.38 L 71.51 38.61 L 71.48 38.83 L 71.46 38.98 L 71.38 39.04 L 71.25 38.93 L 71.15 38.81 L 71.02 38.67 L 70.91 38.58 L 70.80 38.45 L 70.72 38.31 L 70.72 38.23 L 70.76 38.16"/><path d="M 67.30 40.15 L 67.74 39.15 L 68.33 38.21 L 68.37 37.51 L 69.01 37.39 L 69.24 37.78 L 69.01 38.30 L 68.71 39.26 L 68.12 39.97 L 67.71 40.41 L 67.76 41.47 L 67.94 42.22 L 68.12 42.97 L 68.55 44.20 L 68.69 44.86 L 68.30 46.40 L 68.02 46.53 L 67.76 46.31 L 67.90 43.85 L 67.78 42.67 L 67.51 41.38 L 67.35 40.49 L 67.30 40.15"/><path d="M 50.12 28.31 L 48.87 28.29 L 48.90 28.56 L 50.10 28.55 L 50.08 29.55 L 50.61 29.56 L 51.12 29.46 L 51.47 29.66 L 51.71 29.83 L 52.11 30.32 L 52.55 30.75 L 54.51 29.78 L 55.77 29.82 L 55.54 28.20 L 52.82 28.20 L 51.46 28.18 L 50.12 28.31"/><path d="M 44.97 50.84 L 44.92 50.87 L 44.94 50.91 L 44.51 51.11 L 44.49 51.07 L 44.42 51.11 L 44.38 51.15 L 44.36 51.20 L 44.34 51.25 L 44.34 51.31 L 45.16 50.93 L 45.13 50.89 L 45.08 50.86 L 45.03 50.85 L 44.97 50.84"/><path d="M 63.89 53.93 L 63.72 53.93 L 62.50 53.47 L 62.37 53.36 L 62.06 53.46 L 61.76 53.62 L 61.81 53.87 L 61.93 54.00 L 62.06 53.91 L 62.19 53.70 L 62.31 53.68 L 63.03 53.82 L 63.09 53.93 L 63.20 54.37 L 63.40 54.44 L 63.63 54.36 L 63.98 54.16 L 63.96 54.02 L 63.89 53.93"/><path d="M 62.07 64.94 L 62.30 65.01 L 61.96 66.69 L 61.77 66.80 L 61.60 66.88 L 61.58 66.60 L 61.68 66.04 L 61.92 65.47 L 62.07 64.94"/><path d="M 39.78 65.56 L 40.27 65.54 L 40.42 65.68 L 40.52 65.79 L 40.57 65.92 L 40.57 66.06 L 40.57 66.24 L 40.55 66.39 L 40.46 66.50 L 40.36 66.59 L 40.29 66.63 L 40.03 66.62 L 39.85 66.42 L 39.68 66.23 L 39.61 66.15 L 39.58 65.97 L 39.68 65.86 L 39.74 65.77 L 39.78 65.67 L 39.78 65.56"/><path d="M 24.48 64.56 L 23.97 64.85 L 24.14 65.14 L 24.66 64.86 L 24.48 64.56"/><path d="M 21.24 60.25 L 21.26 60.24 L 21.34 60.19 L 21.67 60.00 L 21.82 60.26 L 21.50 60.44 L 21.41 60.49 L 21.39 60.50 L 21.24 60.25"/><path d="M 14.44 44.73 L 15.56 44.45 L 16.02 44.36 L 17.03 44.14 L 17.27 44.11 L 17.78 44.05 L 17.88 43.96 L 17.90 43.87 L 17.57 43.81 L 17.15 43.80 L 16.63 43.82 L 15.57 43.85 L 14.52 43.89 L 12.35 44.09 L 9.73 44.38 L 9.49 44.60 L 9.65 44.67 L 10.08 44.68 L 10.74 44.70 L 12.01 44.71 L 13.19 44.73 L 14.44 44.73"/><path d="M 21.38 49.45 L 21.64 49.55 L 21.62 49.60 L 21.33 49.54 L 21.38 49.45"/><path d="M 76.86 75.05 L 77.11 74.53 L 77.40 74.39 L 77.23 73.84 L 77.57 73.39 L 77.72 72.99 L 78.29 72.75 L 78.55 72.55 L 78.47 71.96 L 78.29 71.41 L 78.04 71.15 L 77.75 71.34 L 77.48 71.50 L 77.28 71.56 L 77.12 71.71 L 76.96 71.78 L 76.76 71.79 L 76.61 71.82 L 76.32 71.94 L 75.86 72.08 L 75.60 72.14 L 75.15 72.35 L 74.86 72.42 L 74.76 72.46 L 74.72 72.49 L 74.70 72.51 L 74.68 72.54 L 74.66 72.61 L 74.51 72.74 L 74.49 72.74 L 74.47 72.73 L 74.44 72.71 L 74.41 72.66 L 74.30 72.57 L 74.17 72.48 L 74.04 72.41 L 74.02 72.40 L 73.98 72.40 L 73.94 72.42 L 73.79 72.48 L 73.73 72.50 L 73.69 72.53 L 73.68 72.56 L 73.65 72.64 L 73.58 72.71 L 73.49 72.75 L 73.26 72.95 L 73.04 73.15 L 72.88 73.24 L 72.75 73.36 L 72.70 73.44 L 72.72 73.53 L 72.74 73.60 L 72.80 73.66 L 73.00 73.74 L 73.17 73.77 L 73.27 73.82 L 73.30 73.90 L 73.34 73.95 L 73.43 74.01 L 73.53 74.04 L 73.98 74.14 L 74.42 74.18 L 74.99 74.28 L 75.44 74.46 L 75.89 74.65 L 76.16 74.70 L 76.68 74.85 L 76.86 75.05"/><path d="M 14.45 33.68 L 14.36 33.68 L 14.35 29.55 L 14.38 29.28 L 14.54 29.00 L 14.54 28.12 L 14.59 28.02 L 14.67 28.05 L 14.74 28.25 L 14.45 33.68"/><path d="M 55.19 27.75 L 55.48 27.73 L 55.15 25.95 L 54.48 23.57 L 53.78 20.80 L 53.75 19.91 L 53.28 19.89 L 53.34 20.83 L 53.51 21.52 L 54.14 24.01 L 54.73 25.96 L 55.19 27.75"/><path d="M 64.09 62.30 L 64.20 62.06 L 64.21 61.96 L 64.17 61.84 L 64.09 61.77 L 63.94 61.99 L 63.79 62.17 L 63.67 62.12 L 63.60 62.19 L 63.63 62.42 L 63.78 62.54 L 63.95 62.36 L 64.09 62.30"/><path d="M 22.46 43.12 L 22.44 43.09 L 22.46 43.04 L 22.58 42.96 L 22.77 42.86 L 23.00 42.77 L 23.22 42.70 L 23.41 42.67 L 23.60 42.64 L 23.82 42.63 L 23.82 42.65 L 23.69 42.70 L 23.57 42.76 L 23.44 42.84 L 23.31 42.93 L 23.19 43.04 L 22.66 43.54 L 22.69 43.57 L 22.50 43.76 L 22.47 43.77 L 22.45 43.76 L 22.44 43.74 L 22.43 43.71 L 22.44 43.14 L 22.46 43.12"/><path d="M 67.58 43.33 L 67.57 44.28 L 67.56 46.78 L 67.38 46.92 L 67.14 46.90 L 66.35 46.59 L 66.07 46.51 L 66.23 43.50 L 66.63 43.33 L 67.16 43.31 L 67.58 43.33"/><path d="M 82.87 42.02 L 82.85 41.98 L 82.80 41.96 L 82.76 41.98 L 82.73 42.01 L 82.70 42.14 L 82.63 42.35 L 82.57 42.47 L 82.63 42.52 L 82.78 42.40 L 82.86 42.33 L 82.89 42.26 L 82.87 42.02"/><path d="M 30.22 30.01 L 30.30 30.01 L 30.35 30.07 L 30.36 30.14 L 30.30 30.20 L 30.22 30.20 L 30.16 30.15 L 30.16 30.07 L 30.22 30.01"/><path d="M 27.68 55.95 L 27.68 55.88 L 27.64 55.88 L 27.48 55.56 L 27.52 55.54 L 27.54 55.54 L 27.41 55.27 L 26.80 54.92 L 26.67 54.93 L 26.58 54.93 L 26.94 55.17 L 27.14 55.30 L 27.35 55.52 L 27.42 55.75 L 27.50 55.91 L 27.68 55.95"/><path d="M 40.42 28.72 L 40.57 28.72 L 40.57 28.54 L 40.56 28.49 L 40.53 28.44 L 40.48 28.43 L 40.43 28.45 L 40.42 28.54 L 40.42 28.72"/><path d="M 40.41 28.87 L 40.57 28.87 L 40.57 29.07 L 40.56 29.19 L 40.54 29.22 L 40.51 29.24 L 40.48 29.21 L 40.43 29.16 L 40.41 29.07 L 40.41 28.87"/><path d="M 38.81 30.65 L 38.80 30.86 L 38.75 30.86 L 38.75 30.80 L 38.76 30.73 L 38.76 30.66 L 38.76 30.65 L 38.81 30.65"/><path d="M 38.76 30.55 L 38.76 30.48 L 38.76 30.44 L 38.81 30.44 L 38.81 30.65 L 38.76 30.65 L 38.76 30.59 L 38.76 30.55"/><path d="M 38.81 30.23 L 38.81 30.44 L 38.76 30.44 L 38.76 30.41 L 38.76 30.34 L 38.76 30.27 L 38.76 30.23 L 38.81 30.23"/><path d="M 38.77 30.06 L 38.77 30.03 L 38.82 30.03 L 38.81 30.23 L 38.76 30.23 L 38.76 30.20 L 38.77 30.13 L 38.77 30.06"/><path d="M 38.77 30.00 L 38.77 29.93 L 38.77 29.86 L 38.77 29.83 L 38.82 29.84 L 38.82 30.03 L 38.77 30.03 L 38.77 30.00"/><path d="M 38.77 29.73 L 38.77 29.65 L 38.82 29.65 L 38.82 29.84 L 38.77 29.83 L 38.77 29.79 L 38.77 29.73"/><path d="M 38.78 29.56 L 38.73 29.56 L 38.73 29.51 L 38.83 29.51 L 38.82 29.65 L 38.77 29.65 L 38.78 29.56"/><path d="M 38.61 29.56 L 38.54 29.55 L 38.51 29.55 L 38.51 29.51 L 38.73 29.51 L 38.73 29.56 L 38.61 29.56"/><path d="M 38.48 29.55 L 38.41 29.55 L 38.34 29.55 L 38.28 29.55 L 38.28 29.50 L 38.51 29.51 L 38.51 29.55 L 38.48 29.55"/><path d="M 38.28 29.46 L 38.32 29.46 L 38.39 29.46 L 38.46 29.46 L 38.53 29.46 L 38.60 29.47 L 38.67 29.47 L 38.74 29.47 L 38.81 29.47 L 38.87 29.47 L 38.87 29.54 L 38.87 29.61 L 38.87 29.68 L 38.87 29.75 L 38.87 29.81 L 38.87 29.88 L 38.87 29.95 L 38.86 30.02 L 38.86 30.09 L 38.86 30.16 L 38.86 30.23 L 38.86 30.30 L 38.86 30.37 L 38.86 30.43 L 38.86 30.50 L 38.85 30.57 L 38.85 30.64 L 38.85 30.71 L 38.85 30.78 L 38.85 30.85 L 38.85 30.86 L 38.80 30.86 L 38.81 30.65 L 38.81 30.44 L 38.81 30.23 L 38.82 30.03 L 38.82 29.84 L 38.82 29.65 L 38.83 29.51 L 38.73 29.51 L 38.51 29.51 L 38.28 29.50 L 38.28 29.46"/><path d="M 37.87 29.46 L 37.91 29.45 L 37.92 29.29 L 37.90 29.29 L 37.89 29.30 L 37.88 29.32 L 37.87 29.33 L 37.87 29.46"/><path d="M 37.74 30.12 L 37.71 30.12 L 37.71 29.95 L 37.75 29.95 L 37.74 30.12"/><path d="M 38.76 30.55 L 38.60 30.55 L 38.60 30.59 L 38.76 30.59 L 38.76 30.55"/><path d="M 38.77 30.00 L 38.61 30.00 L 38.60 30.06 L 38.77 30.06 L 38.77 30.03 L 38.77 30.00"/><path d="M 38.61 29.56 L 38.61 29.72 L 38.77 29.73 L 38.77 29.65 L 38.78 29.56 L 38.73 29.56 L 38.61 29.56"/><path d="M 38.41 29.55 L 38.41 29.72 L 38.47 29.72 L 38.48 29.55 L 38.41 29.55"/><path d="M 38.15 30.65 L 38.15 30.49 L 38.10 30.49 L 38.10 30.65 L 38.15 30.65"/><path d="M 37.80 30.65 L 37.79 30.81 L 37.83 30.81 L 37.83 30.65 L 37.82 30.65 L 37.80 30.65"/><path d="M 38.33 30.13 L 38.32 30.29 L 38.36 30.29 L 38.36 30.13 L 38.33 30.13"/><path d="M 38.65 31.23 L 38.65 31.12 L 38.55 31.11 L 38.55 31.23 L 38.65 31.23"/><path d="M 38.27 31.21 L 38.37 31.21 L 38.37 31.07 L 38.27 31.06 L 38.27 31.21"/><path d="M 37.66 31.21 L 37.55 31.21 L 37.55 31.09 L 37.67 31.10 L 37.66 31.21"/><path d="M 37.36 30.69 L 37.36 30.79 L 37.24 30.79 L 37.24 30.69 L 37.36 30.69"/><path d="M 37.35 30.54 L 37.35 30.64 L 37.24 30.64 L 37.24 30.54 L 37.35 30.54"/><path d="M 37.26 30.07 L 37.37 30.07 L 37.37 30.18 L 37.26 30.17 L 37.26 30.07"/><path d="M 36.38 31.95 L 36.17 31.95 L 36.18 31.67 L 36.14 31.67 L 36.20 28.31 L 36.30 28.31 L 36.30 28.46 L 36.30 28.58 L 36.32 28.69 L 36.36 28.79 L 36.42 28.89 L 36.48 28.96 L 36.55 29.01 L 36.62 29.03 L 36.70 29.06 L 36.76 29.06 L 37.13 29.07 L 37.13 29.18 L 36.36 29.17 L 36.32 31.54 L 36.39 31.54 L 36.39 31.55 L 36.38 31.95"/><path d="M 38.74 31.37 L 38.83 31.37 L 38.82 31.83 L 37.84 31.81 L 37.89 31.90 L 37.89 31.98 L 39.23 32.00 L 39.22 31.96 L 39.21 31.94 L 39.22 31.90 L 39.23 31.86 L 39.23 31.83 L 39.23 31.80 L 39.22 31.78 L 39.21 31.75 L 39.19 31.71 L 39.14 31.66 L 39.09 31.62 L 39.07 31.59 L 39.05 31.52 L 39.03 31.48 L 39.01 31.44 L 38.97 31.39 L 38.95 31.36 L 38.92 31.34 L 38.88 31.32 L 38.85 31.31 L 38.80 31.30 L 38.74 31.30 L 38.74 31.37"/><path d="M 37.80 31.81 L 36.87 31.80 L 36.88 31.55 L 36.47 31.55 L 36.47 31.56 L 36.46 31.95 L 37.85 31.97 L 37.85 31.91 L 37.80 31.81"/><path d="M 38.75 31.25 L 38.85 31.25 L 38.90 31.26 L 38.95 31.28 L 38.98 31.30 L 39.05 31.42 L 39.08 31.50 L 39.13 31.59 L 39.17 31.63 L 39.22 31.67 L 39.26 31.72 L 39.28 31.77 L 39.29 31.81 L 39.29 31.86 L 39.27 31.90 L 39.27 31.92 L 39.27 31.95 L 39.28 31.98 L 39.30 32.01 L 39.37 32.01 L 39.37 31.84 L 39.36 31.79 L 39.35 31.74 L 39.34 31.70 L 39.31 31.66 L 39.23 31.56 L 39.14 31.46 L 39.10 31.40 L 39.07 31.36 L 39.05 31.31 L 39.00 31.23 L 38.99 31.21 L 38.98 31.20 L 38.97 31.18 L 38.96 31.17 L 38.94 31.16 L 38.92 31.15 L 38.90 31.15 L 38.88 31.15 L 38.75 31.15 L 38.75 31.25"/><path d="M 37.44 29.53 L 37.67 29.54 L 37.67 29.45 L 37.44 29.44 L 37.44 29.53"/><path d="M 37.17 29.53 L 37.17 29.44 L 37.36 29.44 L 37.36 29.53 L 37.17 29.53"/><path d="M 21.67 33.43 L 21.66 33.48 L 21.67 33.51 L 21.70 33.54 L 21.75 33.55 L 21.78 33.56 L 21.81 33.56 L 21.84 33.55 L 21.86 33.54 L 21.89 33.52 L 21.93 33.52 L 21.97 33.51 L 21.99 33.49 L 22.00 33.47 L 22.00 33.45 L 22.00 33.43 L 21.80 33.43 L 21.67 33.43"/><path d="M 22.18 33.58 L 22.15 33.57 L 22.11 33.57 L 22.09 33.57 L 22.07 33.58 L 22.05 33.59 L 22.05 33.61 L 22.05 33.63 L 22.04 33.67 L 22.03 33.69 L 22.02 33.71 L 22.00 33.72 L 21.98 33.75 L 21.98 33.76 L 21.98 33.79 L 22.00 33.81 L 22.03 33.83 L 22.06 33.85 L 22.10 33.89 L 22.11 33.91 L 22.14 33.93 L 22.18 33.93 L 22.18 33.58"/><path d="M 21.54 33.43 L 21.36 33.43 L 21.36 34.24 L 22.17 34.25 L 22.18 33.97 L 22.14 33.97 L 22.12 33.99 L 22.10 34.02 L 22.09 34.05 L 22.09 34.07 L 22.09 34.10 L 22.10 34.12 L 22.10 34.15 L 22.09 34.17 L 22.06 34.20 L 22.03 34.21 L 22.00 34.21 L 21.96 34.20 L 21.94 34.19 L 21.90 34.19 L 21.86 34.21 L 21.81 34.21 L 21.76 34.21 L 21.72 34.20 L 21.69 34.19 L 21.64 34.19 L 21.61 34.20 L 21.59 34.21 L 21.58 34.21 L 21.57 34.21 L 21.55 34.21 L 21.54 34.21 L 21.52 34.20 L 21.51 34.20 L 21.50 34.19 L 21.49 34.19 L 21.47 34.18 L 21.43 34.15 L 21.41 34.12 L 21.39 34.11 L 21.39 34.08 L 21.38 34.06 L 21.39 34.03 L 21.39 34.01 L 21.40 33.99 L 21.42 33.95 L 21.45 33.89 L 21.46 33.86 L 21.46 33.82 L 21.46 33.78 L 21.45 33.75 L 21.43 33.71 L 21.42 33.67 L 21.41 33.63 L 21.41 33.58 L 21.45 33.53 L 21.48 33.51 L 21.51 33.49 L 21.53 33.48 L 21.54 33.47 L 21.54 33.45 L 21.54 33.43"/><path d="M 23.89 42.96 L 23.79 43.27 L 23.41 44.18 L 23.46 44.20 L 23.36 44.41 L 23.26 44.58 L 23.24 44.38 L 23.23 44.24 L 23.22 44.17 L 23.22 44.09 L 23.21 43.81 L 23.23 43.67 L 23.26 43.53 L 23.33 43.39 L 23.40 43.29 L 23.51 43.17 L 23.62 43.08 L 23.76 43.01 L 23.89 42.96"/><path d="M 22.92 43.62 L 22.91 43.81 L 22.91 43.96 L 22.88 43.96 L 22.88 44.03 L 22.91 44.03 L 22.92 44.17 L 22.93 44.34 L 22.92 44.36 L 22.90 44.38 L 22.88 44.37 L 22.84 44.35 L 22.78 44.32 L 22.69 44.29 L 22.47 44.22 L 22.44 44.20 L 22.42 44.17 L 22.41 44.13 L 22.42 44.10 L 22.44 44.05 L 22.45 44.04 L 22.49 43.99 L 22.91 43.62 L 22.92 43.62"/><path d="M 64.93 47.63 L 65.32 47.39 L 65.60 47.22 L 65.61 47.05 L 65.64 46.28 L 65.66 46.10 L 65.73 45.97 L 65.83 45.82 L 65.88 45.55 L 65.91 45.18 L 65.94 44.69 L 65.96 44.23 L 65.96 43.83 L 65.95 43.51 L 66.02 43.09 L 66.08 42.76 L 66.18 42.38 L 66.26 42.18 L 66.37 42.04 L 66.54 41.63 L 66.62 41.36 L 66.63 41.26 L 66.62 41.16 L 66.54 40.99 L 66.43 40.81 L 66.32 40.61 L 66.23 40.40 L 66.19 40.28 L 66.18 40.17 L 66.19 39.76 L 66.27 39.33 L 66.43 38.79 L 66.64 38.31 L 66.79 37.87 L 66.81 37.72 L 66.83 37.57 L 66.86 37.11 L 66.87 37.03 L 66.85 36.95 L 66.80 36.90 L 66.74 36.88 L 66.69 36.85 L 66.63 36.80 L 66.59 36.73 L 66.55 36.63 L 66.56 36.54 L 66.58 36.46 L 66.61 36.40 L 66.66 36.36 L 66.75 36.34 L 66.85 36.33 L 66.92 36.30 L 66.96 36.25 L 66.99 36.16 L 67.04 36.08 L 67.11 36.00 L 67.35 35.89 L 67.45 35.86 L 67.53 35.82 L 67.83 35.62 L 67.94 35.50 L 68.04 35.37 L 68.06 35.22 L 67.98 35.08 L 67.95 35.13 L 67.16 35.64 L 66.74 35.97 L 66.60 36.08 L 66.49 36.21 L 66.43 36.28 L 66.40 36.36 L 66.36 36.47 L 66.36 36.61 L 66.40 36.82 L 66.47 37.04 L 66.52 37.13 L 66.55 37.24 L 66.54 37.34 L 66.51 37.49 L 66.24 38.29 L 66.00 39.09 L 65.95 39.41 L 65.92 39.74 L 65.91 40.13 L 65.93 40.40 L 65.98 40.60 L 66.04 40.74 L 66.12 40.87 L 66.30 41.07 L 66.34 41.17 L 66.36 41.26 L 66.36 41.35 L 66.31 41.46 L 66.14 41.70 L 65.98 42.01 L 65.98 42.20 L 65.96 42.40 L 65.82 42.58 L 65.70 43.18 L 65.64 44.13 L 65.38 46.01 L 65.18 46.81 L 64.93 47.63"/><path d="M 83.66 42.18 L 83.64 42.14 L 83.60 42.12 L 83.55 42.14 L 83.53 42.17 L 83.54 42.46 L 83.43 42.51 L 83.48 42.69 L 83.44 42.81 L 83.66 43.00 L 83.82 43.08 L 83.99 42.92 L 83.92 42.65 L 83.66 42.18"/><path d="M 49.42 58.67 L 49.47 58.60 L 49.65 58.49 L 49.95 58.28 L 50.21 58.10 L 50.50 57.90 L 50.60 57.70 L 50.75 57.64 L 50.86 57.70 L 50.80 57.84 L 50.40 58.14 L 49.93 58.43 L 49.53 58.64 L 49.42 58.67"/><path d="M 45.16 59.13 L 45.21 58.93 L 45.64 59.07 L 46.16 59.18 L 46.51 59.23 L 46.50 59.26 L 45.97 59.22 L 45.60 59.17 L 45.60 59.23 L 45.41 59.17 L 45.16 59.13"/><path d="M 25.68 53.65 L 25.79 53.54 L 25.84 53.60 L 25.94 53.50 L 26.02 53.64 L 26.11 53.77 L 26.24 53.94 L 26.35 54.07 L 26.48 54.21 L 26.63 54.34 L 26.78 54.46 L 26.95 54.58 L 26.76 54.91 L 26.69 54.91 L 26.64 54.89 L 26.60 54.83 L 26.58 54.76 L 26.53 54.67 L 26.48 54.58 L 26.42 54.47 L 26.30 54.32 L 26.14 54.13 L 25.89 53.88 L 25.68 53.65"/><path d="M 27.67 55.84 L 27.68 55.88 L 27.79 55.87 L 28.00 55.82 L 27.95 55.71 L 27.71 55.80 L 27.72 55.81 L 27.70 55.83 L 27.67 55.84"/><path d="M 28.13 55.66 L 28.19 55.80 L 28.39 55.76 L 28.65 55.78 L 28.83 55.80 L 28.99 55.84 L 29.14 55.90 L 29.27 55.96 L 29.35 56.02 L 29.47 56.15 L 29.51 56.15 L 29.53 56.17 L 29.61 56.23 L 29.61 56.26 L 29.73 56.27 L 29.71 56.23 L 29.66 56.15 L 29.60 56.07 L 29.54 56.01 L 29.49 55.95 L 29.43 55.91 L 29.36 55.86 L 29.26 55.79 L 29.17 55.75 L 29.09 55.71 L 28.98 55.68 L 28.85 55.66 L 28.71 55.63 L 28.60 55.62 L 28.49 55.62 L 28.31 55.63 L 28.13 55.66"/><path d="M 27.94 55.26 L 28.09 55.59 L 28.19 55.57 L 28.33 55.55 L 28.46 55.55 L 28.46 55.51 L 28.57 55.51 L 28.57 55.55 L 28.68 55.55 L 28.75 55.56 L 28.83 55.58 L 28.93 55.60 L 28.95 55.56 L 29.04 55.59 L 29.03 55.63 L 29.18 55.66 L 29.30 55.67 L 29.41 55.67 L 29.50 55.67 L 29.59 55.65 L 29.69 55.63 L 29.76 55.61 L 29.87 55.58 L 29.76 55.52 L 29.73 55.57 L 29.56 55.48 L 29.59 55.42 L 29.31 55.28 L 29.19 55.32 L 29.04 55.35 L 28.89 55.36 L 28.77 55.35 L 28.57 55.30 L 28.43 55.28 L 28.24 55.24 L 28.12 55.24 L 28.03 55.24 L 27.94 55.26"/><path d="M 27.68 55.88 L 27.68 55.95 L 27.71 56.03 L 28.12 56.06 L 28.32 56.04 L 28.46 56.02 L 28.73 56.03 L 28.87 56.05 L 29.02 56.08 L 29.18 56.12 L 29.39 56.21 L 29.46 56.24 L 29.46 56.20 L 29.48 56.18 L 29.53 56.17 L 29.51 56.15 L 29.47 56.15 L 29.35 56.02 L 29.27 55.96 L 29.14 55.90 L 28.99 55.84 L 28.83 55.80 L 28.65 55.78 L 28.39 55.76 L 28.19 55.80 L 28.00 55.82 L 27.79 55.87 L 27.68 55.88"/><path d="M 66.64 48.07 L 66.70 48.05 L 67.14 48.06 L 67.28 47.96 L 67.47 47.63 L 67.56 47.26 L 67.85 46.84 L 68.12 47.07 L 68.39 47.03 L 68.68 46.72 L 68.83 46.57 L 69.07 46.69 L 69.43 46.65 L 69.79 46.59 L 70.41 46.52 L 70.60 46.62 L 70.66 46.91 L 70.73 47.37 L 70.60 47.68 L 70.26 47.94 L 69.70 48.15 L 69.47 48.24 L 69.29 48.31 L 69.10 48.42 L 69.04 48.48 L 68.95 48.51 L 68.74 48.51 L 68.57 48.54 L 68.42 48.53 L 68.35 48.19 L 68.09 48.23 L 67.87 48.24 L 67.60 48.20 L 67.55 48.18 L 67.51 48.16 L 67.44 48.16 L 67.38 48.14 L 67.33 48.16 L 67.28 48.19 L 67.18 48.22 L 67.09 48.21 L 66.91 48.15 L 66.64 48.07"/><path d="M 76.53 46.30 L 76.45 46.22 L 76.41 46.13 L 76.41 45.98 L 76.45 45.80 L 76.55 45.58 L 76.60 45.46 L 76.66 45.37 L 76.75 45.31 L 76.84 45.31 L 76.95 45.33 L 77.09 45.38 L 77.17 45.46 L 77.23 45.54 L 77.37 45.70 L 77.48 45.89 L 77.53 45.98 L 77.56 46.08 L 77.61 46.18 L 77.61 46.28 L 77.57 46.36 L 77.52 46.41 L 77.41 46.44 L 77.30 46.51 L 77.19 46.52 L 77.04 46.49 L 76.88 46.41 L 76.70 46.37 L 76.61 46.35 L 76.53 46.30"/><path d="M 78.89 74.69 L 78.81 74.38 L 79.09 73.95 L 79.39 73.78 L 79.62 73.37 L 79.49 72.73 L 79.38 72.34 L 79.60 72.05 L 79.85 71.95 L 79.60 71.69 L 79.35 71.05 L 79.58 70.67 L 80.19 71.17 L 80.63 71.67 L 80.66 72.82 L 80.68 74.23 L 80.20 74.31 L 80.08 74.56 L 80.54 74.81 L 80.39 74.99 L 79.59 74.79 L 78.89 74.69"/><path d="M 40.05 29.43 L 40.01 31.66 L 39.90 31.85 L 39.92 33.04 L 40.08 33.35 L 40.08 38.93"/><path d="M 40.68 38.92 L 40.70 38.41 L 40.83 33.13 L 41.15 32.62"/><path d="M 40.84 31.65 L 40.88 29.50"/><path d="M 47.36 54.52 L 47.87 55.63 L 48.07 56.20 L 48.42 56.95 L 48.74 57.50 L 48.68 57.56 L 48.49 57.60 L 48.46 57.57 L 48.44 57.55 L 47.08 54.62 L 47.08 54.58 L 47.10 54.55 L 47.14 54.52 L 47.19 54.51 L 47.24 54.51 L 47.27 54.50 L 47.30 54.49 L 47.33 54.50 L 47.36 54.52"/><path d="M 39.48 41.31 L 39.48 41.12 L 40.00 41.12 L 40.00 41.32 L 39.48 41.31"/><path d="M 42.22 46.89 L 42.42 46.80 L 42.34 46.62 L 42.45 46.57 L 42.39 46.40 L 42.39 46.38 L 42.36 46.35 L 42.33 46.33 L 42.29 46.31 L 42.06 46.41 L 42.03 46.45 L 42.03 46.48 L 42.04 46.53 L 42.22 46.89"/><path d="M 42.73 46.44 L 42.86 46.39 L 42.94 46.58 L 43.14 46.48 L 42.93 46.06 L 42.89 46.03 L 42.86 46.03 L 42.65 46.13 L 42.63 46.18 L 42.64 46.24 L 42.66 46.29 L 42.73 46.44"/><path d="M 41.68 46.59 L 41.73 46.70 L 41.74 46.71 L 41.75 46.71 L 41.75 46.72 L 41.79 46.70 L 41.82 46.75 L 41.91 46.70 L 41.93 46.73 L 41.94 46.72 L 42.04 46.92 L 42.06 46.91 L 42.23 47.26 L 42.20 47.27 L 42.50 47.91 L 42.52 47.90 L 42.62 48.11 L 42.59 48.12 L 42.62 48.17 L 42.72 48.13 L 41.98 46.54 L 41.95 46.50 L 41.92 46.49 L 41.89 46.48 L 41.68 46.59"/><path d="M 42.41 49.49 L 42.35 49.51 L 42.27 49.53 L 42.16 49.58 L 42.18 49.62 L 42.20 49.60 L 42.25 49.69 L 42.37 49.63 L 42.45 49.81 L 42.53 49.77 L 42.57 49.74 L 42.58 49.70 L 42.51 49.54 L 42.48 49.50 L 42.41 49.49"/><path d="M 42.53 47.04 L 42.48 46.92 L 42.28 47.02 L 42.77 48.10 L 42.83 48.08 L 42.39 47.11 L 42.53 47.04"/><path d="M 43.05 46.79 L 43.00 46.68 L 43.19 46.60 L 43.31 46.82 L 43.50 47.23 L 43.70 47.66 L 43.63 47.69 L 43.21 46.72 L 43.05 46.79"/><path d="M 42.12 49.06 L 42.21 49.24 L 42.22 49.24 L 42.25 49.30 L 43.41 48.75 L 43.40 48.74 L 43.31 48.53 L 43.36 48.50 L 43.23 48.21 L 43.04 48.30 L 42.96 48.33 L 42.98 48.40 L 42.95 48.47 L 42.92 48.51 L 42.88 48.52 L 42.84 48.51 L 42.77 48.54 L 42.79 48.58 L 42.81 48.64 L 42.79 48.65 L 42.83 48.73 L 42.12 49.06"/><path d="M 44.98 48.01 L 44.86 47.77 L 44.14 48.12 L 44.11 48.05 L 44.10 48.06 L 43.98 47.81 L 43.88 47.86 L 43.81 47.93 L 43.59 48.07 L 43.47 48.12 L 43.59 48.39 L 43.71 48.34 L 43.80 48.55 L 43.81 48.56 L 44.98 48.01"/><path d="M 45.67 55.26 L 45.71 55.40 L 45.72 55.49 L 45.71 55.55 L 45.66 55.59 L 45.54 55.60 L 45.43 55.57 L 45.21 55.39 L 45.25 55.29 L 45.33 55.24 L 45.40 55.22 L 45.49 55.21 L 45.62 55.25 L 45.63 55.27 L 45.67 55.26"/><path d="M 42.30 49.40 L 41.87 49.60 L 41.82 49.50 L 41.92 49.45 L 41.93 49.47 L 42.16 49.37 L 42.15 49.34 L 42.25 49.30 L 42.30 49.40"/><path d="M 41.62 49.31 L 41.72 49.52 L 41.75 49.54 L 41.79 49.52 L 41.78 49.49 L 41.76 49.47 L 41.68 49.31 L 41.72 49.29 L 41.71 49.27 L 41.62 49.31"/><path d="M 40.89 46.97 L 41.12 47.44 L 41.15 47.42 L 41.09 47.29 L 41.13 47.27 L 41.06 47.11 L 41.56 46.87 L 41.53 46.82 L 41.57 46.80 L 41.57 46.79 L 41.59 46.78 L 41.58 46.77 L 41.54 46.68 L 41.52 46.67 L 41.47 46.69 L 40.89 46.97"/><path d="M 43.24 46.43 L 43.20 46.45 L 43.00 46.03 L 43.02 45.96 L 43.30 45.82 L 43.33 45.82 L 43.36 45.90 L 43.63 45.78 L 43.67 45.86 L 43.54 45.92 L 43.41 45.94 L 43.32 45.98 L 43.31 46.03 L 43.12 46.12 L 43.14 46.16 L 43.11 46.17 L 43.24 46.43"/><path d="M 44.02 45.70 L 43.94 45.53 L 44.38 45.31 L 44.42 45.31 L 44.45 45.34 L 44.64 45.75 L 44.56 45.78 L 44.52 45.68 L 44.46 45.68 L 44.41 45.65 L 44.35 45.54 L 44.29 45.57 L 44.24 45.55 L 44.14 45.60 L 44.12 45.66 L 44.02 45.70"/><path d="M 42.17 45.21 L 42.41 45.32 L 42.58 45.38 L 42.63 45.35 L 42.62 45.34 L 42.69 45.30 L 42.70 45.32 L 42.85 45.26 L 42.84 45.24 L 42.93 45.20 L 42.94 45.21 L 43.08 45.15 L 43.08 45.13 L 43.16 45.09 L 43.17 45.11 L 43.32 45.04 L 43.31 45.02 L 43.40 44.98 L 43.41 45.00 L 43.56 44.94 L 43.54 44.91 L 43.50 44.92 L 43.47 44.84 L 42.51 45.29 L 42.46 45.27 L 42.36 45.05 L 42.17 45.12 L 42.14 45.14 L 42.17 45.21"/><path d="M 42.67 51.68 L 42.72 51.78 L 42.89 51.71 L 42.85 51.62 L 42.82 51.64 L 42.68 51.35 L 42.11 51.62 L 42.24 51.90 L 42.20 51.92 L 42.23 51.98 L 42.37 51.92 L 42.33 51.84 L 42.27 51.71 L 42.61 51.55 L 42.67 51.68"/><path d="M 42.82 51.83 L 42.78 51.82 L 42.43 51.98 L 42.46 52.05 L 42.41 52.07 L 42.44 52.14 L 42.40 52.15 L 42.51 52.40 L 42.48 52.42 L 42.51 52.47 L 42.46 52.48 L 42.49 52.53 L 42.44 52.55 L 42.46 52.59 L 42.42 52.61 L 42.47 52.74 L 42.51 52.78 L 42.82 51.83"/><path d="M 42.28 52.73 L 42.31 52.80 L 42.40 52.76 L 42.36 52.69 L 42.28 52.73"/><path d="M 39.22 48.76 L 39.23 48.40 L 39.62 48.21 L 39.61 48.20 L 39.60 48.20 L 39.57 48.13 L 39.64 48.10 L 39.95 48.76 L 39.85 48.76 L 39.85 48.69 L 39.39 48.69 L 39.39 48.76 L 39.22 48.76"/><path d="M 42.80 48.49 L 42.73 48.33 L 42.83 48.29 L 42.88 48.27 L 42.90 48.28 L 42.91 48.30 L 42.85 48.33 L 42.83 48.36 L 42.81 48.39 L 42.81 48.43 L 42.83 48.48 L 42.80 48.49"/><path d="M 49.31 52.26 L 49.21 52.24 L 49.41 51.74 L 49.50 51.80 L 49.48 51.82 L 49.45 51.87 L 49.42 51.93 L 49.39 51.99 L 49.37 52.05 L 49.35 52.11 L 49.33 52.18 L 49.32 52.24 L 49.31 52.26"/><path d="M 50.77 51.93 L 50.43 51.89 L 50.69 51.99 L 50.88 52.10 L 51.18 52.28 L 51.17 52.18 L 51.07 52.07 L 50.94 51.98 L 50.77 51.93"/><path d="M 50.32 51.41 L 50.31 51.58 L 50.40 51.58 L 50.44 51.48 L 50.52 51.42 L 50.57 51.42 L 50.61 51.45 L 50.65 51.55 L 50.65 51.66 L 50.83 51.71 L 51.00 51.76 L 51.06 51.72 L 51.09 51.65 L 51.07 51.54 L 51.11 51.45 L 51.12 51.33 L 50.47 51.31 L 50.47 51.43 L 50.32 51.41"/><path d="M 50.42 51.64 L 50.31 51.65 L 50.30 51.67 L 50.43 51.71 L 50.57 51.75 L 50.70 51.76 L 50.63 51.72 L 50.58 51.66 L 50.57 51.58 L 50.56 51.53 L 50.56 51.50 L 50.54 51.47 L 50.51 51.48 L 50.49 51.51 L 50.46 51.62 L 50.42 51.64"/><path d="M 51.23 51.86 L 51.27 51.96 L 51.37 52.03 L 51.38 51.91 L 51.37 51.88 L 51.32 51.86 L 51.23 51.86"/><path d="M 51.53 53.45 L 51.51 53.52 L 51.62 53.57 L 51.72 53.59 L 51.82 53.56 L 51.53 53.45"/><path d="M 42.73 54.02 L 42.76 54.08 L 42.96 54.07 L 42.99 54.01 L 43.23 54.04 L 43.24 53.95 L 43.22 53.91 L 43.16 53.89 L 43.07 53.91 L 42.97 53.94 L 42.90 53.90 L 42.91 53.77 L 42.92 53.62 L 42.83 53.66 L 42.82 53.97 L 42.73 54.02"/><path d="M 46.97 57.26 L 47.19 57.76 L 47.15 58.00 L 46.96 57.98 L 46.90 57.72 L 46.77 57.37 L 46.97 57.26"/><path d="M 46.97 57.06 L 46.90 57.18 L 47.06 57.20 L 46.97 57.06"/><path d="M 45.93 55.14 L 45.85 55.30 L 45.96 55.71 L 46.19 56.00 L 46.29 56.34 L 46.44 56.71 L 46.58 57.08 L 46.65 57.28 L 46.80 57.14 L 46.85 56.98 L 46.07 55.17 L 46.01 55.10 L 45.93 55.14"/><path d="M 40.06 38.71 L 39.91 38.67 L 40.05 38.60 L 40.06 38.71"/><path d="M 50.47 72.14 L 50.48 72.38 L 50.49 72.63 L 50.51 72.86 L 50.52 73.09 L 50.52 73.34 L 50.52 73.58 L 50.52 73.83"/><path d="M 49.82 51.64 L 49.90 51.68 L 50.05 51.76 L 50.04 51.81 L 49.78 51.79 L 49.82 51.64"/><path d="M 53.98 52.47 L 54.08 51.97 L 54.13 51.73 L 54.18 51.48 L 54.23 51.23 L 54.28 50.98 L 54.33 50.73 L 54.38 50.48 L 54.43 50.23 L 54.48 49.98 L 54.53 49.73 L 54.58 49.48"/><path d="M 56.61 41.33 L 58.28 41.66 L 58.27 41.71 L 56.60 41.37 L 56.61 41.33"/><path d="M 58.48 41.70 L 60.61 42.12 L 60.60 42.16 L 58.47 41.74 L 58.48 41.70"/><path d="M 62.17 35.03 L 62.04 35.10 L 60.51 32.17 L 60.64 32.10 L 62.17 35.03"/><path d="M 57.50 37.87 L 58.98 38.16 L 58.97 38.21 L 57.49 37.91 L 57.50 37.87"/><path d="M 59.18 38.21 L 61.44 38.66 L 61.43 38.71 L 59.17 38.26 L 59.18 38.21"/></g></g></g></svg>