<svg baseProfile="tiny" height="150mm" version="1.2" viewBox="0 0 100 100" width="150mm" xmlns="http://www.w3.org/2000/svg" style="-webkit-tap-highlight-color: rgba(0, 0, 0, 0);"><rect x="-10000" y="-10000" width="20000" height="20000" fill="rgb(220,220,220)"/><g id="zoom-group" transform="translate(-72.69306243549372,-77.60449340991572) scale(2.297396709994071)"><g id="drag-group" transform="translate(12.105949401855469, 5.341167449951172)" style="touch-action: none; -webkit-tap-highlight-color: rgba(0, 0, 0, 0);"><g fill="none" stroke="#555555" stroke-linecap="round" stroke-linejoin="round" class="zoomable-line" style="stroke-width: 0.17411;"><path d="M 76.63 26.42 L 77.34 26.79 L 78.39 27.22 L 78.74 27.32 L 79.16 27.43 L 79.87 27.57 L 80.48 27.61 L 80.89 27.61 L 81.22 27.59 L 81.59 27.54 L 82.55 27.30 L 83.07 27.09 L 83.72 26.76 L 83.79 26.73 L 83.87 26.66 L 84.24 26.38 L 84.62 26.06 L 84.75 25.94 L 84.97 25.73 L 85.29 25.35 L 85.58 24.96 L 85.73 24.61 L 85.76 24.56 L 86.07 23.93 L 86.50 22.92 L 86.70 22.30 L 86.77 21.91 L 87.07 20.42 L 87.20 19.40 L 87.30 18.68 L 87.33 18.47"/><path d="M 14.46 45.39 L 15.65 45.04"/><path d="M 7.93 69.98 L 8.45 69.04 L 8.66 68.66 L 9.35 67.41 L 9.83 66.52 L 9.89 66.41 L 10.21 65.80 L 10.38 65.44 L 10.55 65.08 L 10.89 64.05 L 11.08 63.69 L 11.22 63.42 L 11.96 62.03 L 13.03 60.05 L 13.37 59.41"/><path d="M 4.10 209.23 L 3.92 208.51 L 3.64 207.83 L 3.26 207.19 L 2.78 206.63 L -0.73 203.12 L -0.98 202.86 L -1.22 202.57 L -1.43 202.27 L -3.30 199.21 L -3.40 199.05 L -3.76 198.37 L -10.22 187.87 L -10.77 187.08 L -12.45 184.37 L -12.61 184.10 L -13.04 183.31 L -16.00 178.54 L -16.12 178.34 L -16.21 178.13 L -16.28 177.91 L -16.32 177.68 L -16.33 177.45 L -16.32 177.22 L -16.27 176.99 L -16.20 176.77 L -16.11 176.56 L -15.99 176.36 L -15.84 176.18 L -15.68 176.01 L -15.49 175.87 L -11.63 173.49 L -10.71 172.92 L -9.69 172.21 L -7.24 170.69 L -3.72 168.50 L -3.41 168.32 L -3.09 168.16 L -2.75 168.04 L -2.41 167.94 L -2.06 167.86 L -1.71 167.82 L -1.35 167.81 L -0.99 167.82 L -0.64 167.86 L -0.29 167.93 L 3.45 168.78 L 3.86 168.87 L 4.45 168.96 L 4.98 169.04 L 5.60 169.10 L 6.14 169.14 L 6.91 169.14 L 7.77 169.10 L 8.59 168.99 L 9.45 168.82 L 10.34 168.59 L 11.23 168.27 L 11.98 167.98 L 12.66 167.63 L 13.23 167.31 L 13.88 166.92 L 14.57 166.42 L 15.13 165.96 L 15.69 165.46 L 16.22 164.91 L 16.70 164.36 L 17.18 163.74 L 17.71 162.94 L 18.16 162.19 L 18.54 161.43 L 18.81 160.77 L 19.05 160.13 L 19.30 159.33 L 19.49 158.48 L 19.65 157.44 L 19.73 156.42 L 19.73 155.41 L 19.69 152.70 L 19.69 152.28 L 19.66 150.31 L 19.66 149.71 L 19.67 148.97 L 19.71 148.24 L 19.76 147.44 L 19.87 146.51 L 20.00 145.76 L 20.20 144.79 L 20.44 143.83 L 20.82 142.63 L 21.25 141.52 L 21.72 140.45 L 22.32 139.29 L 24.99 134.46 L 31.72 122.26 L 35.12 116.12 L 38.49 110.01 L 42.58 102.61 L 43.65 100.66 L 44.44 99.24 L 45.13 97.91 L 45.89 96.33 L 46.53 94.94 L 47.10 93.61 L 47.61 92.37 L 48.06 91.24 L 48.88 88.96 L 49.42 87.29 L 49.74 86.19 L 50.11 84.92 L 50.47 83.56 L 50.96 81.42 L 51.24 80.12 L 51.51 78.59 L 51.76 77.10 L 51.86 76.36 L 51.92 75.94 L 51.98 75.52 L 52.14 74.14 L 52.29 72.62 L 52.40 71.18 L 52.49 69.55 L 52.48 67.67 L 52.43 65.92 L 52.42 65.17 L 52.39 63.59"/><path d="M 9.19 46.94 L 10.80 46.46 L 10.92 46.43 L 11.09 46.37 L 11.88 46.14 L 13.40 45.71 L 14.46 45.39"/><path d="M 52.30 59.54 L 52.29 58.37 L 52.27 57.17 L 52.25 55.97 L 52.22 54.77 L 52.20 53.57 L 52.15 52.37 L 52.00 51.19 L 51.75 50.05 L 51.41 48.97 L 50.99 47.94 L 50.50 46.99 L 49.95 46.11 L 49.35 45.30 L 48.71 44.56 L 48.04 43.89 L 47.34 43.29 L 46.90 42.98 L 46.62 42.75 L 46.42 42.63 L 45.88 42.27 L 45.12 41.85 L 44.35 41.49 L 43.57 41.19 L 42.78 40.94 L 41.98 40.73 L 41.18 40.56 L 40.38 40.38 L 39.58 40.21 L 38.78 40.04 L 37.98 39.86 L 37.18 39.69 L 36.38 39.49 L 35.60 39.20 L 34.84 38.79 L 34.11 38.27 L 33.43 37.62 L 32.82 36.84 L 32.31 35.91 L 31.93 34.85 L 31.74 33.68 L 31.73 32.48 L 31.75 31.28 L 31.77 30.18 L 31.80 28.88 L 31.82 27.68 L 31.84 26.48 L 31.85 25.28 L 31.84 24.08 L 31.82 22.88 L 31.79 21.68 L 31.74 20.48 L 31.67 19.28 L 31.60 18.09 L 31.50 16.90 L 31.39 15.71 L 31.27 14.52 L 31.14 13.34 L 31.01 12.15 L 30.87 10.97 L 30.74 9.78 L 30.60 8.60 L 30.47 7.41 L 30.33 6.23 L 30.20 5.05 L 30.06 3.86 L 29.93 2.68 L 29.80 1.49 L 29.66 0.31 L 29.53 -0.88 L 29.39 -2.06 L 29.26 -3.25 L 29.12 -4.43 L 28.99 -5.61 L 28.85 -6.80 L 28.72 -7.98 L 28.58 -9.17 L 28.45 -10.35 L 28.32 -11.54 L 28.19 -13.06 L 28.15 -13.92 L 28.14 -15.12 L 28.13 -16.32 L 28.10 -18.73 L 28.09 -19.93 L 28.02 -21.12 L 27.87 -22.30 L 27.64 -23.45 L 27.32 -24.56 L 26.93 -25.61 L 26.48 -26.61 L 25.98 -27.55 L 25.43 -28.42 L 24.83 -29.24 L 24.21 -30.01 L 23.59 -30.78 L 22.97 -31.55 L 22.35 -32.32 L 21.72 -33.08 L 21.10 -33.85 L 20.48 -34.62 L 19.86 -35.38 L 19.23 -36.15 L 18.61 -36.92 L 17.99 -37.68 L 17.37 -38.45 L 16.74 -39.22 L 16.12 -39.98 L 15.50 -40.75 L 14.87 -41.52 L 14.25 -42.29 L 13.63 -43.05 L 13.01 -43.82 L 12.39 -44.58 L 11.76 -45.35 L 11.14 -46.12 L 10.52 -46.89 L 9.90 -47.65 L 9.27 -48.42 L 8.65 -49.19 L 8.03 -49.95 L 7.43 -50.71 L 6.83 -51.53 L 6.27 -52.39 L 5.74 -53.29 L 5.24 -54.24 L 4.78 -55.23 L 4.37 -56.27 L 4.01 -57.34 L 3.71 -58.46 L 3.46 -59.60 L 3.28 -60.77 L 3.16 -61.96 L 3.11 -63.16 L 3.11 -64.39 L 3.13 -65.59 L 3.15 -66.79 L 3.17 -67.99 L 3.19 -69.19 L 3.20 -70.39 L 3.22 -71.59 L 3.24 -72.79 L 3.22 -74.00 L 3.13 -75.19 L 2.99 -76.37 L 2.94 -76.83"/><path d="M 35.99 52.57 L 36.56 53.00 L 37.15 53.43 L 37.85 53.93 L 38.24 54.17 L 38.49 54.33 L 41.70 56.81 L 42.56 57.48 L 42.95 57.73 L 43.42 58.08"/><path d="M 31.88 49.34 L 32.19 49.68 L 32.38 49.96 L 32.59 50.14 L 32.87 50.38 L 32.92 50.39"/><path d="M 27.49 47.32 L 27.89 47.51 L 28.79 47.81 L 29.54 48.10 L 29.91 48.27 L 30.44 48.50 L 30.66 48.60"/><path d="M 15.65 45.04 L 16.16 44.89 L 16.50 44.80 L 16.86 44.72 L 17.21 44.65 L 17.57 44.60 L 17.86 44.57 L 18.14 44.55"/><path d="M 13.37 59.41 L 13.61 58.97 L 14.01 58.22 L 14.17 57.67 L 14.27 56.65"/><path d="M 18.66 44.58 L 19.40 44.62 L 20.12 44.78 L 20.64 44.94 L 21.34 45.16 L 22.32 45.50"/><path d="M 51.97 59.54 L 51.98 60.00 L 52.02 61.56 L 52.05 63.59"/><path d="M 2.69 -76.78 L 2.74 -76.32 L 2.85 -75.13 L 2.91 -73.93 L 2.92 -72.73 L 2.90 -71.53 L 2.88 -70.33 L 2.86 -69.13 L 2.84 -67.93 L 2.83 -66.73 L 2.81 -65.53 L 2.79 -64.32 L 2.79 -63.12 L 2.84 -61.92 L 2.96 -60.74 L 3.14 -59.57 L 3.39 -58.42 L 3.69 -57.31 L 4.04 -56.23 L 4.45 -55.19 L 4.90 -54.20 L 5.39 -53.24 L 5.92 -52.33 L 6.48 -51.47 L 7.07 -50.65 L 7.68 -49.88 L 8.31 -49.10 L 8.93 -48.33 L 9.55 -47.56 L 10.18 -46.79 L 10.80 -46.03 L 11.42 -45.26 L 12.04 -44.49 L 12.67 -43.73 L 13.29 -42.96 L 13.91 -42.19 L 14.53 -41.43 L 15.16 -40.66 L 15.78 -39.89 L 16.40 -39.13 L 17.02 -38.36 L 17.65 -37.59 L 18.27 -36.82 L 18.89 -36.06 L 19.51 -35.29 L 20.14 -34.53 L 20.76 -33.76 L 21.38 -32.99 L 22.00 -32.22 L 22.63 -31.46 L 23.25 -30.69 L 23.87 -29.92 L 24.49 -29.15 L 25.09 -28.34 L 25.64 -27.46 L 26.14 -26.52 L 26.59 -25.52 L 26.97 -24.46 L 27.29 -23.36 L 27.51 -22.20 L 27.65 -21.02 L 27.71 -19.83 L 27.72 -18.63 L 27.75 -16.22 L 27.76 -15.02 L 27.79 -13.82 L 27.87 -12.63 L 28.00 -11.44 L 28.13 -10.26 L 28.27 -9.07 L 28.40 -7.89 L 28.54 -6.70 L 28.67 -5.52 L 28.81 -4.33 L 28.94 -3.15 L 29.08 -1.97 L 29.21 -0.78 L 29.35 0.40 L 29.48 1.59 L 29.61 2.77 L 29.75 3.95 L 29.88 5.14 L 30.02 6.32 L 30.15 7.51 L 30.29 8.69 L 30.42 9.88 L 30.56 11.06 L 30.69 12.24 L 30.83 13.43 L 30.96 14.62 L 31.07 15.80 L 31.18 16.99 L 31.27 18.19 L 31.34 19.38 L 31.41 20.58 L 31.45 21.78 L 31.48 22.98 L 31.50 24.18 L 31.50 25.38 L 31.49 26.58 L 31.47 27.78 L 31.45 28.98 L 31.42 30.18 L 31.40 31.38 L 31.38 32.58 L 31.39 33.78 L 31.57 34.95 L 31.92 36.02 L 32.42 36.96 L 33.02 37.77 L 33.69 38.44 L 34.42 38.97 L 35.17 39.40 L 35.95 39.71 L 36.75 39.92 L 37.55 40.10 L 38.35 40.27 L 39.15 40.45 L 39.95 40.62 L 40.75 40.79 L 41.55 40.97 L 42.35 41.16 L 43.14 41.39 L 43.93 41.67 L 44.70 42.01 L 45.47 42.41 L 46.21 42.87 L 46.47 43.04 L 46.67 43.17 L 46.94 43.39 L 47.65 43.97 L 48.33 44.63 L 48.97 45.35 L 49.58 46.15 L 50.13 47.02 L 50.63 47.96 L 51.06 48.98 L 51.41 50.06 L 51.66 51.20 L 51.82 52.38 L 51.87 53.58 L 51.89 54.78 L 51.91 55.98 L 51.94 57.18 L 51.96 58.38 L 51.97 59.54"/><path d="M 44.19 58.45 L 44.82 58.72 L 45.01 58.78"/><path d="M 18.14 44.55 L 18.47 44.57"/><path d="M 34.07 50.96 L 34.87 51.58 L 34.98 51.74"/><path d="M 32.96 50.41 L 33.10 50.50 L 33.33 50.65"/><path d="M 52.02 60.04 L 52.28 60.04 L 52.35 63.10 L 52.08 63.11 L 52.02 60.04"/><path d="M 52.05 63.59 L 52.09 65.18 L 52.17 69.01 L 52.12 70.42 L 52.04 71.69 L 51.93 72.91 L 51.77 74.56 L 51.57 76.12 L 51.30 77.86 L 51.08 79.15 L 50.81 80.56 L 50.52 81.88 L 50.21 83.21 L 49.68 85.22 L 49.11 87.17 L 48.65 88.60 L 48.04 90.35 L 47.45 91.91 L 46.99 93.04 L 46.42 94.36 L 45.85 95.63 L 45.22 96.98 L 44.48 98.45 L 43.66 100.00 L 42.73 101.67 L 41.39 104.10 L 39.89 106.80 L 38.38 109.55 L 35.07 115.55 L 31.82 121.41 L 29.47 125.70 L 28.13 128.11 L 26.48 131.11 L 23.29 136.88 L 22.35 138.58 L 21.85 139.51 L 21.47 140.26 L 21.01 141.25 L 20.66 142.15 L 20.28 143.27 L 19.97 144.41 L 19.71 145.64 L 19.52 146.87 L 19.43 147.82 L 19.38 148.87 L 19.37 150.03 L 19.39 152.28 L 19.43 155.91 L 19.41 156.77 L 19.31 157.67 L 19.14 158.67 L 18.88 159.67 L 18.53 160.68 L 18.16 161.53 L 17.59 162.58 L 17.05 163.41 L 16.31 164.35 L 15.59 165.11 L 14.79 165.84 L 14.05 166.41 L 13.31 166.92 L 12.32 167.46 L 11.42 167.87 L 10.42 168.23 L 9.42 168.50 L 8.42 168.69 L 7.53 168.78 L 6.65 168.81 L 5.63 168.79 L 4.81 168.69 L 3.84 168.52 L 2.82 168.26 L 0.63 167.56 L 0.29 167.46 L -0.06 167.39 L -0.41 167.35 L -0.77 167.33 L -1.13 167.34 L -1.48 167.39 L -1.83 167.46 L -2.17 167.55 L -2.51 167.68 L -2.83 167.83 L -3.14 168.01 L -6.40 170.03 L -6.60 170.16 L -7.30 170.60 L -9.75 172.12 L -10.82 172.73 L -13.59 174.45 L -15.80 175.81 L -15.99 175.95 L -16.16 176.10 L -16.32 176.28 L -16.45 176.47 L -16.55 176.68 L -16.63 176.89 L -16.68 177.12 L -16.71 177.35 L -16.71 177.58 L -16.68 177.81 L -16.62 178.04 L -16.53 178.25 L -16.42 178.46 L -13.31 183.47 L -12.79 184.22 L -11.08 186.97 L -10.95 187.19 L -10.49 188.04 L -4.03 198.53 L -3.58 199.17 L -1.90 201.90 L -1.60 202.40 L -1.38 202.70 L -1.15 202.99 L -0.89 203.26 L 2.58 206.72 L 3.05 207.29 L 3.43 207.92 L 3.72 208.60 L 3.89 209.32"/><path d="M 35.02 51.78 L 35.19 51.92 L 35.38 52.09"/><path d="M 51.53 53.25 L 51.70 52.70 L 51.86 51.10"/><path d="M 49.01 58.51 L 49.46 58.23 L 49.98 57.86 L 50.42 57.41 L 50.72 56.94 L 51.15 56.32 L 51.37 55.95 L 51.45 55.73 L 51.48 55.66 L 51.52 55.31 L 51.52 53.84 L 51.53 53.25 L 51.69 51.92 L 51.75 51.09 L 51.83 47.90"/><path d="M 45.01 58.78 L 45.57 58.84 L 46.37 58.91 L 46.91 58.94 L 47.40 58.91 L 47.79 58.85 L 47.93 58.82 L 48.34 58.71 L 49.01 58.51 L 49.77 58.15 L 50.11 57.96 L 50.48 57.72"/><path d="M 52.62 54.37 L 52.94 52.89 L 54.96 42.87 L 55.47 40.56 L 55.75 39.16 L 55.93 37.77 L 56.00 37.24 L 56.13 35.28 L 56.17 33.92 L 56.13 31.99 L 56.08 31.36 L 56.07 31.32"/><path d="M 52.09 65.18 L 52.12 64.93 L 52.16 64.70 L 52.24 64.39 L 52.30 64.15 L 52.34 63.91 L 52.39 63.59"/><path d="M 52.05 63.59 L 52.09 63.84 L 52.14 64.07 L 52.24 64.39 L 52.31 64.63 L 52.36 64.86 L 52.42 65.17"/><path d="M 23.32 45.87 L 23.71 46.01 L 24.27 46.21 L 24.46 46.27 L 24.83 46.36 L 24.98 46.41 L 25.96 46.74 L 26.12 46.80"/><path d="M 26.42 46.90 L 26.57 46.96 L 27.10 47.16"/><path d="M 31.03 48.75 L 31.14 48.79"/><path d="M 30.73 48.63 L 30.91 48.70 L 31.03 48.75"/><path d="M 30.66 48.60 L 30.73 48.63"/><path d="M 32.92 50.39 L 32.96 50.41"/><path d="M 33.33 50.65 L 33.37 50.65"/><path d="M 34.98 51.74 L 35.02 51.78"/><path d="M 35.38 52.09 L 35.43 52.13"/><path d="M 35.43 52.13 L 35.52 52.23 L 35.57 52.26 L 35.76 52.40"/><path d="M 56.04 30.99 L 56.03 30.96 L 55.93 30.10 L 55.82 29.40 L 55.45 27.09 L 54.48 23.24 L 54.34 22.65 L 54.30 22.47 L 54.18 21.91 L 54.02 21.23 L 53.91 20.25 L 53.90 19.80 L 53.90 19.41 L 53.90 19.22 L 54.15 17.52"/><path d="M 56.04 31.01 L 56.04 30.99"/><path d="M 56.07 31.26 L 56.06 31.20 L 56.04 31.01"/><path d="M 56.07 31.32 L 56.07 31.26"/><path d="M 52.39 63.59 L 52.34 61.55 L 52.31 59.99 L 52.30 59.54"/><path d="M 35.76 52.40 L 35.99 52.57"/><path d="M 27.10 47.16 L 27.31 47.24 L 27.49 47.32"/><path d="M 31.53 29.23 L 31.75 29.23 L 31.71 31.83 L 31.49 31.83 L 31.53 29.23"/><path d="M 18.47 44.57 L 18.66 44.58"/><path d="M 43.42 58.08 L 43.53 58.15 L 43.70 58.24 L 44.19 58.45"/><path d="M 31.14 48.79 L 31.39 48.95 L 31.56 49.08 L 31.88 49.34"/><path d="M 33.37 50.65 L 34.07 50.96"/><path d="M 50.48 57.72 L 50.78 57.38 L 51.10 57.06 L 51.59 56.45 L 52.00 55.86"/><path d="M 22.32 45.50 L 22.68 45.63 L 22.82 45.67 L 23.24 45.81 L 23.27 45.86 L 23.32 45.87"/><path d="M 52.00 55.86 L 52.34 55.17 L 52.41 54.97 L 52.62 54.37"/><path d="M 14.27 56.65 L 14.37 55.57 L 14.38 55.47 L 14.42 55.45 L 14.93 55.21"/><path d="M 26.28 46.86 L 26.42 46.90"/><path d="M 26.12 46.80 L 26.28 46.86"/></g></g></g></svg>